<?xml version="1.0" encoding="UTF-8" standalone="no"?>
<!DOCTYPE svg PUBLIC "-//W3C//DTD SVG 1.1//EN"
 "http://www.w3.org/Graphics/SVG/1.1/DTD/svg11.dtd">
<!-- Generated by graphviz version 12.0.0 (20240803.0821)
 -->
<!-- Pages: 1 -->
<svg width="324pt" height="245pt"
 viewBox="0.00 0.00 323.50 245.50" xmlns="http://www.w3.org/2000/svg" xmlns:xlink="http://www.w3.org/1999/xlink">
<g id="graph0" class="graph" transform="scale(1 1) rotate(0) translate(4 241.5)">
<polygon fill="white" stroke="none" points="-4,4 -4,-241.5 319.5,-241.5 319.5,4 -4,4"/>
<g id="clust1" class="cluster">
<title>cluster20</title>
<path fill="none" stroke="black" d="M75.5,-8C75.5,-8 165.5,-8 165.5,-8 171.5,-8 177.5,-14 177.5,-20 177.5,-20 177.5,-217.5 177.5,-217.5 177.5,-223.5 171.5,-229.5 165.5,-229.5 165.5,-229.5 75.5,-229.5 75.5,-229.5 69.5,-229.5 63.5,-223.5 63.5,-217.5 63.5,-217.5 63.5,-20 63.5,-20 63.5,-14 69.5,-8 75.5,-8"/>
<text text-anchor="middle" x="160.5" y="-15.95" font-family="Times,serif" font-size="14.00">20</text>
</g>
<!-- alpha -->
<g id="node1" class="node">
<title>alpha</title>
<path fill="lightgrey" stroke="black" d="M43,-221.5C43,-221.5 12,-221.5 12,-221.5 6,-221.5 0,-215.5 0,-209.5 0,-209.5 0,-173.75 0,-173.75 0,-167.75 6,-161.75 12,-161.75 12,-161.75 43,-161.75 43,-161.75 49,-161.75 55,-167.75 55,-173.75 55,-173.75 55,-209.5 55,-209.5 55,-215.5 49,-221.5 43,-221.5"/>
<text text-anchor="middle" x="27.5" y="-204.2" font-family="Times,serif" font-size="14.00">alpha</text>
<text text-anchor="middle" x="27.5" y="-186.95" font-family="Times,serif" font-size="14.00">~</text>
<text text-anchor="middle" x="27.5" y="-169.7" font-family="Times,serif" font-size="14.00">Data</text>
</g>
<!-- y -->
<g id="node4" class="node">
<title>y</title>
<ellipse fill="none" stroke="black" cx="120.5" cy="-83.5" rx="48.97" ry="42.25"/>
<text text-anchor="middle" x="120.5" y="-96.07" font-family="Times,serif" font-size="14.00">y</text>
<text text-anchor="middle" x="120.5" y="-78.82" font-family="Times,serif" font-size="14.00">~</text>
<text text-anchor="middle" x="120.5" y="-61.57" font-family="Times,serif" font-size="14.00">Normal</text>
</g>
<!-- alpha&#45;&gt;y -->
<g id="edge1" class="edge">
<title>alpha&#45;&gt;y</title>
<path fill="none" stroke="black" d="M53.16,-161.34C62.68,-150.48 73.66,-137.95 83.97,-126.19"/>
<polygon fill="black" stroke="black" points="86.36,-128.77 90.32,-118.94 81.09,-124.16 86.36,-128.77"/>
</g>
<!-- sigma -->
<g id="node2" class="node">
<title>sigma</title>
<path fill="lightgrey" stroke="black" d="M231.88,-221.5C231.88,-221.5 197.12,-221.5 197.12,-221.5 191.12,-221.5 185.12,-215.5 185.12,-209.5 185.12,-209.5 185.12,-173.75 185.12,-173.75 185.12,-167.75 191.12,-161.75 197.12,-161.75 197.12,-161.75 231.88,-161.75 231.88,-161.75 237.88,-161.75 243.88,-167.75 243.88,-173.75 243.88,-173.75 243.88,-209.5 243.88,-209.5 243.88,-215.5 237.88,-221.5 231.88,-221.5"/>
<text text-anchor="middle" x="214.5" y="-204.2" font-family="Times,serif" font-size="14.00">sigma</text>
<text text-anchor="middle" x="214.5" y="-186.95" font-family="Times,serif" font-size="14.00">~</text>
<text text-anchor="middle" x="214.5" y="-169.7" font-family="Times,serif" font-size="14.00">Data</text>
</g>
<!-- sigma&#45;&gt;y -->
<g id="edge2" class="edge">
<title>sigma&#45;&gt;y</title>
<path fill="none" stroke="black" d="M188.57,-161.34C178.94,-150.48 167.84,-137.95 157.43,-126.19"/>
<polygon fill="black" stroke="black" points="160.25,-124.1 151,-118.94 155.01,-128.74 160.25,-124.1"/>
</g>
<!-- beta -->
<g id="node3" class="node">
<title>beta</title>
<path fill="lightgrey" stroke="black" d="M303.5,-221.5C303.5,-221.5 273.5,-221.5 273.5,-221.5 267.5,-221.5 261.5,-215.5 261.5,-209.5 261.5,-209.5 261.5,-173.75 261.5,-173.75 261.5,-167.75 267.5,-161.75 273.5,-161.75 273.5,-161.75 303.5,-161.75 303.5,-161.75 309.5,-161.75 315.5,-167.75 315.5,-173.75 315.5,-173.75 315.5,-209.5 315.5,-209.5 315.5,-215.5 309.5,-221.5 303.5,-221.5"/>
<text text-anchor="middle" x="288.5" y="-204.2" font-family="Times,serif" font-size="14.00">beta</text>
<text text-anchor="middle" x="288.5" y="-186.95" font-family="Times,serif" font-size="14.00">~</text>
<text text-anchor="middle" x="288.5" y="-169.7" font-family="Times,serif" font-size="14.00">Data</text>
</g>
<!-- beta&#45;&gt;y -->
<g id="edge3" class="edge">
<title>beta&#45;&gt;y</title>
<path fill="none" stroke="black" d="M261.3,-168.13C258.37,-165.91 255.4,-163.75 252.5,-161.75 226.74,-144.02 196.74,-126.25 171.86,-112.24"/>
<polygon fill="black" stroke="black" points="173.65,-109.23 163.21,-107.41 170.24,-115.34 173.65,-109.23"/>
</g>
<!-- x -->
<g id="node5" class="node">
<title>x</title>
<path fill="lightgrey" stroke="black" d="M135.5,-221.5C135.5,-221.5 105.5,-221.5 105.5,-221.5 99.5,-221.5 93.5,-215.5 93.5,-209.5 93.5,-209.5 93.5,-173.75 93.5,-173.75 93.5,-167.75 99.5,-161.75 105.5,-161.75 105.5,-161.75 135.5,-161.75 135.5,-161.75 141.5,-161.75 147.5,-167.75 147.5,-173.75 147.5,-173.75 147.5,-209.5 147.5,-209.5 147.5,-215.5 141.5,-221.5 135.5,-221.5"/>
<text text-anchor="middle" x="120.5" y="-204.2" font-family="Times,serif" font-size="14.00">x</text>
<text text-anchor="middle" x="120.5" y="-186.95" font-family="Times,serif" font-size="14.00">~</text>
<text text-anchor="middle" x="120.5" y="-169.7" font-family="Times,serif" font-size="14.00">Data</text>
</g>
<!-- x&#45;&gt;y -->
<g id="edge4" class="edge">
<title>x&#45;&gt;y</title>
<path fill="none" stroke="black" d="M120.5,-161.34C120.5,-153.84 120.5,-145.53 120.5,-137.23"/>
<polygon fill="black" stroke="black" points="124,-137.51 120.5,-127.51 117,-137.51 124,-137.51"/>
</g>
</g>
</svg>
