<?xml version="1.0" encoding="UTF-8" standalone="no"?>
<!DOCTYPE svg PUBLIC "-//W3C//DTD SVG 1.1//EN"
 "http://www.w3.org/Graphics/SVG/1.1/DTD/svg11.dtd">
<!-- Generated by graphviz version 12.0.0 (20240803.0821)
 -->
<!-- Pages: 1 -->
<svg width="276pt" height="251pt"
 viewBox="0.00 0.00 276.38 250.75" xmlns="http://www.w3.org/2000/svg" xmlns:xlink="http://www.w3.org/1999/xlink">
<g id="graph0" class="graph" transform="scale(1 1) rotate(0) translate(4 246.75)">
<polygon fill="white" stroke="none" points="-4,4 -4,-246.75 272.38,-246.75 272.38,4 -4,4"/>
<g id="clust1" class="cluster">
<title>cluster48</title>
<path fill="none" stroke="black" d="M20,-8C20,-8 110,-8 110,-8 116,-8 122,-14 122,-20 122,-20 122,-222.75 122,-222.75 122,-228.75 116,-234.75 110,-234.75 110,-234.75 20,-234.75 20,-234.75 14,-234.75 8,-228.75 8,-222.75 8,-222.75 8,-20 8,-20 8,-14 14,-8 20,-8"/>
<text text-anchor="middle" x="105" y="-15.95" font-family="Times,serif" font-size="14.00">48</text>
</g>
<g id="clust2" class="cluster">
<title>cluster4</title>
<path fill="none" stroke="black" d="M142,-133.75C142,-133.75 188,-133.75 188,-133.75 194,-133.75 200,-139.75 200,-145.75 200,-145.75 200,-222.75 200,-222.75 200,-228.75 194,-234.75 188,-234.75 188,-234.75 142,-234.75 142,-234.75 136,-234.75 130,-228.75 130,-222.75 130,-222.75 130,-145.75 130,-145.75 130,-139.75 136,-133.75 142,-133.75"/>
<text text-anchor="middle" x="187.5" y="-141.7" font-family="Times,serif" font-size="14.00">4</text>
</g>
<!-- y -->
<g id="node1" class="node">
<title>y</title>
<ellipse fill="none" stroke="black" cx="65" cy="-83.5" rx="48.97" ry="42.25"/>
<text text-anchor="middle" x="65" y="-96.07" font-family="Times,serif" font-size="14.00">y</text>
<text text-anchor="middle" x="65" y="-78.82" font-family="Times,serif" font-size="14.00">~</text>
<text text-anchor="middle" x="65" y="-61.57" font-family="Times,serif" font-size="14.00">Normal</text>
</g>
<!-- group_idx -->
<g id="node2" class="node">
<title>group_idx</title>
<path fill="lightgrey" stroke="black" d="M96.25,-226.75C96.25,-226.75 33.75,-226.75 33.75,-226.75 27.75,-226.75 21.75,-220.75 21.75,-214.75 21.75,-214.75 21.75,-179 21.75,-179 21.75,-173 27.75,-167 33.75,-167 33.75,-167 96.25,-167 96.25,-167 102.25,-167 108.25,-173 108.25,-179 108.25,-179 108.25,-214.75 108.25,-214.75 108.25,-220.75 102.25,-226.75 96.25,-226.75"/>
<text text-anchor="middle" x="65" y="-209.45" font-family="Times,serif" font-size="14.00">group_idx</text>
<text text-anchor="middle" x="65" y="-192.2" font-family="Times,serif" font-size="14.00">~</text>
<text text-anchor="middle" x="65" y="-174.95" font-family="Times,serif" font-size="14.00">Data</text>
</g>
<!-- group_idx&#45;&gt;y -->
<g id="edge3" class="edge">
<title>group_idx&#45;&gt;y</title>
<path fill="none" stroke="black" d="M65,-166.61C65,-157.62 65,-147.43 65,-137.37"/>
<polygon fill="black" stroke="black" points="68.5,-137.64 65,-127.64 61.5,-137.64 68.5,-137.64"/>
</g>
<!-- mu -->
<g id="node3" class="node">
<title>mu</title>
<path fill="lightgrey" stroke="black" d="M180,-226.75C180,-226.75 150,-226.75 150,-226.75 144,-226.75 138,-220.75 138,-214.75 138,-214.75 138,-179 138,-179 138,-173 144,-167 150,-167 150,-167 180,-167 180,-167 186,-167 192,-173 192,-179 192,-179 192,-214.75 192,-214.75 192,-220.75 186,-226.75 180,-226.75"/>
<text text-anchor="middle" x="165" y="-209.45" font-family="Times,serif" font-size="14.00">mu</text>
<text text-anchor="middle" x="165" y="-192.2" font-family="Times,serif" font-size="14.00">~</text>
<text text-anchor="middle" x="165" y="-174.95" font-family="Times,serif" font-size="14.00">Data</text>
</g>
<!-- mu&#45;&gt;y -->
<g id="edge2" class="edge">
<title>mu&#45;&gt;y</title>
<path fill="none" stroke="black" d="M149.38,-166.65C142.88,-155.76 134.79,-143.65 126,-133.75 121.37,-128.54 116.16,-123.44 110.78,-118.63"/>
<polygon fill="black" stroke="black" points="113.26,-116.14 103.39,-112.29 108.7,-121.46 113.26,-116.14"/>
</g>
<!-- sigma -->
<g id="node4" class="node">
<title>sigma</title>
<path fill="lightgrey" stroke="black" d="M256.38,-226.75C256.38,-226.75 221.62,-226.75 221.62,-226.75 215.62,-226.75 209.62,-220.75 209.62,-214.75 209.62,-214.75 209.62,-179 209.62,-179 209.62,-173 215.62,-167 221.62,-167 221.62,-167 256.38,-167 256.38,-167 262.38,-167 268.38,-173 268.38,-179 268.38,-179 268.38,-214.75 268.38,-214.75 268.38,-220.75 262.38,-226.75 256.38,-226.75"/>
<text text-anchor="middle" x="239" y="-209.45" font-family="Times,serif" font-size="14.00">sigma</text>
<text text-anchor="middle" x="239" y="-192.2" font-family="Times,serif" font-size="14.00">~</text>
<text text-anchor="middle" x="239" y="-174.95" font-family="Times,serif" font-size="14.00">Data</text>
</g>
<!-- sigma&#45;&gt;y -->
<g id="edge1" class="edge">
<title>sigma&#45;&gt;y</title>
<path fill="none" stroke="black" d="M227.85,-166.54C222.21,-154.98 214.33,-142.43 204,-133.75 181.27,-114.63 150.59,-102.73 123.84,-95.43"/>
<polygon fill="black" stroke="black" points="125.06,-92.13 114.5,-93.04 123.32,-98.91 125.06,-92.13"/>
</g>
</g>
</svg>
