<?xml version="1.0" encoding="UTF-8" standalone="no"?>
<!DOCTYPE svg PUBLIC "-//W3C//DTD SVG 1.1//EN"
 "http://www.w3.org/Graphics/SVG/1.1/DTD/svg11.dtd">
<!-- Generated by graphviz version 12.0.0 (20240803.0821)
 -->
<!-- Pages: 1 -->
<svg width="212pt" height="229pt"
 viewBox="0.00 0.00 211.50 229.50" xmlns="http://www.w3.org/2000/svg" xmlns:xlink="http://www.w3.org/1999/xlink">
<g id="graph0" class="graph" transform="scale(1 1) rotate(0) translate(4 225.5)">
<polygon fill="white" stroke="none" points="-4,4 -4,-225.5 207.5,-225.5 207.5,4 -4,4"/>
<g id="clust1" class="cluster">
<title>cluster20</title>
<path fill="none" stroke="black" d="M57.5,-8C57.5,-8 147.5,-8 147.5,-8 153.5,-8 159.5,-14 159.5,-20 159.5,-20 159.5,-121.75 159.5,-121.75 159.5,-127.75 153.5,-133.75 147.5,-133.75 147.5,-133.75 57.5,-133.75 57.5,-133.75 51.5,-133.75 45.5,-127.75 45.5,-121.75 45.5,-121.75 45.5,-20 45.5,-20 45.5,-14 51.5,-8 57.5,-8"/>
<text text-anchor="middle" x="142.5" y="-15.95" font-family="Times,serif" font-size="14.00">20</text>
</g>
<!-- alpha -->
<g id="node1" class="node">
<title>alpha</title>
<path fill="lightgrey" stroke="black" d="M43,-221.5C43,-221.5 12,-221.5 12,-221.5 6,-221.5 0,-215.5 0,-209.5 0,-209.5 0,-173.75 0,-173.75 0,-167.75 6,-161.75 12,-161.75 12,-161.75 43,-161.75 43,-161.75 49,-161.75 55,-167.75 55,-173.75 55,-173.75 55,-209.5 55,-209.5 55,-215.5 49,-221.5 43,-221.5"/>
<text text-anchor="middle" x="27.5" y="-204.2" font-family="Times,serif" font-size="14.00">alpha</text>
<text text-anchor="middle" x="27.5" y="-186.95" font-family="Times,serif" font-size="14.00">~</text>
<text text-anchor="middle" x="27.5" y="-169.7" font-family="Times,serif" font-size="14.00">Data</text>
</g>
<!-- y -->
<g id="node4" class="node">
<title>y</title>
<ellipse fill="none" stroke="black" cx="102.5" cy="-83.5" rx="48.97" ry="42.25"/>
<text text-anchor="middle" x="102.5" y="-96.07" font-family="Times,serif" font-size="14.00">y</text>
<text text-anchor="middle" x="102.5" y="-78.82" font-family="Times,serif" font-size="14.00">~</text>
<text text-anchor="middle" x="102.5" y="-61.57" font-family="Times,serif" font-size="14.00">Normal</text>
</g>
<!-- alpha&#45;&gt;y -->
<g id="edge1" class="edge">
<title>alpha&#45;&gt;y</title>
<path fill="none" stroke="black" d="M48.19,-161.34C55.17,-151.47 63.12,-140.22 70.75,-129.43"/>
<polygon fill="black" stroke="black" points="73.55,-131.53 76.46,-121.34 67.83,-127.49 73.55,-131.53"/>
</g>
<!-- sigma -->
<g id="node2" class="node">
<title>sigma</title>
<path fill="lightgrey" stroke="black" d="M119.88,-221.5C119.88,-221.5 85.12,-221.5 85.12,-221.5 79.12,-221.5 73.12,-215.5 73.12,-209.5 73.12,-209.5 73.12,-173.75 73.12,-173.75 73.12,-167.75 79.12,-161.75 85.12,-161.75 85.12,-161.75 119.88,-161.75 119.88,-161.75 125.88,-161.75 131.88,-167.75 131.88,-173.75 131.88,-173.75 131.88,-209.5 131.88,-209.5 131.88,-215.5 125.88,-221.5 119.88,-221.5"/>
<text text-anchor="middle" x="102.5" y="-204.2" font-family="Times,serif" font-size="14.00">sigma</text>
<text text-anchor="middle" x="102.5" y="-186.95" font-family="Times,serif" font-size="14.00">~</text>
<text text-anchor="middle" x="102.5" y="-169.7" font-family="Times,serif" font-size="14.00">Data</text>
</g>
<!-- sigma&#45;&gt;y -->
<g id="edge2" class="edge">
<title>sigma&#45;&gt;y</title>
<path fill="none" stroke="black" d="M102.5,-161.34C102.5,-153.84 102.5,-145.53 102.5,-137.23"/>
<polygon fill="black" stroke="black" points="106,-137.51 102.5,-127.51 99,-137.51 106,-137.51"/>
</g>
<!-- beta -->
<g id="node3" class="node">
<title>beta</title>
<path fill="lightgrey" stroke="black" d="M191.5,-221.5C191.5,-221.5 161.5,-221.5 161.5,-221.5 155.5,-221.5 149.5,-215.5 149.5,-209.5 149.5,-209.5 149.5,-173.75 149.5,-173.75 149.5,-167.75 155.5,-161.75 161.5,-161.75 161.5,-161.75 191.5,-161.75 191.5,-161.75 197.5,-161.75 203.5,-167.75 203.5,-173.75 203.5,-173.75 203.5,-209.5 203.5,-209.5 203.5,-215.5 197.5,-221.5 191.5,-221.5"/>
<text text-anchor="middle" x="176.5" y="-204.2" font-family="Times,serif" font-size="14.00">beta</text>
<text text-anchor="middle" x="176.5" y="-186.95" font-family="Times,serif" font-size="14.00">~</text>
<text text-anchor="middle" x="176.5" y="-169.7" font-family="Times,serif" font-size="14.00">Data</text>
</g>
<!-- beta&#45;&gt;y -->
<g id="edge3" class="edge">
<title>beta&#45;&gt;y</title>
<path fill="none" stroke="black" d="M156.08,-161.34C149.2,-151.47 141.35,-140.22 133.83,-129.43"/>
<polygon fill="black" stroke="black" points="136.78,-127.55 128.19,-121.35 131.04,-131.55 136.78,-127.55"/>
</g>
</g>
</svg>
