<?xml version="1.0" encoding="UTF-8" standalone="no"?>
<!DOCTYPE svg PUBLIC "-//W3C//DTD SVG 1.1//EN"
 "http://www.w3.org/Graphics/SVG/1.1/DTD/svg11.dtd">
<!-- Generated by graphviz version 12.0.0 (20240803.0821)
 -->
<!-- Pages: 1 -->
<svg width="496pt" height="467pt"
 viewBox="0.00 0.00 496.00 467.00" xmlns="http://www.w3.org/2000/svg" xmlns:xlink="http://www.w3.org/1999/xlink">
<g id="graph0" class="graph" transform="scale(1 1) rotate(0) translate(4 463)">
<polygon fill="white" stroke="none" points="-4,4 -4,-463 492,-463 492,4 -4,4"/>
<g id="clust1" class="cluster">
<title>clustergroup (3)</title>
<path fill="none" stroke="black" d="M20,-229.5C20,-229.5 226,-229.5 226,-229.5 232,-229.5 238,-235.5 238,-241.5 238,-241.5 238,-343.25 238,-343.25 238,-349.25 232,-355.25 226,-355.25 226,-355.25 20,-355.25 20,-355.25 14,-355.25 8,-349.25 8,-343.25 8,-343.25 8,-241.5 8,-241.5 8,-235.5 14,-229.5 20,-229.5"/>
<text text-anchor="middle" x="197" y="-237.45" font-family="Times,serif" font-size="14.00">group (3)</text>
</g>
<g id="clust2" class="cluster">
<title>clusterobs_idx (200)</title>
<path fill="none" stroke="black" d="M258,-8C258,-8 468,-8 468,-8 474,-8 480,-14 480,-20 480,-20 480,-439 480,-439 480,-445 474,-451 468,-451 468,-451 258,-451 258,-451 252,-451 246,-445 246,-439 246,-439 246,-20 246,-20 246,-14 252,-8 258,-8"/>
<text text-anchor="middle" x="424.38" y="-15.95" font-family="Times,serif" font-size="14.00">obs_idx (200)</text>
</g>
<!-- alpha -->
<g id="node1" class="node">
<title>alpha</title>
<ellipse fill="none" stroke="black" cx="65" cy="-305" rx="48.97" ry="42.25"/>
<text text-anchor="middle" x="65" y="-317.57" font-family="Times,serif" font-size="14.00">alpha</text>
<text text-anchor="middle" x="65" y="-300.32" font-family="Times,serif" font-size="14.00">~</text>
<text text-anchor="middle" x="65" y="-283.07" font-family="Times,serif" font-size="14.00">Normal</text>
</g>
<!-- pi -->
<g id="node7" class="node">
<title>pi</title>
<polygon fill="none" stroke="black" points="367.75,-221.5 254.25,-221.5 254.25,-161.75 367.75,-161.75 367.75,-221.5"/>
<text text-anchor="middle" x="311" y="-204.2" font-family="Times,serif" font-size="14.00">pi</text>
<text text-anchor="middle" x="311" y="-186.95" font-family="Times,serif" font-size="14.00">~</text>
<text text-anchor="middle" x="311" y="-169.7" font-family="Times,serif" font-size="14.00">Deterministic</text>
</g>
<!-- alpha&#45;&gt;pi -->
<g id="edge4" class="edge">
<title>alpha&#45;&gt;pi</title>
<path fill="none" stroke="black" d="M86.16,-266.62C95.71,-252.94 108.2,-238.6 123,-229.5 158.69,-207.55 204.77,-198.27 242.38,-194.51"/>
<polygon fill="black" stroke="black" points="242.6,-198 252.26,-193.64 241.99,-191.03 242.6,-198"/>
</g>
<!-- beta -->
<g id="node2" class="node">
<title>beta</title>
<ellipse fill="none" stroke="black" cx="181" cy="-305" rx="48.97" ry="42.25"/>
<text text-anchor="middle" x="181" y="-317.57" font-family="Times,serif" font-size="14.00">beta</text>
<text text-anchor="middle" x="181" y="-300.32" font-family="Times,serif" font-size="14.00">~</text>
<text text-anchor="middle" x="181" y="-283.07" font-family="Times,serif" font-size="14.00">Normal</text>
</g>
<!-- beta&#45;&gt;pi -->
<g id="edge6" class="edge">
<title>beta&#45;&gt;pi</title>
<path fill="none" stroke="black" d="M205.77,-268.07C215.98,-254.9 228.57,-240.54 242,-229.5 242.94,-228.72 243.91,-227.96 244.89,-227.2"/>
<polygon fill="black" stroke="black" points="246.74,-230.18 252.85,-221.52 242.68,-224.48 246.74,-230.18"/>
</g>
<!-- age_scaled -->
<g id="node3" class="node">
<title>age_scaled</title>
<polygon fill="none" stroke="black" points="367.75,-334.87 254.25,-334.87 254.25,-275.12 367.75,-275.12 367.75,-334.87"/>
<text text-anchor="middle" x="311" y="-317.57" font-family="Times,serif" font-size="14.00">age_scaled</text>
<text text-anchor="middle" x="311" y="-300.32" font-family="Times,serif" font-size="14.00">~</text>
<text text-anchor="middle" x="311" y="-283.07" font-family="Times,serif" font-size="14.00">Deterministic</text>
</g>
<!-- age_scaled&#45;&gt;pi -->
<g id="edge3" class="edge">
<title>age_scaled&#45;&gt;pi</title>
<path fill="none" stroke="black" d="M311,-274.74C311,-261.95 311,-246.74 311,-232.9"/>
<polygon fill="black" stroke="black" points="314.5,-233.2 311,-223.2 307.5,-233.2 314.5,-233.2"/>
</g>
<!-- y -->
<g id="node4" class="node">
<title>y</title>
<ellipse fill="lightgrey" stroke="black" cx="311" cy="-83.5" rx="57.45" ry="42.25"/>
<text text-anchor="middle" x="311" y="-96.07" font-family="Times,serif" font-size="14.00">y</text>
<text text-anchor="middle" x="311" y="-78.82" font-family="Times,serif" font-size="14.00">~</text>
<text text-anchor="middle" x="311" y="-61.57" font-family="Times,serif" font-size="14.00">Bernoulli</text>
</g>
<!-- age -->
<g id="node5" class="node">
<title>age</title>
<path fill="lightgrey" stroke="black" d="M326,-443C326,-443 296,-443 296,-443 290,-443 284,-437 284,-431 284,-431 284,-395.25 284,-395.25 284,-389.25 290,-383.25 296,-383.25 296,-383.25 326,-383.25 326,-383.25 332,-383.25 338,-389.25 338,-395.25 338,-395.25 338,-431 338,-431 338,-437 332,-443 326,-443"/>
<text text-anchor="middle" x="311" y="-425.7" font-family="Times,serif" font-size="14.00">age</text>
<text text-anchor="middle" x="311" y="-408.45" font-family="Times,serif" font-size="14.00">~</text>
<text text-anchor="middle" x="311" y="-391.2" font-family="Times,serif" font-size="14.00">Data</text>
</g>
<!-- age&#45;&gt;age_scaled -->
<g id="edge2" class="edge">
<title>age&#45;&gt;age_scaled</title>
<path fill="none" stroke="black" d="M311,-382.84C311,-371.59 311,-358.54 311,-346.43"/>
<polygon fill="black" stroke="black" points="314.5,-346.7 311,-336.7 307.5,-346.7 314.5,-346.7"/>
</g>
<!-- group_idx -->
<g id="node6" class="node">
<title>group_idx</title>
<path fill="lightgrey" stroke="black" d="M460.25,-334.87C460.25,-334.87 397.75,-334.87 397.75,-334.87 391.75,-334.87 385.75,-328.87 385.75,-322.87 385.75,-322.87 385.75,-287.12 385.75,-287.12 385.75,-281.12 391.75,-275.12 397.75,-275.12 397.75,-275.12 460.25,-275.12 460.25,-275.12 466.25,-275.12 472.25,-281.12 472.25,-287.12 472.25,-287.12 472.25,-322.87 472.25,-322.87 472.25,-328.87 466.25,-334.87 460.25,-334.87"/>
<text text-anchor="middle" x="429" y="-317.57" font-family="Times,serif" font-size="14.00">group_idx</text>
<text text-anchor="middle" x="429" y="-300.32" font-family="Times,serif" font-size="14.00">~</text>
<text text-anchor="middle" x="429" y="-283.07" font-family="Times,serif" font-size="14.00">Data</text>
</g>
<!-- group_idx&#45;&gt;pi -->
<g id="edge5" class="edge">
<title>group_idx&#45;&gt;pi</title>
<path fill="none" stroke="black" d="M412.9,-274.74C403.75,-259.93 391.27,-242.41 377,-229.5 376.82,-229.33 376.63,-229.17 376.45,-229.01"/>
<polygon fill="black" stroke="black" points="378.83,-226.43 368.84,-222.87 374.43,-231.87 378.83,-226.43"/>
</g>
<!-- pi&#45;&gt;y -->
<g id="edge1" class="edge">
<title>pi&#45;&gt;y</title>
<path fill="none" stroke="black" d="M311,-161.34C311,-153.84 311,-145.53 311,-137.23"/>
<polygon fill="black" stroke="black" points="314.5,-137.51 311,-127.51 307.5,-137.51 314.5,-137.51"/>
</g>
</g>
</svg>
