<?xml version="1.0" encoding="UTF-8" standalone="no"?>
<!DOCTYPE svg PUBLIC "-//W3C//DTD SVG 1.1//EN"
 "http://www.w3.org/Graphics/SVG/1.1/DTD/svg11.dtd">
<!-- Generated by graphviz version 12.0.0 (20240803.0821)
 -->
<!-- Pages: 1 -->
<svg width="436pt" height="371pt"
 viewBox="0.00 0.00 436.00 371.25" xmlns="http://www.w3.org/2000/svg" xmlns:xlink="http://www.w3.org/1999/xlink">
<g id="graph0" class="graph" transform="scale(1 1) rotate(0) translate(4 367.25)">
<polygon fill="white" stroke="none" points="-4,4 -4,-367.25 432,-367.25 432,4 -4,4"/>
<g id="clust1" class="cluster">
<title>clustergroup (3)</title>
<path fill="none" stroke="black" d="M20,-229.5C20,-229.5 226,-229.5 226,-229.5 232,-229.5 238,-235.5 238,-241.5 238,-241.5 238,-343.25 238,-343.25 238,-349.25 232,-355.25 226,-355.25 226,-355.25 20,-355.25 20,-355.25 14,-355.25 8,-349.25 8,-343.25 8,-343.25 8,-241.5 8,-241.5 8,-235.5 14,-229.5 20,-229.5"/>
<text text-anchor="middle" x="197" y="-237.45" font-family="Times,serif" font-size="14.00">group (3)</text>
</g>
<g id="clust2" class="cluster">
<title>clusterobs_idx (200)</title>
<path fill="none" stroke="black" d="M258,-8C258,-8 408,-8 408,-8 414,-8 420,-14 420,-20 420,-20 420,-330.87 420,-330.87 420,-336.87 414,-342.87 408,-342.87 408,-342.87 258,-342.87 258,-342.87 252,-342.87 246,-336.87 246,-330.87 246,-330.87 246,-20 246,-20 246,-14 252,-8 258,-8"/>
<text text-anchor="middle" x="364.38" y="-15.95" font-family="Times,serif" font-size="14.00">obs_idx (200)</text>
</g>
<!-- alpha -->
<g id="node1" class="node">
<title>alpha</title>
<ellipse fill="none" stroke="black" cx="65" cy="-305" rx="48.97" ry="42.25"/>
<text text-anchor="middle" x="65" y="-317.57" font-family="Times,serif" font-size="14.00">alpha</text>
<text text-anchor="middle" x="65" y="-300.32" font-family="Times,serif" font-size="14.00">~</text>
<text text-anchor="middle" x="65" y="-283.07" font-family="Times,serif" font-size="14.00">Normal</text>
</g>
<!-- pi -->
<g id="node4" class="node">
<title>pi</title>
<polygon fill="none" stroke="black" points="367.75,-221.5 254.25,-221.5 254.25,-161.75 367.75,-161.75 367.75,-221.5"/>
<text text-anchor="middle" x="311" y="-204.2" font-family="Times,serif" font-size="14.00">pi</text>
<text text-anchor="middle" x="311" y="-186.95" font-family="Times,serif" font-size="14.00">~</text>
<text text-anchor="middle" x="311" y="-169.7" font-family="Times,serif" font-size="14.00">Deterministic</text>
</g>
<!-- alpha&#45;&gt;pi -->
<g id="edge3" class="edge">
<title>alpha&#45;&gt;pi</title>
<path fill="none" stroke="black" d="M86.16,-266.62C95.71,-252.94 108.2,-238.6 123,-229.5 158.69,-207.55 204.77,-198.27 242.38,-194.51"/>
<polygon fill="black" stroke="black" points="242.6,-198 252.26,-193.64 241.99,-191.03 242.6,-198"/>
</g>
<!-- beta -->
<g id="node2" class="node">
<title>beta</title>
<ellipse fill="none" stroke="black" cx="181" cy="-305" rx="48.97" ry="42.25"/>
<text text-anchor="middle" x="181" y="-317.57" font-family="Times,serif" font-size="14.00">beta</text>
<text text-anchor="middle" x="181" y="-300.32" font-family="Times,serif" font-size="14.00">~</text>
<text text-anchor="middle" x="181" y="-283.07" font-family="Times,serif" font-size="14.00">Normal</text>
</g>
<!-- beta&#45;&gt;pi -->
<g id="edge5" class="edge">
<title>beta&#45;&gt;pi</title>
<path fill="none" stroke="black" d="M205.77,-268.07C215.98,-254.9 228.57,-240.54 242,-229.5 242.94,-228.72 243.91,-227.96 244.89,-227.2"/>
<polygon fill="black" stroke="black" points="246.74,-230.18 252.85,-221.52 242.68,-224.48 246.74,-230.18"/>
</g>
<!-- y -->
<g id="node3" class="node">
<title>y</title>
<ellipse fill="lightgrey" stroke="black" cx="311" cy="-83.5" rx="57.45" ry="42.25"/>
<text text-anchor="middle" x="311" y="-96.07" font-family="Times,serif" font-size="14.00">y</text>
<text text-anchor="middle" x="311" y="-78.82" font-family="Times,serif" font-size="14.00">~</text>
<text text-anchor="middle" x="311" y="-61.57" font-family="Times,serif" font-size="14.00">Bernoulli</text>
</g>
<!-- pi&#45;&gt;y -->
<g id="edge1" class="edge">
<title>pi&#45;&gt;y</title>
<path fill="none" stroke="black" d="M311,-161.34C311,-153.84 311,-145.53 311,-137.23"/>
<polygon fill="black" stroke="black" points="314.5,-137.51 311,-127.51 307.5,-137.51 314.5,-137.51"/>
</g>
<!-- age -->
<g id="node5" class="node">
<title>age</title>
<path fill="lightgrey" stroke="black" d="M296,-334.87C296,-334.87 266,-334.87 266,-334.87 260,-334.87 254,-328.87 254,-322.87 254,-322.87 254,-287.12 254,-287.12 254,-281.12 260,-275.12 266,-275.12 266,-275.12 296,-275.12 296,-275.12 302,-275.12 308,-281.12 308,-287.12 308,-287.12 308,-322.87 308,-322.87 308,-328.87 302,-334.87 296,-334.87"/>
<text text-anchor="middle" x="281" y="-317.57" font-family="Times,serif" font-size="14.00">age</text>
<text text-anchor="middle" x="281" y="-300.32" font-family="Times,serif" font-size="14.00">~</text>
<text text-anchor="middle" x="281" y="-283.07" font-family="Times,serif" font-size="14.00">Data</text>
</g>
<!-- age&#45;&gt;pi -->
<g id="edge2" class="edge">
<title>age&#45;&gt;pi</title>
<path fill="none" stroke="black" d="M288.88,-274.74C292.36,-261.82 296.51,-246.43 300.26,-232.49"/>
<polygon fill="black" stroke="black" points="303.56,-233.72 302.78,-223.15 296.8,-231.9 303.56,-233.72"/>
</g>
<!-- group_idx -->
<g id="node6" class="node">
<title>group_idx</title>
<path fill="lightgrey" stroke="black" d="M400.25,-334.87C400.25,-334.87 337.75,-334.87 337.75,-334.87 331.75,-334.87 325.75,-328.87 325.75,-322.87 325.75,-322.87 325.75,-287.12 325.75,-287.12 325.75,-281.12 331.75,-275.12 337.75,-275.12 337.75,-275.12 400.25,-275.12 400.25,-275.12 406.25,-275.12 412.25,-281.12 412.25,-287.12 412.25,-287.12 412.25,-322.87 412.25,-322.87 412.25,-328.87 406.25,-334.87 400.25,-334.87"/>
<text text-anchor="middle" x="369" y="-317.57" font-family="Times,serif" font-size="14.00">group_idx</text>
<text text-anchor="middle" x="369" y="-300.32" font-family="Times,serif" font-size="14.00">~</text>
<text text-anchor="middle" x="369" y="-283.07" font-family="Times,serif" font-size="14.00">Data</text>
</g>
<!-- group_idx&#45;&gt;pi -->
<g id="edge4" class="edge">
<title>group_idx&#45;&gt;pi</title>
<path fill="none" stroke="black" d="M353.76,-274.74C346.9,-261.56 338.7,-245.82 331.33,-231.66"/>
<polygon fill="black" stroke="black" points="334.56,-230.29 326.84,-223.03 328.35,-233.52 334.56,-230.29"/>
</g>
</g>
</svg>
