<?xml version="1.0" encoding="UTF-8" standalone="no"?>
<!DOCTYPE svg PUBLIC "-//W3C//DTD SVG 1.1//EN"
 "http://www.w3.org/Graphics/SVG/1.1/DTD/svg11.dtd">
<!-- Generated by graphviz version 12.0.0 (20240803.0821)
 -->
<!-- Pages: 1 -->
<svg width="139pt" height="229pt"
 viewBox="0.00 0.00 139.38 229.50" xmlns="http://www.w3.org/2000/svg" xmlns:xlink="http://www.w3.org/1999/xlink">
<g id="graph0" class="graph" transform="scale(1 1) rotate(0) translate(4 225.5)">
<polygon fill="white" stroke="none" points="-4,4 -4,-225.5 135.38,-225.5 135.38,4 -4,4"/>
<g id="clust1" class="cluster">
<title>cluster10</title>
<path fill="none" stroke="black" d="M21.38,-8C21.38,-8 111.38,-8 111.38,-8 117.38,-8 123.38,-14 123.38,-20 123.38,-20 123.38,-121.75 123.38,-121.75 123.38,-127.75 117.38,-133.75 111.38,-133.75 111.38,-133.75 21.38,-133.75 21.38,-133.75 15.38,-133.75 9.38,-127.75 9.38,-121.75 9.38,-121.75 9.38,-20 9.38,-20 9.38,-14 15.38,-8 21.38,-8"/>
<text text-anchor="middle" x="106.38" y="-15.95" font-family="Times,serif" font-size="14.00">10</text>
</g>
<!-- sigma -->
<g id="node1" class="node">
<title>sigma</title>
<path fill="lightgrey" stroke="black" d="M46.75,-221.5C46.75,-221.5 12,-221.5 12,-221.5 6,-221.5 0,-215.5 0,-209.5 0,-209.5 0,-173.75 0,-173.75 0,-167.75 6,-161.75 12,-161.75 12,-161.75 46.75,-161.75 46.75,-161.75 52.75,-161.75 58.75,-167.75 58.75,-173.75 58.75,-173.75 58.75,-209.5 58.75,-209.5 58.75,-215.5 52.75,-221.5 46.75,-221.5"/>
<text text-anchor="middle" x="29.38" y="-204.2" font-family="Times,serif" font-size="14.00">sigma</text>
<text text-anchor="middle" x="29.38" y="-186.95" font-family="Times,serif" font-size="14.00">~</text>
<text text-anchor="middle" x="29.38" y="-169.7" font-family="Times,serif" font-size="14.00">Data</text>
</g>
<!-- y -->
<g id="node3" class="node">
<title>y</title>
<ellipse fill="none" stroke="black" cx="66.38" cy="-83.5" rx="48.97" ry="42.25"/>
<text text-anchor="middle" x="66.38" y="-96.07" font-family="Times,serif" font-size="14.00">y</text>
<text text-anchor="middle" x="66.38" y="-78.82" font-family="Times,serif" font-size="14.00">~</text>
<text text-anchor="middle" x="66.38" y="-61.57" font-family="Times,serif" font-size="14.00">Normal</text>
</g>
<!-- sigma&#45;&gt;y -->
<g id="edge1" class="edge">
<title>sigma&#45;&gt;y</title>
<path fill="none" stroke="black" d="M39.58,-161.34C42.41,-153.23 45.57,-144.18 48.69,-135.22"/>
<polygon fill="black" stroke="black" points="51.98,-136.43 51.96,-125.84 45.37,-134.13 51.98,-136.43"/>
</g>
<!-- mu -->
<g id="node2" class="node">
<title>mu</title>
<path fill="lightgrey" stroke="black" d="M118.38,-221.5C118.38,-221.5 88.38,-221.5 88.38,-221.5 82.38,-221.5 76.38,-215.5 76.38,-209.5 76.38,-209.5 76.38,-173.75 76.38,-173.75 76.38,-167.75 82.38,-161.75 88.38,-161.75 88.38,-161.75 118.38,-161.75 118.38,-161.75 124.38,-161.75 130.38,-167.75 130.38,-173.75 130.38,-173.75 130.38,-209.5 130.38,-209.5 130.38,-215.5 124.38,-221.5 118.38,-221.5"/>
<text text-anchor="middle" x="103.38" y="-204.2" font-family="Times,serif" font-size="14.00">mu</text>
<text text-anchor="middle" x="103.38" y="-186.95" font-family="Times,serif" font-size="14.00">~</text>
<text text-anchor="middle" x="103.38" y="-169.7" font-family="Times,serif" font-size="14.00">Data</text>
</g>
<!-- mu&#45;&gt;y -->
<g id="edge2" class="edge">
<title>mu&#45;&gt;y</title>
<path fill="none" stroke="black" d="M93.17,-161.34C90.34,-153.23 87.18,-144.18 84.06,-135.22"/>
<polygon fill="black" stroke="black" points="87.38,-134.13 80.79,-125.84 80.77,-136.43 87.38,-134.13"/>
</g>
</g>
</svg>
