<?xml version="1.0" encoding="UTF-8" standalone="no"?>
<!DOCTYPE svg PUBLIC "-//W3C//DTD SVG 1.1//EN"
 "http://www.w3.org/Graphics/SVG/1.1/DTD/svg11.dtd">
<!-- Generated by graphviz version 12.0.0 (20240803.0821)
 -->
<!-- Pages: 1 -->
<svg width="138pt" height="150pt"
 viewBox="0.00 0.00 138.00 149.75" xmlns="http://www.w3.org/2000/svg" xmlns:xlink="http://www.w3.org/1999/xlink">
<g id="graph0" class="graph" transform="scale(1 1) rotate(0) translate(4 145.75)">
<polygon fill="white" stroke="none" points="-4,4 -4,-145.75 134,-145.75 134,4 -4,4"/>
<g id="clust1" class="cluster">
<title>clustergroup (4)</title>
<path fill="none" stroke="black" d="M20,-8C20,-8 110,-8 110,-8 116,-8 122,-14 122,-20 122,-20 122,-121.75 122,-121.75 122,-127.75 116,-133.75 110,-133.75 110,-133.75 20,-133.75 20,-133.75 14,-133.75 8,-127.75 8,-121.75 8,-121.75 8,-20 8,-20 8,-14 14,-8 20,-8"/>
<text text-anchor="middle" x="81" y="-15.95" font-family="Times,serif" font-size="14.00">group (4)</text>
</g>
<!-- mu -->
<g id="node1" class="node">
<title>mu</title>
<ellipse fill="none" stroke="black" cx="65" cy="-83.5" rx="48.97" ry="42.25"/>
<text text-anchor="middle" x="65" y="-96.07" font-family="Times,serif" font-size="14.00">mu</text>
<text text-anchor="middle" x="65" y="-78.82" font-family="Times,serif" font-size="14.00">~</text>
<text text-anchor="middle" x="65" y="-61.57" font-family="Times,serif" font-size="14.00">Normal</text>
</g>
</g>
</svg>
