<?xml version="1.0" encoding="UTF-8" standalone="no"?>
<!DOCTYPE svg PUBLIC "-//W3C//DTD SVG 1.1//EN"
 "http://www.w3.org/Graphics/SVG/1.1/DTD/svg11.dtd">
<!-- Generated by graphviz version 12.0.0 (20240803.0821)
 -->
<!-- Pages: 1 -->
<svg width="425pt" height="251pt"
 viewBox="0.00 0.00 425.00 250.75" xmlns="http://www.w3.org/2000/svg" xmlns:xlink="http://www.w3.org/1999/xlink">
<g id="graph0" class="graph" transform="scale(1 1) rotate(0) translate(4 246.75)">
<polygon fill="white" stroke="none" points="-4,4 -4,-246.75 421,-246.75 421,4 -4,4"/>
<g id="clust1" class="cluster">
<title>clusterobs_idx (159)</title>
<path fill="none" stroke="black" d="M20,-8C20,-8 210,-8 210,-8 216,-8 222,-14 222,-20 222,-20 222,-210.37 222,-210.37 222,-216.37 216,-222.37 210,-222.37 210,-222.37 20,-222.37 20,-222.37 14,-222.37 8,-216.37 8,-210.37 8,-210.37 8,-20 8,-20 8,-14 14,-8 20,-8"/>
<text text-anchor="middle" x="166.38" y="-15.95" font-family="Times,serif" font-size="14.00">obs_idx (159)</text>
</g>
<g id="clust2" class="cluster">
<title>clustergroup (3)</title>
<path fill="none" stroke="black" d="M242,-109C242,-109 397,-109 397,-109 403,-109 409,-115 409,-121 409,-121 409,-222.75 409,-222.75 409,-228.75 403,-234.75 397,-234.75 397,-234.75 242,-234.75 242,-234.75 236,-234.75 230,-228.75 230,-222.75 230,-222.75 230,-121 230,-121 230,-115 236,-109 242,-109"/>
<text text-anchor="middle" x="368" y="-116.95" font-family="Times,serif" font-size="14.00">group (3)</text>
</g>
<!-- pi -->
<g id="node1" class="node">
<title>pi</title>
<polygon fill="none" stroke="black" points="213.75,-101 100.25,-101 100.25,-41.25 213.75,-41.25 213.75,-101"/>
<text text-anchor="middle" x="157" y="-83.7" font-family="Times,serif" font-size="14.00">pi</text>
<text text-anchor="middle" x="157" y="-66.45" font-family="Times,serif" font-size="14.00">~</text>
<text text-anchor="middle" x="157" y="-49.2" font-family="Times,serif" font-size="14.00">Deterministic</text>
</g>
<!-- group_idx -->
<g id="node2" class="node">
<title>group_idx</title>
<path fill="lightgrey" stroke="black" d="M90.25,-214.37C90.25,-214.37 27.75,-214.37 27.75,-214.37 21.75,-214.37 15.75,-208.37 15.75,-202.37 15.75,-202.37 15.75,-166.62 15.75,-166.62 15.75,-160.62 21.75,-154.62 27.75,-154.62 27.75,-154.62 90.25,-154.62 90.25,-154.62 96.25,-154.62 102.25,-160.62 102.25,-166.62 102.25,-166.62 102.25,-202.37 102.25,-202.37 102.25,-208.37 96.25,-214.37 90.25,-214.37"/>
<text text-anchor="middle" x="59" y="-197.07" font-family="Times,serif" font-size="14.00">group_idx</text>
<text text-anchor="middle" x="59" y="-179.82" font-family="Times,serif" font-size="14.00">~</text>
<text text-anchor="middle" x="59" y="-162.57" font-family="Times,serif" font-size="14.00">Data</text>
</g>
<!-- group_idx&#45;&gt;pi -->
<g id="edge1" class="edge">
<title>group_idx&#45;&gt;pi</title>
<path fill="none" stroke="black" d="M76.48,-154.46C84.59,-141.97 94.87,-127.35 110.83,-109.77"/>
<polygon fill="black" stroke="black" points="113.28,-112.29 117.55,-102.59 108.16,-107.51 113.28,-112.29"/>
</g>
<!-- age_scaled -->
<g id="node3" class="node">
<title>age_scaled</title>
<path fill="lightgrey" stroke="black" d="M201.62,-214.37C201.62,-214.37 132.38,-214.37 132.38,-214.37 126.38,-214.37 120.38,-208.37 120.38,-202.37 120.38,-202.37 120.38,-166.62 120.38,-166.62 120.38,-160.62 126.38,-154.62 132.38,-154.62 132.38,-154.62 201.62,-154.62 201.62,-154.62 207.62,-154.62 213.62,-160.62 213.62,-166.62 213.62,-166.62 213.62,-202.37 213.62,-202.37 213.62,-208.37 207.62,-214.37 201.62,-214.37"/>
<text text-anchor="middle" x="167" y="-197.07" font-family="Times,serif" font-size="14.00">age_scaled</text>
<text text-anchor="middle" x="167" y="-179.82" font-family="Times,serif" font-size="14.00">~</text>
<text text-anchor="middle" x="167" y="-162.57" font-family="Times,serif" font-size="14.00">Data</text>
</g>
<!-- age_scaled&#45;&gt;pi -->
<g id="edge4" class="edge">
<title>age_scaled&#45;&gt;pi</title>
<path fill="none" stroke="black" d="M164.37,-154.24C163.22,-141.45 161.86,-126.24 160.62,-112.4"/>
<polygon fill="black" stroke="black" points="164.13,-112.35 159.75,-102.7 157.15,-112.97 164.13,-112.35"/>
</g>
<!-- alpha -->
<g id="node4" class="node">
<title>alpha</title>
<ellipse fill="none" stroke="black" cx="277" cy="-184.5" rx="38.89" ry="42.25"/>
<text text-anchor="middle" x="277" y="-197.07" font-family="Times,serif" font-size="14.00">alpha</text>
<text text-anchor="middle" x="277" y="-179.82" font-family="Times,serif" font-size="14.00">~</text>
<text text-anchor="middle" x="277" y="-162.57" font-family="Times,serif" font-size="14.00">Flat</text>
</g>
<!-- alpha&#45;&gt;pi -->
<g id="edge2" class="edge">
<title>alpha&#45;&gt;pi</title>
<path fill="none" stroke="black" d="M257.49,-147.78C249.04,-134.49 238.26,-119.98 226,-109 225.09,-108.18 224.16,-107.38 223.21,-106.59"/>
<polygon fill="black" stroke="black" points="225.51,-103.95 215.43,-100.7 221.29,-109.53 225.51,-103.95"/>
</g>
<!-- beta -->
<g id="node5" class="node">
<title>beta</title>
<ellipse fill="none" stroke="black" cx="367" cy="-184.5" rx="33.59" ry="42.25"/>
<text text-anchor="middle" x="367" y="-197.07" font-family="Times,serif" font-size="14.00">beta</text>
<text text-anchor="middle" x="367" y="-179.82" font-family="Times,serif" font-size="14.00">~</text>
<text text-anchor="middle" x="367" y="-162.57" font-family="Times,serif" font-size="14.00">Flat</text>
</g>
<!-- beta&#45;&gt;pi -->
<g id="edge3" class="edge">
<title>beta&#45;&gt;pi</title>
<path fill="none" stroke="black" d="M353.29,-145.61C346.68,-132.2 337.42,-118.18 325,-109 296.44,-87.88 258.14,-78.42 225.32,-74.35"/>
<polygon fill="black" stroke="black" points="225.79,-70.88 215.47,-73.29 225.04,-77.84 225.79,-70.88"/>
</g>
</g>
</svg>
