<?xml version="1.0" encoding="UTF-8" standalone="no"?>
<!DOCTYPE svg PUBLIC "-//W3C//DTD SVG 1.1//EN"
 "http://www.w3.org/Graphics/SVG/1.1/DTD/svg11.dtd">
<!-- Generated by graphviz version 12.0.0 (20240803.0821)
 -->
<!-- Pages: 1 -->
<svg width="548pt" height="492pt"
 viewBox="0.00 0.00 548.00 491.75" xmlns="http://www.w3.org/2000/svg" xmlns:xlink="http://www.w3.org/1999/xlink">
<g id="graph0" class="graph" transform="scale(1 1) rotate(0) translate(4 487.75)">
<polygon fill="white" stroke="none" points="-4,4 -4,-487.75 544,-487.75 544,4 -4,4"/>
<g id="clust1" class="cluster">
<title>clusterobs_idx (200)</title>
<path fill="none" stroke="black" d="M258,-8C258,-8 520,-8 520,-8 526,-8 532,-14 532,-20 532,-20 532,-463.75 532,-463.75 532,-469.75 526,-475.75 520,-475.75 520,-475.75 258,-475.75 258,-475.75 252,-475.75 246,-469.75 246,-463.75 246,-463.75 246,-20 246,-20 246,-14 252,-8 258,-8"/>
<text text-anchor="middle" x="476.38" y="-15.95" font-family="Times,serif" font-size="14.00">obs_idx (200)</text>
</g>
<g id="clust2" class="cluster">
<title>clustergroup (3)</title>
<path fill="none" stroke="black" d="M20,-229.5C20,-229.5 226,-229.5 226,-229.5 232,-229.5 238,-235.5 238,-241.5 238,-241.5 238,-343.25 238,-343.25 238,-349.25 232,-355.25 226,-355.25 226,-355.25 20,-355.25 20,-355.25 14,-355.25 8,-349.25 8,-343.25 8,-343.25 8,-241.5 8,-241.5 8,-235.5 14,-229.5 20,-229.5"/>
<text text-anchor="middle" x="197" y="-237.45" font-family="Times,serif" font-size="14.00">group (3)</text>
</g>
<!-- group_idx -->
<g id="node1" class="node">
<title>group_idx</title>
<ellipse fill="none" stroke="black" cx="323" cy="-305" rx="69.12" ry="42.25"/>
<text text-anchor="middle" x="323" y="-317.57" font-family="Times,serif" font-size="14.00">group_idx</text>
<text text-anchor="middle" x="323" y="-300.32" font-family="Times,serif" font-size="14.00">~</text>
<text text-anchor="middle" x="323" y="-283.07" font-family="Times,serif" font-size="14.00">Categorical</text>
</g>
<!-- pi -->
<g id="node2" class="node">
<title>pi</title>
<polygon fill="none" stroke="black" points="373.75,-221.5 260.25,-221.5 260.25,-161.75 373.75,-161.75 373.75,-221.5"/>
<text text-anchor="middle" x="317" y="-204.2" font-family="Times,serif" font-size="14.00">pi</text>
<text text-anchor="middle" x="317" y="-186.95" font-family="Times,serif" font-size="14.00">~</text>
<text text-anchor="middle" x="317" y="-169.7" font-family="Times,serif" font-size="14.00">Deterministic</text>
</g>
<!-- group_idx&#45;&gt;pi -->
<g id="edge2" class="edge">
<title>group_idx&#45;&gt;pi</title>
<path fill="none" stroke="black" d="M320.77,-262.53C320.25,-252.94 319.7,-242.75 319.19,-233.21"/>
<polygon fill="black" stroke="black" points="322.69,-233.27 318.66,-223.48 315.71,-233.65 322.69,-233.27"/>
</g>
<!-- y -->
<g id="node4" class="node">
<title>y</title>
<ellipse fill="none" stroke="black" cx="317" cy="-83.5" rx="57.45" ry="42.25"/>
<text text-anchor="middle" x="317" y="-96.07" font-family="Times,serif" font-size="14.00">y</text>
<text text-anchor="middle" x="317" y="-78.82" font-family="Times,serif" font-size="14.00">~</text>
<text text-anchor="middle" x="317" y="-61.57" font-family="Times,serif" font-size="14.00">Bernoulli</text>
</g>
<!-- pi&#45;&gt;y -->
<g id="edge6" class="edge">
<title>pi&#45;&gt;y</title>
<path fill="none" stroke="black" d="M317,-161.34C317,-153.84 317,-145.53 317,-137.23"/>
<polygon fill="black" stroke="black" points="320.5,-137.51 317,-127.51 313.5,-137.51 320.5,-137.51"/>
</g>
<!-- age_scaled -->
<g id="node3" class="node">
<title>age_scaled</title>
<polygon fill="none" stroke="black" points="523.75,-334.87 410.25,-334.87 410.25,-275.12 523.75,-275.12 523.75,-334.87"/>
<text text-anchor="middle" x="467" y="-317.57" font-family="Times,serif" font-size="14.00">age_scaled</text>
<text text-anchor="middle" x="467" y="-300.32" font-family="Times,serif" font-size="14.00">~</text>
<text text-anchor="middle" x="467" y="-283.07" font-family="Times,serif" font-size="14.00">Deterministic</text>
</g>
<!-- age_scaled&#45;&gt;pi -->
<g id="edge5" class="edge">
<title>age_scaled&#45;&gt;pi</title>
<path fill="none" stroke="black" d="M445.98,-274.7C434.08,-259.7 418.18,-242.02 401,-229.5 395.72,-225.65 389.98,-222.09 384.06,-218.83"/>
<polygon fill="black" stroke="black" points="385.81,-215.79 375.32,-214.3 382.59,-222.01 385.81,-215.79"/>
</g>
<!-- age -->
<g id="node5" class="node">
<title>age</title>
<ellipse fill="none" stroke="black" cx="467" cy="-425.5" rx="53.21" ry="42.25"/>
<text text-anchor="middle" x="467" y="-438.07" font-family="Times,serif" font-size="14.00">age</text>
<text text-anchor="middle" x="467" y="-420.82" font-family="Times,serif" font-size="14.00">~</text>
<text text-anchor="middle" x="467" y="-403.57" font-family="Times,serif" font-size="14.00">Uniform</text>
</g>
<!-- age&#45;&gt;age_scaled -->
<g id="edge1" class="edge">
<title>age&#45;&gt;age_scaled</title>
<path fill="none" stroke="black" d="M467,-383.05C467,-371.24 467,-358.39 467,-346.62"/>
<polygon fill="black" stroke="black" points="470.5,-346.81 467,-336.81 463.5,-346.81 470.5,-346.81"/>
</g>
<!-- alpha -->
<g id="node6" class="node">
<title>alpha</title>
<ellipse fill="none" stroke="black" cx="65" cy="-305" rx="48.97" ry="42.25"/>
<text text-anchor="middle" x="65" y="-317.57" font-family="Times,serif" font-size="14.00">alpha</text>
<text text-anchor="middle" x="65" y="-300.32" font-family="Times,serif" font-size="14.00">~</text>
<text text-anchor="middle" x="65" y="-283.07" font-family="Times,serif" font-size="14.00">Normal</text>
</g>
<!-- alpha&#45;&gt;pi -->
<g id="edge3" class="edge">
<title>alpha&#45;&gt;pi</title>
<path fill="none" stroke="black" d="M86.13,-266.57C95.68,-252.89 108.17,-238.56 123,-229.5 160.67,-206.48 209.54,-197.28 248.8,-193.84"/>
<polygon fill="black" stroke="black" points="248.92,-197.34 258.62,-193.09 248.38,-190.36 248.92,-197.34"/>
</g>
<!-- beta -->
<g id="node7" class="node">
<title>beta</title>
<ellipse fill="none" stroke="black" cx="181" cy="-305" rx="48.97" ry="42.25"/>
<text text-anchor="middle" x="181" y="-317.57" font-family="Times,serif" font-size="14.00">beta</text>
<text text-anchor="middle" x="181" y="-300.32" font-family="Times,serif" font-size="14.00">~</text>
<text text-anchor="middle" x="181" y="-283.07" font-family="Times,serif" font-size="14.00">Normal</text>
</g>
<!-- beta&#45;&gt;pi -->
<g id="edge4" class="edge">
<title>beta&#45;&gt;pi</title>
<path fill="none" stroke="black" d="M205.28,-268.21C215.52,-254.9 228.25,-240.41 242,-229.5 244.7,-227.36 247.54,-225.3 250.48,-223.32"/>
<polygon fill="black" stroke="black" points="252.21,-226.37 258.83,-218.1 248.5,-220.43 252.21,-226.37"/>
</g>
</g>
</svg>
