<?xml version="1.0" encoding="UTF-8" standalone="no"?>
<!DOCTYPE svg PUBLIC "-//W3C//DTD SVG 1.1//EN"
 "http://www.w3.org/Graphics/SVG/1.1/DTD/svg11.dtd">
<!-- Generated by graphviz version 12.0.0 (20240803.0821)
 -->
<!-- Pages: 1 -->
<svg width="456pt" height="275pt"
 viewBox="0.00 0.00 456.03 275.50" xmlns="http://www.w3.org/2000/svg" xmlns:xlink="http://www.w3.org/1999/xlink">
<g id="graph0" class="graph" transform="scale(1 1) rotate(0) translate(4 271.5)">
<polygon fill="white" stroke="none" points="-4,4 -4,-271.5 452.03,-271.5 452.03,4 -4,4"/>
<g id="clust1" class="cluster">
<title>clusterobs_idx (48)</title>
<path fill="none" stroke="black" d="M20,-8C20,-8 204,-8 204,-8 210,-8 216,-14 216,-20 216,-20 216,-247.5 216,-247.5 216,-253.5 210,-259.5 204,-259.5 204,-259.5 20,-259.5 20,-259.5 14,-259.5 8,-253.5 8,-247.5 8,-247.5 8,-20 8,-20 8,-14 14,-8 20,-8"/>
<text text-anchor="middle" x="164.88" y="-15.95" font-family="Times,serif" font-size="14.00">obs_idx (48)</text>
</g>
<g id="clust2" class="cluster">
<title>clustergroup (4)</title>
<path fill="none" stroke="black" d="M236,-133.75C236,-133.75 326,-133.75 326,-133.75 332,-133.75 338,-139.75 338,-145.75 338,-145.75 338,-247.5 338,-247.5 338,-253.5 332,-259.5 326,-259.5 326,-259.5 236,-259.5 236,-259.5 230,-259.5 224,-253.5 224,-247.5 224,-247.5 224,-145.75 224,-145.75 224,-139.75 230,-133.75 236,-133.75"/>
<text text-anchor="middle" x="297" y="-141.7" font-family="Times,serif" font-size="14.00">group (4)</text>
</g>
<!-- y -->
<g id="node1" class="node">
<title>y</title>
<ellipse fill="none" stroke="black" cx="159" cy="-83.5" rx="48.97" ry="42.25"/>
<text text-anchor="middle" x="159" y="-96.07" font-family="Times,serif" font-size="14.00">y</text>
<text text-anchor="middle" x="159" y="-78.82" font-family="Times,serif" font-size="14.00">~</text>
<text text-anchor="middle" x="159" y="-61.57" font-family="Times,serif" font-size="14.00">Normal</text>
</g>
<!-- group_idx -->
<g id="node2" class="node">
<title>group_idx</title>
<ellipse fill="none" stroke="black" cx="112" cy="-209.25" rx="95.64" ry="42.25"/>
<text text-anchor="middle" x="112" y="-221.82" font-family="Times,serif" font-size="14.00">group_idx</text>
<text text-anchor="middle" x="112" y="-204.57" font-family="Times,serif" font-size="14.00">~</text>
<text text-anchor="middle" x="112" y="-187.32" font-family="Times,serif" font-size="14.00">DiscreteUniform</text>
</g>
<!-- group_idx&#45;&gt;y -->
<g id="edge3" class="edge">
<title>group_idx&#45;&gt;y</title>
<path fill="none" stroke="black" d="M127.52,-167.39C131.49,-156.93 135.81,-145.57 139.93,-134.7"/>
<polygon fill="black" stroke="black" points="143.16,-136.06 143.44,-125.47 136.62,-133.58 143.16,-136.06"/>
</g>
<!-- mu -->
<g id="node3" class="node">
<title>mu</title>
<ellipse fill="none" stroke="black" cx="281" cy="-209.25" rx="48.97" ry="42.25"/>
<text text-anchor="middle" x="281" y="-221.82" font-family="Times,serif" font-size="14.00">mu</text>
<text text-anchor="middle" x="281" y="-204.57" font-family="Times,serif" font-size="14.00">~</text>
<text text-anchor="middle" x="281" y="-187.32" font-family="Times,serif" font-size="14.00">Normal</text>
</g>
<!-- mu&#45;&gt;y -->
<g id="edge2" class="edge">
<title>mu&#45;&gt;y</title>
<path fill="none" stroke="black" d="M254.77,-173.23C244.48,-160.31 232.22,-145.88 220,-133.75 215.06,-128.84 209.65,-123.92 204.17,-119.2"/>
<polygon fill="black" stroke="black" points="206.61,-116.68 196.7,-112.94 202.11,-122.05 206.61,-116.68"/>
</g>
<!-- sigma -->
<g id="node4" class="node">
<title>sigma</title>
<ellipse fill="none" stroke="black" cx="398" cy="-209.25" rx="50.03" ry="42.25"/>
<text text-anchor="middle" x="398" y="-221.82" font-family="Times,serif" font-size="14.00">sigma</text>
<text text-anchor="middle" x="398" y="-204.57" font-family="Times,serif" font-size="14.00">~</text>
<text text-anchor="middle" x="398" y="-187.32" font-family="Times,serif" font-size="14.00">Gamma</text>
</g>
<!-- sigma&#45;&gt;y -->
<g id="edge1" class="edge">
<title>sigma&#45;&gt;y</title>
<path fill="none" stroke="black" d="M376.96,-170.61C367.8,-157.24 355.94,-143.18 342,-133.75 305.29,-108.92 256.54,-96.59 218.59,-90.47"/>
<polygon fill="black" stroke="black" points="219.6,-87.08 209.19,-89.06 218.56,-94.01 219.6,-87.08"/>
</g>
</g>
</svg>
