<?xml version="1.0" encoding="UTF-8" standalone="no"?>
<!DOCTYPE svg PUBLIC "-//W3C//DTD SVG 1.1//EN"
 "http://www.w3.org/Graphics/SVG/1.1/DTD/svg11.dtd">
<!-- Generated by graphviz version 12.0.0 (20240803.0821)
 -->
<!-- Pages: 1 -->
<svg width="154pt" height="259pt"
 viewBox="0.00 0.00 154.38 258.75" xmlns="http://www.w3.org/2000/svg" xmlns:xlink="http://www.w3.org/1999/xlink">
<g id="graph0" class="graph" transform="scale(1 1) rotate(0) translate(4 254.75)">
<polygon fill="white" stroke="none" points="-4,4 -4,-254.75 150.38,-254.75 150.38,4 -4,4"/>
<g id="clust1" class="cluster">
<title>cluster4</title>
<path fill="none" stroke="black" d="M20,-141.75C20,-141.75 66,-141.75 66,-141.75 72,-141.75 78,-147.75 78,-153.75 78,-153.75 78,-230.75 78,-230.75 78,-236.75 72,-242.75 66,-242.75 66,-242.75 20,-242.75 20,-242.75 14,-242.75 8,-236.75 8,-230.75 8,-230.75 8,-153.75 8,-153.75 8,-147.75 14,-141.75 20,-141.75"/>
<text text-anchor="middle" x="65.5" y="-149.7" font-family="Times,serif" font-size="14.00">4</text>
</g>
<g id="clust2" class="cluster">
<title>cluster80</title>
<path fill="none" stroke="black" d="M22,-8C22,-8 112,-8 112,-8 118,-8 124,-14 124,-20 124,-20 124,-121.75 124,-121.75 124,-127.75 118,-133.75 112,-133.75 112,-133.75 22,-133.75 22,-133.75 16,-133.75 10,-127.75 10,-121.75 10,-121.75 10,-20 10,-20 10,-14 16,-8 22,-8"/>
<text text-anchor="middle" x="107" y="-15.95" font-family="Times,serif" font-size="14.00">80</text>
</g>
<!-- mu -->
<g id="node1" class="node">
<title>mu</title>
<path fill="lightgrey" stroke="black" d="M58,-234.75C58,-234.75 28,-234.75 28,-234.75 22,-234.75 16,-228.75 16,-222.75 16,-222.75 16,-187 16,-187 16,-181 22,-175 28,-175 28,-175 58,-175 58,-175 64,-175 70,-181 70,-187 70,-187 70,-222.75 70,-222.75 70,-228.75 64,-234.75 58,-234.75"/>
<text text-anchor="middle" x="43" y="-217.45" font-family="Times,serif" font-size="14.00">mu</text>
<text text-anchor="middle" x="43" y="-200.2" font-family="Times,serif" font-size="14.00">~</text>
<text text-anchor="middle" x="43" y="-182.95" font-family="Times,serif" font-size="14.00">Data</text>
</g>
<!-- y -->
<g id="node3" class="node">
<title>y</title>
<ellipse fill="none" stroke="black" cx="67" cy="-83.5" rx="48.97" ry="42.25"/>
<text text-anchor="middle" x="67" y="-96.07" font-family="Times,serif" font-size="14.00">y</text>
<text text-anchor="middle" x="67" y="-78.82" font-family="Times,serif" font-size="14.00">~</text>
<text text-anchor="middle" x="67" y="-61.57" font-family="Times,serif" font-size="14.00">Normal</text>
</g>
<!-- mu&#45;&gt;y -->
<g id="edge1" class="edge">
<title>mu&#45;&gt;y</title>
<path fill="none" stroke="black" d="M48.87,-174.67C51.17,-163.25 53.87,-149.79 56.49,-136.8"/>
<polygon fill="black" stroke="black" points="59.9,-137.55 58.44,-127.05 53.04,-136.17 59.9,-137.55"/>
</g>
<!-- sigma -->
<g id="node2" class="node">
<title>sigma</title>
<path fill="lightgrey" stroke="black" d="M134.38,-234.75C134.38,-234.75 99.62,-234.75 99.62,-234.75 93.62,-234.75 87.62,-228.75 87.62,-222.75 87.62,-222.75 87.62,-187 87.62,-187 87.62,-181 93.62,-175 99.62,-175 99.62,-175 134.38,-175 134.38,-175 140.38,-175 146.38,-181 146.38,-187 146.38,-187 146.38,-222.75 146.38,-222.75 146.38,-228.75 140.38,-234.75 134.38,-234.75"/>
<text text-anchor="middle" x="117" y="-217.45" font-family="Times,serif" font-size="14.00">sigma</text>
<text text-anchor="middle" x="117" y="-200.2" font-family="Times,serif" font-size="14.00">~</text>
<text text-anchor="middle" x="117" y="-182.95" font-family="Times,serif" font-size="14.00">Data</text>
</g>
<!-- sigma&#45;&gt;y -->
<g id="edge2" class="edge">
<title>sigma&#45;&gt;y</title>
<path fill="none" stroke="black" d="M104.77,-174.67C99.65,-162.46 93.56,-147.92 87.79,-134.12"/>
<polygon fill="black" stroke="black" points="91.12,-133.03 84.03,-125.16 84.67,-135.74 91.12,-133.03"/>
</g>
</g>
</svg>
