<?xml version="1.0" encoding="UTF-8" standalone="no"?>
<!DOCTYPE svg PUBLIC "-//W3C//DTD SVG 1.1//EN"
 "http://www.w3.org/Graphics/SVG/1.1/DTD/svg11.dtd">
<!-- Generated by graphviz version 12.0.0 (20240803.0821)
 -->
<!-- Pages: 1 -->
<svg width="452pt" height="258pt"
 viewBox="0.00 0.00 451.99 257.87" xmlns="http://www.w3.org/2000/svg" xmlns:xlink="http://www.w3.org/1999/xlink">
<g id="graph0" class="graph" transform="scale(1 1) rotate(0) translate(4 253.87)">
<polygon fill="white" stroke="none" points="-4,4 -4,-253.87 447.99,-253.87 447.99,4 -4,4"/>
<g id="clust1" class="cluster">
<title>cluster20</title>
<path fill="none" stroke="black" d="M120.03,-8C120.03,-8 210.03,-8 210.03,-8 216.03,-8 222.03,-14 222.03,-20 222.03,-20 222.03,-229.87 222.03,-229.87 222.03,-235.87 216.03,-241.87 210.03,-241.87 210.03,-241.87 120.03,-241.87 120.03,-241.87 114.03,-241.87 108.03,-235.87 108.03,-229.87 108.03,-229.87 108.03,-20 108.03,-20 108.03,-14 114.03,-8 120.03,-8"/>
<text text-anchor="middle" x="205.03" y="-15.95" font-family="Times,serif" font-size="14.00">20</text>
</g>
<!-- sigma -->
<g id="node1" class="node">
<title>sigma</title>
<ellipse fill="none" stroke="black" cx="50.03" cy="-204" rx="50.03" ry="42.25"/>
<text text-anchor="middle" x="50.03" y="-216.57" font-family="Times,serif" font-size="14.00">sigma</text>
<text text-anchor="middle" x="50.03" y="-199.32" font-family="Times,serif" font-size="14.00">~</text>
<text text-anchor="middle" x="50.03" y="-182.07" font-family="Times,serif" font-size="14.00">Gamma</text>
</g>
<!-- y -->
<g id="node4" class="node">
<title>y</title>
<ellipse fill="lightgrey" stroke="black" cx="165.03" cy="-83.5" rx="48.97" ry="42.25"/>
<text text-anchor="middle" x="165.03" y="-96.07" font-family="Times,serif" font-size="14.00">y</text>
<text text-anchor="middle" x="165.03" y="-78.82" font-family="Times,serif" font-size="14.00">~</text>
<text text-anchor="middle" x="165.03" y="-61.57" font-family="Times,serif" font-size="14.00">Normal</text>
</g>
<!-- sigma&#45;&gt;y -->
<g id="edge1" class="edge">
<title>sigma&#45;&gt;y</title>
<path fill="none" stroke="black" d="M81.45,-170.62C95.26,-156.39 111.6,-139.55 126.16,-124.55"/>
<polygon fill="black" stroke="black" points="128.53,-127.13 132.99,-117.52 123.51,-122.26 128.53,-127.13"/>
</g>
<!-- alpha -->
<g id="node2" class="node">
<title>alpha</title>
<ellipse fill="none" stroke="black" cx="279.03" cy="-204" rx="48.97" ry="42.25"/>
<text text-anchor="middle" x="279.03" y="-216.57" font-family="Times,serif" font-size="14.00">alpha</text>
<text text-anchor="middle" x="279.03" y="-199.32" font-family="Times,serif" font-size="14.00">~</text>
<text text-anchor="middle" x="279.03" y="-182.07" font-family="Times,serif" font-size="14.00">Normal</text>
</g>
<!-- alpha&#45;&gt;y -->
<g id="edge3" class="edge">
<title>alpha&#45;&gt;y</title>
<path fill="none" stroke="black" d="M248.18,-170.93C234.49,-156.7 218.24,-139.81 203.74,-124.74"/>
<polygon fill="black" stroke="black" points="206.41,-122.46 196.95,-117.68 201.36,-127.32 206.41,-122.46"/>
</g>
<!-- beta -->
<g id="node3" class="node">
<title>beta</title>
<ellipse fill="none" stroke="black" cx="395.03" cy="-204" rx="48.97" ry="42.25"/>
<text text-anchor="middle" x="395.03" y="-216.57" font-family="Times,serif" font-size="14.00">beta</text>
<text text-anchor="middle" x="395.03" y="-199.32" font-family="Times,serif" font-size="14.00">~</text>
<text text-anchor="middle" x="395.03" y="-182.07" font-family="Times,serif" font-size="14.00">Normal</text>
</g>
<!-- beta&#45;&gt;y -->
<g id="edge4" class="edge">
<title>beta&#45;&gt;y</title>
<path fill="none" stroke="black" d="M358.61,-175.48C351.61,-170.65 344.21,-165.86 337.03,-161.75 299.32,-140.15 254.46,-120.18 220.01,-105.95"/>
<polygon fill="black" stroke="black" points="221.65,-102.84 211.07,-102.3 219.01,-109.32 221.65,-102.84"/>
</g>
<!-- x -->
<g id="node5" class="node">
<title>x</title>
<path fill="lightgrey" stroke="black" d="M180.03,-233.87C180.03,-233.87 150.03,-233.87 150.03,-233.87 144.03,-233.87 138.03,-227.87 138.03,-221.87 138.03,-221.87 138.03,-186.12 138.03,-186.12 138.03,-180.12 144.03,-174.12 150.03,-174.12 150.03,-174.12 180.03,-174.12 180.03,-174.12 186.03,-174.12 192.03,-180.12 192.03,-186.12 192.03,-186.12 192.03,-221.87 192.03,-221.87 192.03,-227.87 186.03,-233.87 180.03,-233.87"/>
<text text-anchor="middle" x="165.03" y="-216.57" font-family="Times,serif" font-size="14.00">x</text>
<text text-anchor="middle" x="165.03" y="-199.32" font-family="Times,serif" font-size="14.00">~</text>
<text text-anchor="middle" x="165.03" y="-182.07" font-family="Times,serif" font-size="14.00">Data</text>
</g>
<!-- x&#45;&gt;y -->
<g id="edge2" class="edge">
<title>x&#45;&gt;y</title>
<path fill="none" stroke="black" d="M165.03,-173.71C165.03,-162.69 165.03,-149.79 165.03,-137.29"/>
<polygon fill="black" stroke="black" points="168.53,-137.49 165.03,-127.49 161.53,-137.49 168.53,-137.49"/>
</g>
</g>
</svg>
