<?xml version="1.0" encoding="UTF-8" standalone="no"?>
<!DOCTYPE svg PUBLIC "-//W3C//DTD SVG 1.1//EN"
 "http://www.w3.org/Graphics/SVG/1.1/DTD/svg11.dtd">
<!-- Generated by graphviz version 12.0.0 (20240803.0821)
 -->
<!-- Pages: 1 -->
<svg width="425pt" height="251pt"
 viewBox="0.00 0.00 425.00 250.75" xmlns="http://www.w3.org/2000/svg" xmlns:xlink="http://www.w3.org/1999/xlink">
<g id="graph0" class="graph" transform="scale(1 1) rotate(0) translate(4 246.75)">
<polygon fill="white" stroke="none" points="-4,4 -4,-246.75 421,-246.75 421,4 -4,4"/>
<g id="clust1" class="cluster">
<title>clusterobs_idx (159)</title>
<path fill="none" stroke="black" d="M20,-8C20,-8 210,-8 210,-8 216,-8 222,-14 222,-20 222,-20 222,-210.37 222,-210.37 222,-216.37 216,-222.37 210,-222.37 210,-222.37 20,-222.37 20,-222.37 14,-222.37 8,-216.37 8,-210.37 8,-210.37 8,-20 8,-20 8,-14 14,-8 20,-8"/>
<text text-anchor="middle" x="166.38" y="-15.95" font-family="Times,serif" font-size="14.00">obs_idx (159)</text>
</g>
<g id="clust2" class="cluster">
<title>clustergroup (3)</title>
<path fill="none" stroke="black" d="M242,-109C242,-109 397,-109 397,-109 403,-109 409,-115 409,-121 409,-121 409,-222.75 409,-222.75 409,-228.75 403,-234.75 397,-234.75 397,-234.75 242,-234.75 242,-234.75 236,-234.75 230,-228.75 230,-222.75 230,-222.75 230,-121 230,-121 230,-115 236,-109 242,-109"/>
<text text-anchor="middle" x="368" y="-116.95" font-family="Times,serif" font-size="14.00">group (3)</text>
</g>
<!-- age_scaled -->
<g id="node1" class="node">
<title>age_scaled</title>
<path fill="lightgrey" stroke="black" d="M97.62,-214.37C97.62,-214.37 28.38,-214.37 28.38,-214.37 22.38,-214.37 16.38,-208.37 16.38,-202.37 16.38,-202.37 16.38,-166.62 16.38,-166.62 16.38,-160.62 22.38,-154.62 28.38,-154.62 28.38,-154.62 97.62,-154.62 97.62,-154.62 103.62,-154.62 109.62,-160.62 109.62,-166.62 109.62,-166.62 109.62,-202.37 109.62,-202.37 109.62,-208.37 103.62,-214.37 97.62,-214.37"/>
<text text-anchor="middle" x="63" y="-197.07" font-family="Times,serif" font-size="14.00">age_scaled</text>
<text text-anchor="middle" x="63" y="-179.82" font-family="Times,serif" font-size="14.00">~</text>
<text text-anchor="middle" x="63" y="-162.57" font-family="Times,serif" font-size="14.00">Data</text>
</g>
<!-- pi -->
<g id="node3" class="node">
<title>pi</title>
<polygon fill="none" stroke="black" points="213.75,-101 100.25,-101 100.25,-41.25 213.75,-41.25 213.75,-101"/>
<text text-anchor="middle" x="157" y="-83.7" font-family="Times,serif" font-size="14.00">pi</text>
<text text-anchor="middle" x="157" y="-66.45" font-family="Times,serif" font-size="14.00">~</text>
<text text-anchor="middle" x="157" y="-49.2" font-family="Times,serif" font-size="14.00">Deterministic</text>
</g>
<!-- age_scaled&#45;&gt;pi -->
<g id="edge1" class="edge">
<title>age_scaled&#45;&gt;pi</title>
<path fill="none" stroke="black" d="M83.27,-154.38C92.13,-142.14 103,-127.77 118.72,-109.68"/>
<polygon fill="black" stroke="black" points="121.29,-112.05 125.29,-102.24 116.05,-107.42 121.29,-112.05"/>
</g>
<!-- group_idx -->
<g id="node2" class="node">
<title>group_idx</title>
<path fill="lightgrey" stroke="black" d="M202.25,-214.37C202.25,-214.37 139.75,-214.37 139.75,-214.37 133.75,-214.37 127.75,-208.37 127.75,-202.37 127.75,-202.37 127.75,-166.62 127.75,-166.62 127.75,-160.62 133.75,-154.62 139.75,-154.62 139.75,-154.62 202.25,-154.62 202.25,-154.62 208.25,-154.62 214.25,-160.62 214.25,-166.62 214.25,-166.62 214.25,-202.37 214.25,-202.37 214.25,-208.37 208.25,-214.37 202.25,-214.37"/>
<text text-anchor="middle" x="171" y="-197.07" font-family="Times,serif" font-size="14.00">group_idx</text>
<text text-anchor="middle" x="171" y="-179.82" font-family="Times,serif" font-size="14.00">~</text>
<text text-anchor="middle" x="171" y="-162.57" font-family="Times,serif" font-size="14.00">Data</text>
</g>
<!-- group_idx&#45;&gt;pi -->
<g id="edge3" class="edge">
<title>group_idx&#45;&gt;pi</title>
<path fill="none" stroke="black" d="M167.32,-154.24C165.71,-141.45 163.8,-126.24 162.06,-112.4"/>
<polygon fill="black" stroke="black" points="165.56,-112.18 160.84,-102.69 158.62,-113.05 165.56,-112.18"/>
</g>
<!-- alpha -->
<g id="node4" class="node">
<title>alpha</title>
<ellipse fill="none" stroke="black" cx="277" cy="-184.5" rx="38.89" ry="42.25"/>
<text text-anchor="middle" x="277" y="-197.07" font-family="Times,serif" font-size="14.00">alpha</text>
<text text-anchor="middle" x="277" y="-179.82" font-family="Times,serif" font-size="14.00">~</text>
<text text-anchor="middle" x="277" y="-162.57" font-family="Times,serif" font-size="14.00">Flat</text>
</g>
<!-- alpha&#45;&gt;pi -->
<g id="edge2" class="edge">
<title>alpha&#45;&gt;pi</title>
<path fill="none" stroke="black" d="M257.49,-147.78C249.04,-134.49 238.26,-119.98 226,-109 225.09,-108.18 224.16,-107.38 223.21,-106.59"/>
<polygon fill="black" stroke="black" points="225.51,-103.95 215.43,-100.7 221.29,-109.53 225.51,-103.95"/>
</g>
<!-- beta -->
<g id="node5" class="node">
<title>beta</title>
<ellipse fill="none" stroke="black" cx="367" cy="-184.5" rx="33.59" ry="42.25"/>
<text text-anchor="middle" x="367" y="-197.07" font-family="Times,serif" font-size="14.00">beta</text>
<text text-anchor="middle" x="367" y="-179.82" font-family="Times,serif" font-size="14.00">~</text>
<text text-anchor="middle" x="367" y="-162.57" font-family="Times,serif" font-size="14.00">Flat</text>
</g>
<!-- beta&#45;&gt;pi -->
<g id="edge4" class="edge">
<title>beta&#45;&gt;pi</title>
<path fill="none" stroke="black" d="M353.29,-145.61C346.68,-132.2 337.42,-118.18 325,-109 296.44,-87.88 258.14,-78.42 225.32,-74.35"/>
<polygon fill="black" stroke="black" points="225.79,-70.88 215.47,-73.29 225.04,-77.84 225.79,-70.88"/>
</g>
</g>
</svg>
