<?xml version="1.0" encoding="UTF-8" standalone="no"?>
<!DOCTYPE svg PUBLIC "-//W3C//DTD SVG 1.1//EN"
 "http://www.w3.org/Graphics/SVG/1.1/DTD/svg11.dtd">
<!-- Generated by graphviz version 12.0.0 (20240803.0821)
 -->
<!-- Pages: 1 -->
<svg width="240pt" height="283pt"
 viewBox="0.00 0.00 240.03 283.50" xmlns="http://www.w3.org/2000/svg" xmlns:xlink="http://www.w3.org/1999/xlink">
<g id="graph0" class="graph" transform="scale(1 1) rotate(0) translate(4 279.5)">
<polygon fill="white" stroke="none" points="-4,4 -4,-279.5 236.03,-279.5 236.03,4 -4,4"/>
<g id="clust1" class="cluster">
<title>cluster4</title>
<path fill="none" stroke="black" d="M20,-141.75C20,-141.75 110,-141.75 110,-141.75 116,-141.75 122,-147.75 122,-153.75 122,-153.75 122,-255.5 122,-255.5 122,-261.5 116,-267.5 110,-267.5 110,-267.5 20,-267.5 20,-267.5 14,-267.5 8,-261.5 8,-255.5 8,-255.5 8,-153.75 8,-153.75 8,-147.75 14,-141.75 20,-141.75"/>
<text text-anchor="middle" x="109.5" y="-149.7" font-family="Times,serif" font-size="14.00">4</text>
</g>
<g id="clust2" class="cluster">
<title>cluster80</title>
<path fill="none" stroke="black" d="M20,-8C20,-8 110,-8 110,-8 116,-8 122,-14 122,-20 122,-20 122,-121.75 122,-121.75 122,-127.75 116,-133.75 110,-133.75 110,-133.75 20,-133.75 20,-133.75 14,-133.75 8,-127.75 8,-121.75 8,-121.75 8,-20 8,-20 8,-14 14,-8 20,-8"/>
<text text-anchor="middle" x="105" y="-15.95" font-family="Times,serif" font-size="14.00">80</text>
</g>
<!-- mu -->
<g id="node1" class="node">
<title>mu</title>
<ellipse fill="none" stroke="black" cx="65" cy="-217.25" rx="48.97" ry="42.25"/>
<text text-anchor="middle" x="65" y="-229.82" font-family="Times,serif" font-size="14.00">mu</text>
<text text-anchor="middle" x="65" y="-212.57" font-family="Times,serif" font-size="14.00">~</text>
<text text-anchor="middle" x="65" y="-195.32" font-family="Times,serif" font-size="14.00">Normal</text>
</g>
<!-- y -->
<g id="node3" class="node">
<title>y</title>
<ellipse fill="none" stroke="black" cx="65" cy="-83.5" rx="48.97" ry="42.25"/>
<text text-anchor="middle" x="65" y="-96.07" font-family="Times,serif" font-size="14.00">y</text>
<text text-anchor="middle" x="65" y="-78.82" font-family="Times,serif" font-size="14.00">~</text>
<text text-anchor="middle" x="65" y="-61.57" font-family="Times,serif" font-size="14.00">Normal</text>
</g>
<!-- mu&#45;&gt;y -->
<g id="edge1" class="edge">
<title>mu&#45;&gt;y</title>
<path fill="none" stroke="black" d="M65,-174.56C65,-162.67 65,-149.56 65,-137.11"/>
<polygon fill="black" stroke="black" points="68.5,-137.43 65,-127.43 61.5,-137.43 68.5,-137.43"/>
</g>
<!-- sigma -->
<g id="node2" class="node">
<title>sigma</title>
<ellipse fill="none" stroke="black" cx="182" cy="-217.25" rx="50.03" ry="42.25"/>
<text text-anchor="middle" x="182" y="-229.82" font-family="Times,serif" font-size="14.00">sigma</text>
<text text-anchor="middle" x="182" y="-212.57" font-family="Times,serif" font-size="14.00">~</text>
<text text-anchor="middle" x="182" y="-195.32" font-family="Times,serif" font-size="14.00">Gamma</text>
</g>
<!-- sigma&#45;&gt;y -->
<g id="edge2" class="edge">
<title>sigma&#45;&gt;y</title>
<path fill="none" stroke="black" d="M156.99,-180.39C147.71,-167.8 136.8,-153.8 126,-141.75 120.14,-135.21 113.64,-128.57 107.14,-122.23"/>
<polygon fill="black" stroke="black" points="109.69,-119.83 100.04,-115.45 104.85,-124.89 109.69,-119.83"/>
</g>
</g>
</svg>
