<?xml version="1.0" encoding="UTF-8" standalone="no"?>
<!DOCTYPE svg PUBLIC "-//W3C//DTD SVG 1.1//EN"
 "http://www.w3.org/Graphics/SVG/1.1/DTD/svg11.dtd">
<!-- Generated by graphviz version 12.0.0 (20240803.0821)
 -->
<!-- Pages: 1 -->
<svg width="548pt" height="492pt"
 viewBox="0.00 0.00 548.00 491.75" xmlns="http://www.w3.org/2000/svg" xmlns:xlink="http://www.w3.org/1999/xlink">
<g id="graph0" class="graph" transform="scale(1 1) rotate(0) translate(4 487.75)">
<polygon fill="white" stroke="none" points="-4,4 -4,-487.75 544,-487.75 544,4 -4,4"/>
<g id="clust1" class="cluster">
<title>clusterobs_idx (200)</title>
<path fill="none" stroke="black" d="M20,-8C20,-8 282,-8 282,-8 288,-8 294,-14 294,-20 294,-20 294,-463.75 294,-463.75 294,-469.75 288,-475.75 282,-475.75 282,-475.75 20,-475.75 20,-475.75 14,-475.75 8,-469.75 8,-463.75 8,-463.75 8,-20 8,-20 8,-14 14,-8 20,-8"/>
<text text-anchor="middle" x="238.38" y="-15.95" font-family="Times,serif" font-size="14.00">obs_idx (200)</text>
</g>
<g id="clust2" class="cluster">
<title>clustergroup (3)</title>
<path fill="none" stroke="black" d="M314,-229.5C314,-229.5 520,-229.5 520,-229.5 526,-229.5 532,-235.5 532,-241.5 532,-241.5 532,-343.25 532,-343.25 532,-349.25 526,-355.25 520,-355.25 520,-355.25 314,-355.25 314,-355.25 308,-355.25 302,-349.25 302,-343.25 302,-343.25 302,-241.5 302,-241.5 302,-235.5 308,-229.5 314,-229.5"/>
<text text-anchor="middle" x="491" y="-237.45" font-family="Times,serif" font-size="14.00">group (3)</text>
</g>
<!-- y -->
<g id="node1" class="node">
<title>y</title>
<ellipse fill="none" stroke="black" cx="223" cy="-83.5" rx="57.45" ry="42.25"/>
<text text-anchor="middle" x="223" y="-96.07" font-family="Times,serif" font-size="14.00">y</text>
<text text-anchor="middle" x="223" y="-78.82" font-family="Times,serif" font-size="14.00">~</text>
<text text-anchor="middle" x="223" y="-61.57" font-family="Times,serif" font-size="14.00">Bernoulli</text>
</g>
<!-- age -->
<g id="node2" class="node">
<title>age</title>
<ellipse fill="none" stroke="black" cx="73" cy="-425.5" rx="53.21" ry="42.25"/>
<text text-anchor="middle" x="73" y="-438.07" font-family="Times,serif" font-size="14.00">age</text>
<text text-anchor="middle" x="73" y="-420.82" font-family="Times,serif" font-size="14.00">~</text>
<text text-anchor="middle" x="73" y="-403.57" font-family="Times,serif" font-size="14.00">Uniform</text>
</g>
<!-- age_scaled -->
<g id="node4" class="node">
<title>age_scaled</title>
<polygon fill="none" stroke="black" points="129.75,-334.87 16.25,-334.87 16.25,-275.12 129.75,-275.12 129.75,-334.87"/>
<text text-anchor="middle" x="73" y="-317.57" font-family="Times,serif" font-size="14.00">age_scaled</text>
<text text-anchor="middle" x="73" y="-300.32" font-family="Times,serif" font-size="14.00">~</text>
<text text-anchor="middle" x="73" y="-283.07" font-family="Times,serif" font-size="14.00">Deterministic</text>
</g>
<!-- age&#45;&gt;age_scaled -->
<g id="edge1" class="edge">
<title>age&#45;&gt;age_scaled</title>
<path fill="none" stroke="black" d="M73,-383.05C73,-371.24 73,-358.39 73,-346.62"/>
<polygon fill="black" stroke="black" points="76.5,-346.81 73,-336.81 69.5,-346.81 76.5,-346.81"/>
</g>
<!-- group_idx -->
<g id="node3" class="node">
<title>group_idx</title>
<ellipse fill="none" stroke="black" cx="217" cy="-305" rx="69.12" ry="42.25"/>
<text text-anchor="middle" x="217" y="-317.57" font-family="Times,serif" font-size="14.00">group_idx</text>
<text text-anchor="middle" x="217" y="-300.32" font-family="Times,serif" font-size="14.00">~</text>
<text text-anchor="middle" x="217" y="-283.07" font-family="Times,serif" font-size="14.00">Categorical</text>
</g>
<!-- pi -->
<g id="node5" class="node">
<title>pi</title>
<polygon fill="none" stroke="black" points="279.75,-221.5 166.25,-221.5 166.25,-161.75 279.75,-161.75 279.75,-221.5"/>
<text text-anchor="middle" x="223" y="-204.2" font-family="Times,serif" font-size="14.00">pi</text>
<text text-anchor="middle" x="223" y="-186.95" font-family="Times,serif" font-size="14.00">~</text>
<text text-anchor="middle" x="223" y="-169.7" font-family="Times,serif" font-size="14.00">Deterministic</text>
</g>
<!-- group_idx&#45;&gt;pi -->
<g id="edge4" class="edge">
<title>group_idx&#45;&gt;pi</title>
<path fill="none" stroke="black" d="M219.23,-262.53C219.75,-252.94 220.3,-242.75 220.81,-233.21"/>
<polygon fill="black" stroke="black" points="224.29,-233.65 221.34,-223.48 217.31,-233.27 224.29,-233.65"/>
</g>
<!-- age_scaled&#45;&gt;pi -->
<g id="edge2" class="edge">
<title>age_scaled&#45;&gt;pi</title>
<path fill="none" stroke="black" d="M94.02,-274.7C105.92,-259.7 121.82,-242.02 139,-229.5 144.28,-225.65 150.02,-222.09 155.94,-218.83"/>
<polygon fill="black" stroke="black" points="157.41,-222.01 164.68,-214.3 154.19,-215.79 157.41,-222.01"/>
</g>
<!-- pi&#45;&gt;y -->
<g id="edge6" class="edge">
<title>pi&#45;&gt;y</title>
<path fill="none" stroke="black" d="M223,-161.34C223,-153.84 223,-145.53 223,-137.23"/>
<polygon fill="black" stroke="black" points="226.5,-137.51 223,-127.51 219.5,-137.51 226.5,-137.51"/>
</g>
<!-- alpha -->
<g id="node6" class="node">
<title>alpha</title>
<ellipse fill="none" stroke="black" cx="359" cy="-305" rx="48.97" ry="42.25"/>
<text text-anchor="middle" x="359" y="-317.57" font-family="Times,serif" font-size="14.00">alpha</text>
<text text-anchor="middle" x="359" y="-300.32" font-family="Times,serif" font-size="14.00">~</text>
<text text-anchor="middle" x="359" y="-283.07" font-family="Times,serif" font-size="14.00">Normal</text>
</g>
<!-- alpha&#45;&gt;pi -->
<g id="edge3" class="edge">
<title>alpha&#45;&gt;pi</title>
<path fill="none" stroke="black" d="M334.72,-268.21C324.48,-254.9 311.75,-240.41 298,-229.5 295.3,-227.36 292.46,-225.3 289.52,-223.32"/>
<polygon fill="black" stroke="black" points="291.5,-220.43 281.17,-218.1 287.79,-226.37 291.5,-220.43"/>
</g>
<!-- beta -->
<g id="node7" class="node">
<title>beta</title>
<ellipse fill="none" stroke="black" cx="475" cy="-305" rx="48.97" ry="42.25"/>
<text text-anchor="middle" x="475" y="-317.57" font-family="Times,serif" font-size="14.00">beta</text>
<text text-anchor="middle" x="475" y="-300.32" font-family="Times,serif" font-size="14.00">~</text>
<text text-anchor="middle" x="475" y="-283.07" font-family="Times,serif" font-size="14.00">Normal</text>
</g>
<!-- beta&#45;&gt;pi -->
<g id="edge5" class="edge">
<title>beta&#45;&gt;pi</title>
<path fill="none" stroke="black" d="M453.87,-266.57C444.32,-252.89 431.83,-238.56 417,-229.5 379.33,-206.48 330.46,-197.28 291.2,-193.84"/>
<polygon fill="black" stroke="black" points="291.62,-190.36 281.38,-193.09 291.08,-197.34 291.62,-190.36"/>
</g>
</g>
</svg>
