<?xml version="1.0" encoding="UTF-8" standalone="no"?>
<!DOCTYPE svg PUBLIC "-//W3C//DTD SVG 1.1//EN"
 "http://www.w3.org/Graphics/SVG/1.1/DTD/svg11.dtd">
<!-- Generated by graphviz version 12.0.0 (20240803.0821)
 -->
<!-- Pages: 1 -->
<svg width="452pt" height="258pt"
 viewBox="0.00 0.00 451.93 257.87" xmlns="http://www.w3.org/2000/svg" xmlns:xlink="http://www.w3.org/1999/xlink">
<g id="graph0" class="graph" transform="scale(1 1) rotate(0) translate(4 253.87)">
<polygon fill="white" stroke="none" points="-4,4 -4,-253.87 447.93,-253.87 447.93,4 -4,4"/>
<g id="clust1" class="cluster">
<title>cluster20</title>
<path fill="none" stroke="black" d="M117.97,-8C117.97,-8 207.97,-8 207.97,-8 213.97,-8 219.97,-14 219.97,-20 219.97,-20 219.97,-229.87 219.97,-229.87 219.97,-235.87 213.97,-241.87 207.97,-241.87 207.97,-241.87 117.97,-241.87 117.97,-241.87 111.97,-241.87 105.97,-235.87 105.97,-229.87 105.97,-229.87 105.97,-20 105.97,-20 105.97,-14 111.97,-8 117.97,-8"/>
<text text-anchor="middle" x="202.97" y="-15.95" font-family="Times,serif" font-size="14.00">20</text>
</g>
<!-- alpha -->
<g id="node1" class="node">
<title>alpha</title>
<ellipse fill="none" stroke="black" cx="48.97" cy="-204" rx="48.97" ry="42.25"/>
<text text-anchor="middle" x="48.97" y="-216.57" font-family="Times,serif" font-size="14.00">alpha</text>
<text text-anchor="middle" x="48.97" y="-199.32" font-family="Times,serif" font-size="14.00">~</text>
<text text-anchor="middle" x="48.97" y="-182.07" font-family="Times,serif" font-size="14.00">Normal</text>
</g>
<!-- y -->
<g id="node4" class="node">
<title>y</title>
<ellipse fill="lightgrey" stroke="black" cx="162.97" cy="-83.5" rx="48.97" ry="42.25"/>
<text text-anchor="middle" x="162.97" y="-96.07" font-family="Times,serif" font-size="14.00">y</text>
<text text-anchor="middle" x="162.97" y="-78.82" font-family="Times,serif" font-size="14.00">~</text>
<text text-anchor="middle" x="162.97" y="-61.57" font-family="Times,serif" font-size="14.00">Normal</text>
</g>
<!-- alpha&#45;&gt;y -->
<g id="edge1" class="edge">
<title>alpha&#45;&gt;y</title>
<path fill="none" stroke="black" d="M79.82,-170.93C93.5,-156.7 109.76,-139.81 124.25,-124.74"/>
<polygon fill="black" stroke="black" points="126.63,-127.32 131.04,-117.68 121.59,-122.46 126.63,-127.32"/>
</g>
<!-- sigma -->
<g id="node2" class="node">
<title>sigma</title>
<ellipse fill="none" stroke="black" cx="277.97" cy="-204" rx="50.03" ry="42.25"/>
<text text-anchor="middle" x="277.97" y="-216.57" font-family="Times,serif" font-size="14.00">sigma</text>
<text text-anchor="middle" x="277.97" y="-199.32" font-family="Times,serif" font-size="14.00">~</text>
<text text-anchor="middle" x="277.97" y="-182.07" font-family="Times,serif" font-size="14.00">Gamma</text>
</g>
<!-- sigma&#45;&gt;y -->
<g id="edge2" class="edge">
<title>sigma&#45;&gt;y</title>
<path fill="none" stroke="black" d="M246.54,-170.62C232.74,-156.39 216.39,-139.55 201.83,-124.55"/>
<polygon fill="black" stroke="black" points="204.49,-122.26 195.01,-117.52 199.46,-127.13 204.49,-122.26"/>
</g>
<!-- beta -->
<g id="node3" class="node">
<title>beta</title>
<ellipse fill="none" stroke="black" cx="394.97" cy="-204" rx="48.97" ry="42.25"/>
<text text-anchor="middle" x="394.97" y="-216.57" font-family="Times,serif" font-size="14.00">beta</text>
<text text-anchor="middle" x="394.97" y="-199.32" font-family="Times,serif" font-size="14.00">~</text>
<text text-anchor="middle" x="394.97" y="-182.07" font-family="Times,serif" font-size="14.00">Normal</text>
</g>
<!-- beta&#45;&gt;y -->
<g id="edge3" class="edge">
<title>beta&#45;&gt;y</title>
<path fill="none" stroke="black" d="M358.57,-175.45C351.56,-170.63 344.16,-165.85 336.97,-161.75 298.71,-139.95 253.15,-119.92 218.25,-105.72"/>
<polygon fill="black" stroke="black" points="219.77,-102.56 209.18,-102.07 217.15,-109.05 219.77,-102.56"/>
</g>
<!-- x -->
<g id="node5" class="node">
<title>x</title>
<path fill="lightgrey" stroke="black" d="M177.97,-233.87C177.97,-233.87 147.97,-233.87 147.97,-233.87 141.97,-233.87 135.97,-227.87 135.97,-221.87 135.97,-221.87 135.97,-186.12 135.97,-186.12 135.97,-180.12 141.97,-174.12 147.97,-174.12 147.97,-174.12 177.97,-174.12 177.97,-174.12 183.97,-174.12 189.97,-180.12 189.97,-186.12 189.97,-186.12 189.97,-221.87 189.97,-221.87 189.97,-227.87 183.97,-233.87 177.97,-233.87"/>
<text text-anchor="middle" x="162.97" y="-216.57" font-family="Times,serif" font-size="14.00">x</text>
<text text-anchor="middle" x="162.97" y="-199.32" font-family="Times,serif" font-size="14.00">~</text>
<text text-anchor="middle" x="162.97" y="-182.07" font-family="Times,serif" font-size="14.00">Data</text>
</g>
<!-- x&#45;&gt;y -->
<g id="edge4" class="edge">
<title>x&#45;&gt;y</title>
<path fill="none" stroke="black" d="M162.97,-173.71C162.97,-162.69 162.97,-149.79 162.97,-137.29"/>
<polygon fill="black" stroke="black" points="166.47,-137.49 162.97,-127.49 159.47,-137.49 166.47,-137.49"/>
</g>
</g>
</svg>
