<?xml version="1.0" encoding="UTF-8" standalone="no"?>
<!DOCTYPE svg PUBLIC "-//W3C//DTD SVG 1.1//EN"
 "http://www.w3.org/Graphics/SVG/1.1/DTD/svg11.dtd">
<!-- Generated by graphviz version 12.0.0 (20240803.0821)
 -->
<!-- Pages: 1 -->
<svg width="224pt" height="254pt"
 viewBox="0.00 0.00 223.99 254.25" xmlns="http://www.w3.org/2000/svg" xmlns:xlink="http://www.w3.org/1999/xlink">
<g id="graph0" class="graph" transform="scale(1 1) rotate(0) translate(4 250.25)">
<polygon fill="white" stroke="none" points="-4,4 -4,-250.25 219.99,-250.25 219.99,4 -4,4"/>
<g id="clust1" class="cluster">
<title>cluster10</title>
<path fill="none" stroke="black" d="M62.97,-8C62.97,-8 152.97,-8 152.97,-8 158.97,-8 164.97,-14 164.97,-20 164.97,-20 164.97,-121.75 164.97,-121.75 164.97,-127.75 158.97,-133.75 152.97,-133.75 152.97,-133.75 62.97,-133.75 62.97,-133.75 56.97,-133.75 50.97,-127.75 50.97,-121.75 50.97,-121.75 50.97,-20 50.97,-20 50.97,-14 56.97,-8 62.97,-8"/>
<text text-anchor="middle" x="147.97" y="-15.95" font-family="Times,serif" font-size="14.00">10</text>
</g>
<!-- mu -->
<g id="node1" class="node">
<title>mu</title>
<ellipse fill="none" stroke="black" cx="48.97" cy="-204" rx="48.97" ry="42.25"/>
<text text-anchor="middle" x="48.97" y="-216.57" font-family="Times,serif" font-size="14.00">mu</text>
<text text-anchor="middle" x="48.97" y="-199.32" font-family="Times,serif" font-size="14.00">~</text>
<text text-anchor="middle" x="48.97" y="-182.07" font-family="Times,serif" font-size="14.00">Normal</text>
</g>
<!-- y -->
<g id="node3" class="node">
<title>y</title>
<ellipse fill="none" stroke="black" cx="107.97" cy="-83.5" rx="48.97" ry="42.25"/>
<text text-anchor="middle" x="107.97" y="-96.07" font-family="Times,serif" font-size="14.00">y</text>
<text text-anchor="middle" x="107.97" y="-78.82" font-family="Times,serif" font-size="14.00">~</text>
<text text-anchor="middle" x="107.97" y="-61.57" font-family="Times,serif" font-size="14.00">Normal</text>
</g>
<!-- mu&#45;&gt;y -->
<g id="edge1" class="edge">
<title>mu&#45;&gt;y</title>
<path fill="none" stroke="black" d="M67.96,-164.85C73.07,-154.6 78.65,-143.37 83.99,-132.65"/>
<polygon fill="black" stroke="black" points="87.01,-134.44 88.34,-123.93 80.75,-131.32 87.01,-134.44"/>
</g>
<!-- sigma -->
<g id="node2" class="node">
<title>sigma</title>
<ellipse fill="none" stroke="black" cx="165.97" cy="-204" rx="50.03" ry="42.25"/>
<text text-anchor="middle" x="165.97" y="-216.57" font-family="Times,serif" font-size="14.00">sigma</text>
<text text-anchor="middle" x="165.97" y="-199.32" font-family="Times,serif" font-size="14.00">~</text>
<text text-anchor="middle" x="165.97" y="-182.07" font-family="Times,serif" font-size="14.00">Gamma</text>
</g>
<!-- sigma&#45;&gt;y -->
<g id="edge2" class="edge">
<title>sigma&#45;&gt;y</title>
<path fill="none" stroke="black" d="M147.14,-164.53C142.22,-154.49 136.87,-143.54 131.73,-133.06"/>
<polygon fill="black" stroke="black" points="134.91,-131.58 127.37,-124.14 128.62,-134.66 134.91,-131.58"/>
</g>
</g>
</svg>
