<?xml version="1.0" encoding="UTF-8" standalone="no"?>
<!DOCTYPE svg PUBLIC "-//W3C//DTD SVG 1.1//EN"
 "http://www.w3.org/Graphics/SVG/1.1/DTD/svg11.dtd">
<!-- Generated by graphviz version 12.0.0 (20240803.0821)
 -->
<!-- Pages: 1 -->
<svg width="360pt" height="275pt"
 viewBox="0.00 0.00 360.03 275.50" xmlns="http://www.w3.org/2000/svg" xmlns:xlink="http://www.w3.org/1999/xlink">
<g id="graph0" class="graph" transform="scale(1 1) rotate(0) translate(4 271.5)">
<polygon fill="white" stroke="none" points="-4,4 -4,-271.5 356.03,-271.5 356.03,4 -4,4"/>
<g id="clust1" class="cluster">
<title>clustergroup (4)</title>
<path fill="none" stroke="black" d="M20,-133.75C20,-133.75 110,-133.75 110,-133.75 116,-133.75 122,-139.75 122,-145.75 122,-145.75 122,-247.5 122,-247.5 122,-253.5 116,-259.5 110,-259.5 110,-259.5 20,-259.5 20,-259.5 14,-259.5 8,-253.5 8,-247.5 8,-247.5 8,-145.75 8,-145.75 8,-139.75 14,-133.75 20,-133.75"/>
<text text-anchor="middle" x="81" y="-141.7" font-family="Times,serif" font-size="14.00">group (4)</text>
</g>
<g id="clust2" class="cluster">
<title>clusterobs_idx (48)</title>
<path fill="none" stroke="black" d="M142,-8C142,-8 232,-8 232,-8 238,-8 244,-14 244,-20 244,-20 244,-235.12 244,-235.12 244,-241.12 238,-247.12 232,-247.12 232,-247.12 142,-247.12 142,-247.12 136,-247.12 130,-241.12 130,-235.12 130,-235.12 130,-20 130,-20 130,-14 136,-8 142,-8"/>
<text text-anchor="middle" x="192.88" y="-15.95" font-family="Times,serif" font-size="14.00">obs_idx (48)</text>
</g>
<!-- mu -->
<g id="node1" class="node">
<title>mu</title>
<ellipse fill="none" stroke="black" cx="65" cy="-209.25" rx="48.97" ry="42.25"/>
<text text-anchor="middle" x="65" y="-221.82" font-family="Times,serif" font-size="14.00">mu</text>
<text text-anchor="middle" x="65" y="-204.57" font-family="Times,serif" font-size="14.00">~</text>
<text text-anchor="middle" x="65" y="-187.32" font-family="Times,serif" font-size="14.00">Normal</text>
</g>
<!-- y -->
<g id="node4" class="node">
<title>y</title>
<ellipse fill="lightgrey" stroke="black" cx="187" cy="-83.5" rx="48.97" ry="42.25"/>
<text text-anchor="middle" x="187" y="-96.07" font-family="Times,serif" font-size="14.00">y</text>
<text text-anchor="middle" x="187" y="-78.82" font-family="Times,serif" font-size="14.00">~</text>
<text text-anchor="middle" x="187" y="-61.57" font-family="Times,serif" font-size="14.00">Normal</text>
</g>
<!-- mu&#45;&gt;y -->
<g id="edge1" class="edge">
<title>mu&#45;&gt;y</title>
<path fill="none" stroke="black" d="M91.23,-173.23C101.52,-160.31 113.78,-145.88 126,-133.75 130.94,-128.84 136.35,-123.92 141.83,-119.2"/>
<polygon fill="black" stroke="black" points="143.89,-122.05 149.3,-112.94 139.39,-116.68 143.89,-122.05"/>
</g>
<!-- sigma -->
<g id="node2" class="node">
<title>sigma</title>
<ellipse fill="none" stroke="black" cx="302" cy="-209.25" rx="50.03" ry="42.25"/>
<text text-anchor="middle" x="302" y="-221.82" font-family="Times,serif" font-size="14.00">sigma</text>
<text text-anchor="middle" x="302" y="-204.57" font-family="Times,serif" font-size="14.00">~</text>
<text text-anchor="middle" x="302" y="-187.32" font-family="Times,serif" font-size="14.00">Gamma</text>
</g>
<!-- sigma&#45;&gt;y -->
<g id="edge2" class="edge">
<title>sigma&#45;&gt;y</title>
<path fill="none" stroke="black" d="M278.53,-171.88C269.64,-159.24 259,-145.33 248,-133.75 243.2,-128.7 237.89,-123.69 232.45,-118.93"/>
<polygon fill="black" stroke="black" points="234.91,-116.42 225.02,-112.63 230.38,-121.76 234.91,-116.42"/>
</g>
<!-- group_idx -->
<g id="node3" class="node">
<title>group_idx</title>
<path fill="lightgrey" stroke="black" d="M218.25,-239.12C218.25,-239.12 155.75,-239.12 155.75,-239.12 149.75,-239.12 143.75,-233.12 143.75,-227.12 143.75,-227.12 143.75,-191.37 143.75,-191.37 143.75,-185.37 149.75,-179.37 155.75,-179.37 155.75,-179.37 218.25,-179.37 218.25,-179.37 224.25,-179.37 230.25,-185.37 230.25,-191.37 230.25,-191.37 230.25,-227.12 230.25,-227.12 230.25,-233.12 224.25,-239.12 218.25,-239.12"/>
<text text-anchor="middle" x="187" y="-221.82" font-family="Times,serif" font-size="14.00">group_idx</text>
<text text-anchor="middle" x="187" y="-204.57" font-family="Times,serif" font-size="14.00">~</text>
<text text-anchor="middle" x="187" y="-187.32" font-family="Times,serif" font-size="14.00">Data</text>
</g>
<!-- group_idx&#45;&gt;y -->
<g id="edge3" class="edge">
<title>group_idx&#45;&gt;y</title>
<path fill="none" stroke="black" d="M187,-178.92C187,-166.4 187,-151.4 187,-137.07"/>
<polygon fill="black" stroke="black" points="190.5,-137.3 187,-127.3 183.5,-137.3 190.5,-137.3"/>
</g>
</g>
</svg>
