<?xml version="1.0" encoding="UTF-8" standalone="no"?>
<!DOCTYPE svg PUBLIC "-//W3C//DTD SVG 1.1//EN"
 "http://www.w3.org/Graphics/SVG/1.1/DTD/svg11.dtd">
<!-- Generated by graphviz version 12.0.0 (20240803.0821)
 -->
<!-- Pages: 1 -->
<svg width="212pt" height="229pt"
 viewBox="0.00 0.00 212.38 229.50" xmlns="http://www.w3.org/2000/svg" xmlns:xlink="http://www.w3.org/1999/xlink">
<g id="graph0" class="graph" transform="scale(1 1) rotate(0) translate(4 225.5)">
<polygon fill="white" stroke="none" points="-4,4 -4,-225.5 208.38,-225.5 208.38,4 -4,4"/>
<g id="clust1" class="cluster">
<title>cluster20</title>
<path fill="none" stroke="black" d="M59.38,-8C59.38,-8 149.38,-8 149.38,-8 155.38,-8 161.38,-14 161.38,-20 161.38,-20 161.38,-121.75 161.38,-121.75 161.38,-127.75 155.38,-133.75 149.38,-133.75 149.38,-133.75 59.38,-133.75 59.38,-133.75 53.38,-133.75 47.38,-127.75 47.38,-121.75 47.38,-121.75 47.38,-20 47.38,-20 47.38,-14 53.38,-8 59.38,-8"/>
<text text-anchor="middle" x="144.38" y="-15.95" font-family="Times,serif" font-size="14.00">20</text>
</g>
<!-- sigma -->
<g id="node1" class="node">
<title>sigma</title>
<path fill="lightgrey" stroke="black" d="M46.75,-221.5C46.75,-221.5 12,-221.5 12,-221.5 6,-221.5 0,-215.5 0,-209.5 0,-209.5 0,-173.75 0,-173.75 0,-167.75 6,-161.75 12,-161.75 12,-161.75 46.75,-161.75 46.75,-161.75 52.75,-161.75 58.75,-167.75 58.75,-173.75 58.75,-173.75 58.75,-209.5 58.75,-209.5 58.75,-215.5 52.75,-221.5 46.75,-221.5"/>
<text text-anchor="middle" x="29.38" y="-204.2" font-family="Times,serif" font-size="14.00">sigma</text>
<text text-anchor="middle" x="29.38" y="-186.95" font-family="Times,serif" font-size="14.00">~</text>
<text text-anchor="middle" x="29.38" y="-169.7" font-family="Times,serif" font-size="14.00">Data</text>
</g>
<!-- y -->
<g id="node4" class="node">
<title>y</title>
<ellipse fill="none" stroke="black" cx="104.38" cy="-83.5" rx="48.97" ry="42.25"/>
<text text-anchor="middle" x="104.38" y="-96.07" font-family="Times,serif" font-size="14.00">y</text>
<text text-anchor="middle" x="104.38" y="-78.82" font-family="Times,serif" font-size="14.00">~</text>
<text text-anchor="middle" x="104.38" y="-61.57" font-family="Times,serif" font-size="14.00">Normal</text>
</g>
<!-- sigma&#45;&gt;y -->
<g id="edge1" class="edge">
<title>sigma&#45;&gt;y</title>
<path fill="none" stroke="black" d="M50.07,-161.34C57.04,-151.47 65,-140.22 72.62,-129.43"/>
<polygon fill="black" stroke="black" points="75.43,-131.53 78.34,-121.34 69.71,-127.49 75.43,-131.53"/>
</g>
<!-- alpha -->
<g id="node2" class="node">
<title>alpha</title>
<path fill="lightgrey" stroke="black" d="M119.88,-221.5C119.88,-221.5 88.88,-221.5 88.88,-221.5 82.88,-221.5 76.88,-215.5 76.88,-209.5 76.88,-209.5 76.88,-173.75 76.88,-173.75 76.88,-167.75 82.88,-161.75 88.88,-161.75 88.88,-161.75 119.88,-161.75 119.88,-161.75 125.88,-161.75 131.88,-167.75 131.88,-173.75 131.88,-173.75 131.88,-209.5 131.88,-209.5 131.88,-215.5 125.88,-221.5 119.88,-221.5"/>
<text text-anchor="middle" x="104.38" y="-204.2" font-family="Times,serif" font-size="14.00">alpha</text>
<text text-anchor="middle" x="104.38" y="-186.95" font-family="Times,serif" font-size="14.00">~</text>
<text text-anchor="middle" x="104.38" y="-169.7" font-family="Times,serif" font-size="14.00">Data</text>
</g>
<!-- alpha&#45;&gt;y -->
<g id="edge2" class="edge">
<title>alpha&#45;&gt;y</title>
<path fill="none" stroke="black" d="M104.38,-161.34C104.38,-153.84 104.38,-145.53 104.38,-137.23"/>
<polygon fill="black" stroke="black" points="107.88,-137.51 104.38,-127.51 100.88,-137.51 107.88,-137.51"/>
</g>
<!-- beta -->
<g id="node3" class="node">
<title>beta</title>
<path fill="lightgrey" stroke="black" d="M192.38,-221.5C192.38,-221.5 162.38,-221.5 162.38,-221.5 156.38,-221.5 150.38,-215.5 150.38,-209.5 150.38,-209.5 150.38,-173.75 150.38,-173.75 150.38,-167.75 156.38,-161.75 162.38,-161.75 162.38,-161.75 192.38,-161.75 192.38,-161.75 198.38,-161.75 204.38,-167.75 204.38,-173.75 204.38,-173.75 204.38,-209.5 204.38,-209.5 204.38,-215.5 198.38,-221.5 192.38,-221.5"/>
<text text-anchor="middle" x="177.38" y="-204.2" font-family="Times,serif" font-size="14.00">beta</text>
<text text-anchor="middle" x="177.38" y="-186.95" font-family="Times,serif" font-size="14.00">~</text>
<text text-anchor="middle" x="177.38" y="-169.7" font-family="Times,serif" font-size="14.00">Data</text>
</g>
<!-- beta&#45;&gt;y -->
<g id="edge3" class="edge">
<title>beta&#45;&gt;y</title>
<path fill="none" stroke="black" d="M157.23,-161.34C150.51,-151.57 142.85,-140.44 135.49,-129.74"/>
<polygon fill="black" stroke="black" points="138.54,-127.99 129.99,-121.74 132.77,-131.96 138.54,-127.99"/>
</g>
</g>
</svg>
