<?xml version="1.0" encoding="UTF-8" standalone="no"?>
<!DOCTYPE svg PUBLIC "-//W3C//DTD SVG 1.1//EN"
 "http://www.w3.org/Graphics/SVG/1.1/DTD/svg11.dtd">
<!-- Generated by graphviz version 12.0.0 (20240803.0821)
 -->
<!-- Pages: 1 -->
<svg width="324pt" height="245pt"
 viewBox="0.00 0.00 324.38 245.50" xmlns="http://www.w3.org/2000/svg" xmlns:xlink="http://www.w3.org/1999/xlink">
<g id="graph0" class="graph" transform="scale(1 1) rotate(0) translate(4 241.5)">
<polygon fill="white" stroke="none" points="-4,4 -4,-241.5 320.38,-241.5 320.38,4 -4,4"/>
<g id="clust1" class="cluster">
<title>cluster20</title>
<path fill="none" stroke="black" d="M78.38,-8C78.38,-8 168.38,-8 168.38,-8 174.38,-8 180.38,-14 180.38,-20 180.38,-20 180.38,-217.5 180.38,-217.5 180.38,-223.5 174.38,-229.5 168.38,-229.5 168.38,-229.5 78.38,-229.5 78.38,-229.5 72.38,-229.5 66.38,-223.5 66.38,-217.5 66.38,-217.5 66.38,-20 66.38,-20 66.38,-14 72.38,-8 78.38,-8"/>
<text text-anchor="middle" x="163.38" y="-15.95" font-family="Times,serif" font-size="14.00">20</text>
</g>
<!-- sigma -->
<g id="node1" class="node">
<title>sigma</title>
<path fill="lightgrey" stroke="black" d="M46.75,-221.5C46.75,-221.5 12,-221.5 12,-221.5 6,-221.5 0,-215.5 0,-209.5 0,-209.5 0,-173.75 0,-173.75 0,-167.75 6,-161.75 12,-161.75 12,-161.75 46.75,-161.75 46.75,-161.75 52.75,-161.75 58.75,-167.75 58.75,-173.75 58.75,-173.75 58.75,-209.5 58.75,-209.5 58.75,-215.5 52.75,-221.5 46.75,-221.5"/>
<text text-anchor="middle" x="29.38" y="-204.2" font-family="Times,serif" font-size="14.00">sigma</text>
<text text-anchor="middle" x="29.38" y="-186.95" font-family="Times,serif" font-size="14.00">~</text>
<text text-anchor="middle" x="29.38" y="-169.7" font-family="Times,serif" font-size="14.00">Data</text>
</g>
<!-- y -->
<g id="node5" class="node">
<title>y</title>
<ellipse fill="none" stroke="black" cx="123.38" cy="-83.5" rx="48.97" ry="42.25"/>
<text text-anchor="middle" x="123.38" y="-96.07" font-family="Times,serif" font-size="14.00">y</text>
<text text-anchor="middle" x="123.38" y="-78.82" font-family="Times,serif" font-size="14.00">~</text>
<text text-anchor="middle" x="123.38" y="-61.57" font-family="Times,serif" font-size="14.00">Normal</text>
</g>
<!-- sigma&#45;&gt;y -->
<g id="edge1" class="edge">
<title>sigma&#45;&gt;y</title>
<path fill="none" stroke="black" d="M55.31,-161.34C64.93,-150.48 76.04,-137.95 86.45,-126.19"/>
<polygon fill="black" stroke="black" points="88.86,-128.74 92.87,-118.94 83.62,-124.1 88.86,-128.74"/>
</g>
<!-- alpha -->
<g id="node2" class="node">
<title>alpha</title>
<path fill="lightgrey" stroke="black" d="M231.88,-221.5C231.88,-221.5 200.88,-221.5 200.88,-221.5 194.88,-221.5 188.88,-215.5 188.88,-209.5 188.88,-209.5 188.88,-173.75 188.88,-173.75 188.88,-167.75 194.88,-161.75 200.88,-161.75 200.88,-161.75 231.88,-161.75 231.88,-161.75 237.88,-161.75 243.88,-167.75 243.88,-173.75 243.88,-173.75 243.88,-209.5 243.88,-209.5 243.88,-215.5 237.88,-221.5 231.88,-221.5"/>
<text text-anchor="middle" x="216.38" y="-204.2" font-family="Times,serif" font-size="14.00">alpha</text>
<text text-anchor="middle" x="216.38" y="-186.95" font-family="Times,serif" font-size="14.00">~</text>
<text text-anchor="middle" x="216.38" y="-169.7" font-family="Times,serif" font-size="14.00">Data</text>
</g>
<!-- alpha&#45;&gt;y -->
<g id="edge3" class="edge">
<title>alpha&#45;&gt;y</title>
<path fill="none" stroke="black" d="M190.72,-161.34C181.2,-150.48 170.21,-137.95 159.91,-126.19"/>
<polygon fill="black" stroke="black" points="162.78,-124.16 153.56,-118.94 157.52,-128.77 162.78,-124.16"/>
</g>
<!-- beta -->
<g id="node3" class="node">
<title>beta</title>
<path fill="lightgrey" stroke="black" d="M304.38,-221.5C304.38,-221.5 274.38,-221.5 274.38,-221.5 268.38,-221.5 262.38,-215.5 262.38,-209.5 262.38,-209.5 262.38,-173.75 262.38,-173.75 262.38,-167.75 268.38,-161.75 274.38,-161.75 274.38,-161.75 304.38,-161.75 304.38,-161.75 310.38,-161.75 316.38,-167.75 316.38,-173.75 316.38,-173.75 316.38,-209.5 316.38,-209.5 316.38,-215.5 310.38,-221.5 304.38,-221.5"/>
<text text-anchor="middle" x="289.38" y="-204.2" font-family="Times,serif" font-size="14.00">beta</text>
<text text-anchor="middle" x="289.38" y="-186.95" font-family="Times,serif" font-size="14.00">~</text>
<text text-anchor="middle" x="289.38" y="-169.7" font-family="Times,serif" font-size="14.00">Data</text>
</g>
<!-- beta&#45;&gt;y -->
<g id="edge4" class="edge">
<title>beta&#45;&gt;y</title>
<path fill="none" stroke="black" d="M262.16,-168.15C259.24,-165.93 256.27,-163.76 253.38,-161.75 228.06,-144.2 198.64,-126.51 174.2,-112.5"/>
<polygon fill="black" stroke="black" points="176.14,-109.57 165.72,-107.67 172.68,-115.66 176.14,-109.57"/>
</g>
<!-- x -->
<g id="node4" class="node">
<title>x</title>
<path fill="lightgrey" stroke="black" d="M138.38,-221.5C138.38,-221.5 108.38,-221.5 108.38,-221.5 102.38,-221.5 96.38,-215.5 96.38,-209.5 96.38,-209.5 96.38,-173.75 96.38,-173.75 96.38,-167.75 102.38,-161.75 108.38,-161.75 108.38,-161.75 138.38,-161.75 138.38,-161.75 144.38,-161.75 150.38,-167.75 150.38,-173.75 150.38,-173.75 150.38,-209.5 150.38,-209.5 150.38,-215.5 144.38,-221.5 138.38,-221.5"/>
<text text-anchor="middle" x="123.38" y="-204.2" font-family="Times,serif" font-size="14.00">x</text>
<text text-anchor="middle" x="123.38" y="-186.95" font-family="Times,serif" font-size="14.00">~</text>
<text text-anchor="middle" x="123.38" y="-169.7" font-family="Times,serif" font-size="14.00">Data</text>
</g>
<!-- x&#45;&gt;y -->
<g id="edge2" class="edge">
<title>x&#45;&gt;y</title>
<path fill="none" stroke="black" d="M123.38,-161.34C123.38,-153.84 123.38,-145.53 123.38,-137.23"/>
<polygon fill="black" stroke="black" points="126.88,-137.51 123.38,-127.51 119.88,-137.51 126.88,-137.51"/>
</g>
</g>
</svg>
