<?xml version="1.0" encoding="UTF-8" standalone="no"?>
<!DOCTYPE svg PUBLIC "-//W3C//DTD SVG 1.1//EN"
 "http://www.w3.org/Graphics/SVG/1.1/DTD/svg11.dtd">
<!-- Generated by graphviz version 12.0.0 (20240803.0821)
 -->
<!-- Pages: 1 -->
<svg width="456pt" height="270pt"
 viewBox="0.00 0.00 455.99 270.25" xmlns="http://www.w3.org/2000/svg" xmlns:xlink="http://www.w3.org/1999/xlink">
<g id="graph0" class="graph" transform="scale(1 1) rotate(0) translate(4 266.25)">
<polygon fill="white" stroke="none" points="-4,4 -4,-266.25 451.99,-266.25 451.99,4 -4,4"/>
<g id="clust1" class="cluster">
<title>cluster20</title>
<path fill="none" stroke="black" d="M122.03,-8C122.03,-8 212.03,-8 212.03,-8 218.03,-8 224.03,-14 224.03,-20 224.03,-20 224.03,-242.25 224.03,-242.25 224.03,-248.25 218.03,-254.25 212.03,-254.25 212.03,-254.25 122.03,-254.25 122.03,-254.25 116.03,-254.25 110.03,-248.25 110.03,-242.25 110.03,-242.25 110.03,-20 110.03,-20 110.03,-14 116.03,-8 122.03,-8"/>
<text text-anchor="middle" x="207.03" y="-15.95" font-family="Times,serif" font-size="14.00">20</text>
</g>
<!-- sigma -->
<g id="node1" class="node">
<title>sigma</title>
<ellipse fill="none" stroke="black" cx="50.03" cy="-204" rx="50.03" ry="42.25"/>
<text text-anchor="middle" x="50.03" y="-216.57" font-family="Times,serif" font-size="14.00">sigma</text>
<text text-anchor="middle" x="50.03" y="-199.32" font-family="Times,serif" font-size="14.00">~</text>
<text text-anchor="middle" x="50.03" y="-182.07" font-family="Times,serif" font-size="14.00">Gamma</text>
</g>
<!-- y -->
<g id="node5" class="node">
<title>y</title>
<ellipse fill="none" stroke="black" cx="167.03" cy="-83.5" rx="48.97" ry="42.25"/>
<text text-anchor="middle" x="167.03" y="-96.07" font-family="Times,serif" font-size="14.00">y</text>
<text text-anchor="middle" x="167.03" y="-78.82" font-family="Times,serif" font-size="14.00">~</text>
<text text-anchor="middle" x="167.03" y="-61.57" font-family="Times,serif" font-size="14.00">Normal</text>
</g>
<!-- sigma&#45;&gt;y -->
<g id="edge1" class="edge">
<title>sigma&#45;&gt;y</title>
<path fill="none" stroke="black" d="M81.69,-170.93C95.98,-156.46 113,-139.22 128.07,-123.96"/>
<polygon fill="black" stroke="black" points="130.15,-126.83 134.68,-117.26 125.17,-121.92 130.15,-126.83"/>
</g>
<!-- alpha -->
<g id="node2" class="node">
<title>alpha</title>
<ellipse fill="none" stroke="black" cx="283.03" cy="-204" rx="48.97" ry="42.25"/>
<text text-anchor="middle" x="283.03" y="-216.57" font-family="Times,serif" font-size="14.00">alpha</text>
<text text-anchor="middle" x="283.03" y="-199.32" font-family="Times,serif" font-size="14.00">~</text>
<text text-anchor="middle" x="283.03" y="-182.07" font-family="Times,serif" font-size="14.00">Normal</text>
</g>
<!-- alpha&#45;&gt;y -->
<g id="edge3" class="edge">
<title>alpha&#45;&gt;y</title>
<path fill="none" stroke="black" d="M251.94,-171.24C237.77,-156.76 220.84,-139.47 205.84,-124.15"/>
<polygon fill="black" stroke="black" points="208.75,-122.12 199.26,-117.42 203.75,-127.02 208.75,-122.12"/>
</g>
<!-- beta -->
<g id="node3" class="node">
<title>beta</title>
<ellipse fill="none" stroke="black" cx="399.03" cy="-204" rx="48.97" ry="42.25"/>
<text text-anchor="middle" x="399.03" y="-216.57" font-family="Times,serif" font-size="14.00">beta</text>
<text text-anchor="middle" x="399.03" y="-199.32" font-family="Times,serif" font-size="14.00">~</text>
<text text-anchor="middle" x="399.03" y="-182.07" font-family="Times,serif" font-size="14.00">Normal</text>
</g>
<!-- beta&#45;&gt;y -->
<g id="edge4" class="edge">
<title>beta&#45;&gt;y</title>
<path fill="none" stroke="black" d="M362.63,-175.45C355.62,-170.63 348.22,-165.85 341.03,-161.75 302.77,-139.95 257.21,-119.92 222.31,-105.72"/>
<polygon fill="black" stroke="black" points="223.83,-102.56 213.25,-102.07 221.21,-109.05 223.83,-102.56"/>
</g>
<!-- x -->
<g id="node4" class="node">
<title>x</title>
<ellipse fill="none" stroke="black" cx="167.03" cy="-204" rx="48.97" ry="42.25"/>
<text text-anchor="middle" x="167.03" y="-216.57" font-family="Times,serif" font-size="14.00">x</text>
<text text-anchor="middle" x="167.03" y="-199.32" font-family="Times,serif" font-size="14.00">~</text>
<text text-anchor="middle" x="167.03" y="-182.07" font-family="Times,serif" font-size="14.00">Normal</text>
</g>
<!-- x&#45;&gt;y -->
<g id="edge2" class="edge">
<title>x&#45;&gt;y</title>
<path fill="none" stroke="black" d="M167.03,-161.55C167.03,-153.75 167.03,-145.49 167.03,-137.4"/>
<polygon fill="black" stroke="black" points="170.53,-137.64 167.03,-127.64 163.53,-137.64 170.53,-137.64"/>
</g>
</g>
</svg>
