<?xml version="1.0" encoding="UTF-8" standalone="no"?>
<!DOCTYPE svg PUBLIC "-//W3C//DTD SVG 1.1//EN"
 "http://www.w3.org/Graphics/SVG/1.1/DTD/svg11.dtd">
<!-- Generated by graphviz version 12.0.0 (20240803.0821)
 -->
<!-- Pages: 1 -->
<svg width="456pt" height="270pt"
 viewBox="0.00 0.00 455.93 270.25" xmlns="http://www.w3.org/2000/svg" xmlns:xlink="http://www.w3.org/1999/xlink">
<g id="graph0" class="graph" transform="scale(1 1) rotate(0) translate(4 266.25)">
<polygon fill="white" stroke="none" points="-4,4 -4,-266.25 451.93,-266.25 451.93,4 -4,4"/>
<g id="clust1" class="cluster">
<title>cluster20</title>
<path fill="none" stroke="black" d="M119.97,-8C119.97,-8 209.97,-8 209.97,-8 215.97,-8 221.97,-14 221.97,-20 221.97,-20 221.97,-242.25 221.97,-242.25 221.97,-248.25 215.97,-254.25 209.97,-254.25 209.97,-254.25 119.97,-254.25 119.97,-254.25 113.97,-254.25 107.97,-248.25 107.97,-242.25 107.97,-242.25 107.97,-20 107.97,-20 107.97,-14 113.97,-8 119.97,-8"/>
<text text-anchor="middle" x="204.97" y="-15.95" font-family="Times,serif" font-size="14.00">20</text>
</g>
<!-- alpha -->
<g id="node1" class="node">
<title>alpha</title>
<ellipse fill="none" stroke="black" cx="48.97" cy="-204" rx="48.97" ry="42.25"/>
<text text-anchor="middle" x="48.97" y="-216.57" font-family="Times,serif" font-size="14.00">alpha</text>
<text text-anchor="middle" x="48.97" y="-199.32" font-family="Times,serif" font-size="14.00">~</text>
<text text-anchor="middle" x="48.97" y="-182.07" font-family="Times,serif" font-size="14.00">Normal</text>
</g>
<!-- y -->
<g id="node4" class="node">
<title>y</title>
<ellipse fill="none" stroke="black" cx="164.97" cy="-83.5" rx="48.97" ry="42.25"/>
<text text-anchor="middle" x="164.97" y="-96.07" font-family="Times,serif" font-size="14.00">y</text>
<text text-anchor="middle" x="164.97" y="-78.82" font-family="Times,serif" font-size="14.00">~</text>
<text text-anchor="middle" x="164.97" y="-61.57" font-family="Times,serif" font-size="14.00">Normal</text>
</g>
<!-- alpha&#45;&gt;y -->
<g id="edge1" class="edge">
<title>alpha&#45;&gt;y</title>
<path fill="none" stroke="black" d="M80.05,-171.24C94.23,-156.76 111.15,-139.47 126.15,-124.15"/>
<polygon fill="black" stroke="black" points="128.24,-127.02 132.74,-117.42 123.24,-122.12 128.24,-127.02"/>
</g>
<!-- sigma -->
<g id="node2" class="node">
<title>sigma</title>
<ellipse fill="none" stroke="black" cx="281.97" cy="-204" rx="50.03" ry="42.25"/>
<text text-anchor="middle" x="281.97" y="-216.57" font-family="Times,serif" font-size="14.00">sigma</text>
<text text-anchor="middle" x="281.97" y="-199.32" font-family="Times,serif" font-size="14.00">~</text>
<text text-anchor="middle" x="281.97" y="-182.07" font-family="Times,serif" font-size="14.00">Gamma</text>
</g>
<!-- sigma&#45;&gt;y -->
<g id="edge2" class="edge">
<title>sigma&#45;&gt;y</title>
<path fill="none" stroke="black" d="M250.31,-170.93C236.01,-156.46 218.99,-139.22 203.93,-123.96"/>
<polygon fill="black" stroke="black" points="206.83,-121.92 197.31,-117.26 201.85,-126.83 206.83,-121.92"/>
</g>
<!-- beta -->
<g id="node3" class="node">
<title>beta</title>
<ellipse fill="none" stroke="black" cx="398.97" cy="-204" rx="48.97" ry="42.25"/>
<text text-anchor="middle" x="398.97" y="-216.57" font-family="Times,serif" font-size="14.00">beta</text>
<text text-anchor="middle" x="398.97" y="-199.32" font-family="Times,serif" font-size="14.00">~</text>
<text text-anchor="middle" x="398.97" y="-182.07" font-family="Times,serif" font-size="14.00">Normal</text>
</g>
<!-- beta&#45;&gt;y -->
<g id="edge3" class="edge">
<title>beta&#45;&gt;y</title>
<path fill="none" stroke="black" d="M362.58,-175.42C355.57,-170.61 348.17,-165.83 340.97,-161.75 302.17,-139.74 255.9,-119.66 220.54,-105.49"/>
<polygon fill="black" stroke="black" points="221.93,-102.27 211.35,-101.84 219.35,-108.78 221.93,-102.27"/>
</g>
<!-- x -->
<g id="node5" class="node">
<title>x</title>
<ellipse fill="none" stroke="black" cx="164.97" cy="-204" rx="48.97" ry="42.25"/>
<text text-anchor="middle" x="164.97" y="-216.57" font-family="Times,serif" font-size="14.00">x</text>
<text text-anchor="middle" x="164.97" y="-199.32" font-family="Times,serif" font-size="14.00">~</text>
<text text-anchor="middle" x="164.97" y="-182.07" font-family="Times,serif" font-size="14.00">Normal</text>
</g>
<!-- x&#45;&gt;y -->
<g id="edge4" class="edge">
<title>x&#45;&gt;y</title>
<path fill="none" stroke="black" d="M164.97,-161.55C164.97,-153.75 164.97,-145.49 164.97,-137.4"/>
<polygon fill="black" stroke="black" points="168.47,-137.64 164.97,-127.64 161.47,-137.64 168.47,-137.64"/>
</g>
</g>
</svg>
