<?xml version="1.0" encoding="UTF-8" standalone="no"?>
<!DOCTYPE svg PUBLIC "-//W3C//DTD SVG 1.1//EN"
 "http://www.w3.org/Graphics/SVG/1.1/DTD/svg11.dtd">
<!-- Generated by graphviz version 12.0.0 (20240803.0821)
 -->
<!-- Pages: 1 -->
<svg width="224pt" height="254pt"
 viewBox="0.00 0.00 223.99 254.25" xmlns="http://www.w3.org/2000/svg" xmlns:xlink="http://www.w3.org/1999/xlink">
<g id="graph0" class="graph" transform="scale(1 1) rotate(0) translate(4 250.25)">
<polygon fill="white" stroke="none" points="-4,4 -4,-250.25 219.99,-250.25 219.99,4 -4,4"/>
<g id="clust1" class="cluster">
<title>cluster10</title>
<path fill="none" stroke="black" d="M64.03,-8C64.03,-8 154.03,-8 154.03,-8 160.03,-8 166.03,-14 166.03,-20 166.03,-20 166.03,-121.75 166.03,-121.75 166.03,-127.75 160.03,-133.75 154.03,-133.75 154.03,-133.75 64.03,-133.75 64.03,-133.75 58.03,-133.75 52.03,-127.75 52.03,-121.75 52.03,-121.75 52.03,-20 52.03,-20 52.03,-14 58.03,-8 64.03,-8"/>
<text text-anchor="middle" x="149.03" y="-15.95" font-family="Times,serif" font-size="14.00">10</text>
</g>
<!-- sigma -->
<g id="node1" class="node">
<title>sigma</title>
<ellipse fill="none" stroke="black" cx="50.03" cy="-204" rx="50.03" ry="42.25"/>
<text text-anchor="middle" x="50.03" y="-216.57" font-family="Times,serif" font-size="14.00">sigma</text>
<text text-anchor="middle" x="50.03" y="-199.32" font-family="Times,serif" font-size="14.00">~</text>
<text text-anchor="middle" x="50.03" y="-182.07" font-family="Times,serif" font-size="14.00">Gamma</text>
</g>
<!-- y -->
<g id="node3" class="node">
<title>y</title>
<ellipse fill="none" stroke="black" cx="109.03" cy="-83.5" rx="48.97" ry="42.25"/>
<text text-anchor="middle" x="109.03" y="-96.07" font-family="Times,serif" font-size="14.00">y</text>
<text text-anchor="middle" x="109.03" y="-78.82" font-family="Times,serif" font-size="14.00">~</text>
<text text-anchor="middle" x="109.03" y="-61.57" font-family="Times,serif" font-size="14.00">Normal</text>
</g>
<!-- sigma&#45;&gt;y -->
<g id="edge1" class="edge">
<title>sigma&#45;&gt;y</title>
<path fill="none" stroke="black" d="M69.18,-164.53C74.18,-154.49 79.63,-143.54 84.85,-133.06"/>
<polygon fill="black" stroke="black" points="87.97,-134.65 89.29,-124.13 81.7,-131.53 87.97,-134.65"/>
</g>
<!-- mu -->
<g id="node2" class="node">
<title>mu</title>
<ellipse fill="none" stroke="black" cx="167.03" cy="-204" rx="48.97" ry="42.25"/>
<text text-anchor="middle" x="167.03" y="-216.57" font-family="Times,serif" font-size="14.00">mu</text>
<text text-anchor="middle" x="167.03" y="-199.32" font-family="Times,serif" font-size="14.00">~</text>
<text text-anchor="middle" x="167.03" y="-182.07" font-family="Times,serif" font-size="14.00">Normal</text>
</g>
<!-- mu&#45;&gt;y -->
<g id="edge2" class="edge">
<title>mu&#45;&gt;y</title>
<path fill="none" stroke="black" d="M148.2,-164.53C143.28,-154.49 137.93,-143.54 132.8,-133.06"/>
<polygon fill="black" stroke="black" points="135.97,-131.58 128.43,-124.14 129.68,-134.66 135.97,-131.58"/>
</g>
</g>
</svg>
