<?xml version="1.0" encoding="UTF-8" standalone="no"?>
<!DOCTYPE svg PUBLIC "-//W3C//DTD SVG 1.1//EN"
 "http://www.w3.org/Graphics/SVG/1.1/DTD/svg11.dtd">
<!-- Generated by graphviz version 12.2.1 (20250203.1708)
 -->
<!-- Pages: 1 -->
<svg width="565pt" height="495pt"
 viewBox="0.00 0.00 564.99 495.25" xmlns="http://www.w3.org/2000/svg" xmlns:xlink="http://www.w3.org/1999/xlink">
<g id="graph0" class="graph" transform="scale(1 1) rotate(0) translate(4 491.25)">
<polygon fill="white" stroke="none" points="-4,4 -4,-491.25 560.99,-491.25 560.99,4 -4,4"/>
<g id="clust1" class="cluster">
<title>clusterplayer (92)</title>
<path fill="none" stroke="black" d="M135.54,-8C135.54,-8 371.54,-8 371.54,-8 377.54,-8 383.54,-14 383.54,-20 383.54,-20 383.54,-362.75 383.54,-362.75 383.54,-368.75 377.54,-374.75 371.54,-374.75 371.54,-374.75 135.54,-374.75 135.54,-374.75 129.54,-374.75 123.54,-368.75 123.54,-362.75 123.54,-362.75 123.54,-20 123.54,-20 123.54,-14 129.54,-8 135.54,-8"/>
<text text-anchor="middle" x="336.54" y="-15.95" font-family="Times,serif" font-size="14.00">player (92)</text>
</g>
<!-- pi_mu -->
<g id="node1" class="node">
<title>pi_mu</title>
<ellipse fill="none" stroke="black" cx="41.54" cy="-445" rx="41.54" ry="42.25"/>
<text text-anchor="middle" x="41.54" y="-457.57" font-family="Times,serif" font-size="14.00">pi_mu</text>
<text text-anchor="middle" x="41.54" y="-440.32" font-family="Times,serif" font-size="14.00">~</text>
<text text-anchor="middle" x="41.54" y="-423.07" font-family="Times,serif" font-size="14.00">Beta</text>
</g>
<!-- pi -->
<g id="node6" class="node">
<title>pi</title>
<ellipse fill="none" stroke="black" cx="177.54" cy="-324.5" rx="34.65" ry="42.25"/>
<text text-anchor="middle" x="177.54" y="-337.07" font-family="Times,serif" font-size="14.00">pi</text>
<text text-anchor="middle" x="177.54" y="-319.82" font-family="Times,serif" font-size="14.00">~</text>
<text text-anchor="middle" x="177.54" y="-302.57" font-family="Times,serif" font-size="14.00">Beta</text>
</g>
<!-- pi_mu&#45;&gt;pi -->
<g id="edge1" class="edge">
<title>pi_mu&#45;&gt;pi</title>
<path fill="none" stroke="black" d="M72.74,-416.81C93.15,-399.03 119.87,-375.75 141.23,-357.14"/>
<polygon fill="black" stroke="black" points="143.34,-359.94 148.58,-350.74 138.74,-354.67 143.34,-359.94"/>
</g>
<!-- pi_kappa -->
<g id="node2" class="node">
<title>pi_kappa</title>
<ellipse fill="none" stroke="black" cx="166.54" cy="-445" rx="65.94" ry="42.25"/>
<text text-anchor="middle" x="166.54" y="-457.57" font-family="Times,serif" font-size="14.00">pi_kappa</text>
<text text-anchor="middle" x="166.54" y="-440.32" font-family="Times,serif" font-size="14.00">~</text>
<text text-anchor="middle" x="166.54" y="-423.07" font-family="Times,serif" font-size="14.00">InvGamma</text>
</g>
<!-- pi_kappa&#45;&gt;pi -->
<g id="edge2" class="edge">
<title>pi_kappa&#45;&gt;pi</title>
<path fill="none" stroke="black" d="M170.39,-402.55C171.12,-394.66 171.9,-386.3 172.66,-378.11"/>
<polygon fill="black" stroke="black" points="176.14,-378.51 173.58,-368.23 169.17,-377.86 176.14,-378.51"/>
</g>
<!-- delta_sigma^2 -->
<g id="node3" class="node">
<title>delta_sigma^2</title>
<ellipse fill="none" stroke="black" cx="337.54" cy="-445" rx="86.62" ry="42.25"/>
<text text-anchor="middle" x="337.54" y="-457.57" font-family="Times,serif" font-size="14.00">delta_sigma^2</text>
<text text-anchor="middle" x="337.54" y="-440.32" font-family="Times,serif" font-size="14.00">~</text>
<text text-anchor="middle" x="337.54" y="-423.07" font-family="Times,serif" font-size="14.00">InvGamma</text>
</g>
<!-- delta -->
<g id="node7" class="node">
<title>delta</title>
<ellipse fill="none" stroke="black" cx="326.54" cy="-324.5" rx="48.97" ry="42.25"/>
<text text-anchor="middle" x="326.54" y="-337.07" font-family="Times,serif" font-size="14.00">delta</text>
<text text-anchor="middle" x="326.54" y="-319.82" font-family="Times,serif" font-size="14.00">~</text>
<text text-anchor="middle" x="326.54" y="-302.57" font-family="Times,serif" font-size="14.00">Normal</text>
</g>
<!-- delta_sigma^2&#45;&gt;delta -->
<g id="edge3" class="edge">
<title>delta_sigma^2&#45;&gt;delta</title>
<path fill="none" stroke="black" d="M333.7,-402.55C332.96,-394.66 332.19,-386.3 331.43,-378.11"/>
<polygon fill="black" stroke="black" points="334.92,-377.86 330.51,-368.23 327.95,-378.51 334.92,-377.86"/>
</g>
<!-- delta_mu -->
<g id="node4" class="node">
<title>delta_mu</title>
<ellipse fill="none" stroke="black" cx="499.54" cy="-445" rx="57.45" ry="42.25"/>
<text text-anchor="middle" x="499.54" y="-457.57" font-family="Times,serif" font-size="14.00">delta_mu</text>
<text text-anchor="middle" x="499.54" y="-440.32" font-family="Times,serif" font-size="14.00">~</text>
<text text-anchor="middle" x="499.54" y="-423.07" font-family="Times,serif" font-size="14.00">Normal</text>
</g>
<!-- delta_mu&#45;&gt;delta -->
<g id="edge4" class="edge">
<title>delta_mu&#45;&gt;delta</title>
<path fill="none" stroke="black" d="M458.1,-415.61C432.82,-398.3 400.41,-376.09 374.08,-358.06"/>
<polygon fill="black" stroke="black" points="376.16,-355.24 365.93,-352.48 372.21,-361.02 376.16,-355.24"/>
</g>
<!-- y_1 -->
<g id="node5" class="node">
<title>y_1</title>
<ellipse fill="lightgrey" stroke="black" cx="187.54" cy="-204" rx="55.86" ry="42.25"/>
<text text-anchor="middle" x="187.54" y="-216.57" font-family="Times,serif" font-size="14.00">y_1</text>
<text text-anchor="middle" x="187.54" y="-199.32" font-family="Times,serif" font-size="14.00">~</text>
<text text-anchor="middle" x="187.54" y="-182.07" font-family="Times,serif" font-size="14.00">Binomial</text>
</g>
<!-- pi&#45;&gt;y_1 -->
<g id="edge7" class="edge">
<title>pi&#45;&gt;y_1</title>
<path fill="none" stroke="black" d="M181.04,-282.05C181.7,-274.25 182.4,-265.99 183.08,-257.9"/>
<polygon fill="black" stroke="black" points="186.55,-258.39 183.9,-248.13 179.57,-257.8 186.55,-258.39"/>
</g>
<!-- theta -->
<g id="node9" class="node">
<title>theta</title>
<polygon fill="none" stroke="black" points="375.29,-233.87 261.79,-233.87 261.79,-174.12 375.29,-174.12 375.29,-233.87"/>
<text text-anchor="middle" x="318.54" y="-216.57" font-family="Times,serif" font-size="14.00">theta</text>
<text text-anchor="middle" x="318.54" y="-199.32" font-family="Times,serif" font-size="14.00">~</text>
<text text-anchor="middle" x="318.54" y="-182.07" font-family="Times,serif" font-size="14.00">Deterministic</text>
</g>
<!-- pi&#45;&gt;theta -->
<g id="edge6" class="edge">
<title>pi&#45;&gt;theta</title>
<path fill="none" stroke="black" d="M205.74,-299.8C225.53,-283.17 252.39,-260.6 274.93,-241.65"/>
<polygon fill="black" stroke="black" points="277.09,-244.41 282.49,-235.3 272.59,-239.05 277.09,-244.41"/>
</g>
<!-- delta&#45;&gt;theta -->
<g id="edge5" class="edge">
<title>delta&#45;&gt;theta</title>
<path fill="none" stroke="black" d="M323.74,-282.05C322.95,-270.24 322.08,-257.39 321.29,-245.62"/>
<polygon fill="black" stroke="black" points="324.79,-245.55 320.62,-235.81 317.8,-246.02 324.79,-245.55"/>
</g>
<!-- y_2 -->
<g id="node8" class="node">
<title>y_2</title>
<ellipse fill="lightgrey" stroke="black" cx="318.54" cy="-83.5" rx="55.86" ry="42.25"/>
<text text-anchor="middle" x="318.54" y="-96.07" font-family="Times,serif" font-size="14.00">y_2</text>
<text text-anchor="middle" x="318.54" y="-78.82" font-family="Times,serif" font-size="14.00">~</text>
<text text-anchor="middle" x="318.54" y="-61.57" font-family="Times,serif" font-size="14.00">Binomial</text>
</g>
<!-- theta&#45;&gt;y_2 -->
<g id="edge8" class="edge">
<title>theta&#45;&gt;y_2</title>
<path fill="none" stroke="black" d="M318.54,-173.71C318.54,-162.69 318.54,-149.79 318.54,-137.29"/>
<polygon fill="black" stroke="black" points="322.04,-137.49 318.54,-127.49 315.04,-137.49 322.04,-137.49"/>
</g>
</g>
</svg>
