<?xml version="1.0" encoding="UTF-8" standalone="no"?>
<!DOCTYPE svg PUBLIC "-//W3C//DTD SVG 1.1//EN"
 "http://www.w3.org/Graphics/SVG/1.1/DTD/svg11.dtd">
<!-- Generated by graphviz version 2.50.0 (0)
 -->
<!-- Pages: 1 -->
<svg width="452pt" height="344pt"
 viewBox="0.00 0.00 452.19 343.86" xmlns="http://www.w3.org/2000/svg" xmlns:xlink="http://www.w3.org/1999/xlink">
<g id="graph0" class="graph" transform="scale(1 1) rotate(0) translate(4 339.86)">
<polygon fill="white" stroke="transparent" points="-4,4 -4,-339.86 448.19,-339.86 448.19,4 -4,4"/>
<g id="clust1" class="cluster">
<title>clustery_obs (500)</title>
<path fill="none" stroke="black" d="M137.69,-8C137.69,-8 325.69,-8 325.69,-8 331.69,-8 337.69,-14 337.69,-20 337.69,-20 337.69,-209.93 337.69,-209.93 337.69,-215.93 331.69,-221.93 325.69,-221.93 325.69,-221.93 137.69,-221.93 137.69,-221.93 131.69,-221.93 125.69,-215.93 125.69,-209.93 125.69,-209.93 125.69,-20 125.69,-20 125.69,-14 131.69,-8 137.69,-8"/>
<text text-anchor="middle" x="288.69" y="-15.8" font-family="Times,serif" font-size="14.00">y_obs (500)</text>
</g>
<!-- Intercept -->
<g id="node1" class="node">
<title>Intercept</title>
<ellipse fill="none" stroke="black" cx="58.69" cy="-187.43" rx="58.88" ry="37.45"/>
<text text-anchor="middle" x="58.69" y="-198.73" font-family="Times,serif" font-size="14.00">Intercept</text>
<text text-anchor="middle" x="58.69" y="-183.73" font-family="Times,serif" font-size="14.00">~</text>
<text text-anchor="middle" x="58.69" y="-168.73" font-family="Times,serif" font-size="14.00">Normal</text>
</g>
<!-- y -->
<g id="node6" class="node">
<title>y</title>
<ellipse fill="lightgrey" stroke="black" cx="231.69" cy="-76.48" rx="97.66" ry="37.45"/>
<text text-anchor="middle" x="231.69" y="-87.78" font-family="Times,serif" font-size="14.00">y</text>
<text text-anchor="middle" x="231.69" y="-72.78" font-family="Times,serif" font-size="14.00">~</text>
<text text-anchor="middle" x="231.69" y="-57.78" font-family="Times,serif" font-size="14.00">MarginalMixture</text>
</g>
<!-- Intercept&#45;&gt;y -->
<g id="edge4" class="edge">
<title>Intercept&#45;&gt;y</title>
<path fill="none" stroke="black" d="M99.69,-160.61C121.67,-146.77 149.13,-129.47 173.3,-114.25"/>
<polygon fill="black" stroke="black" points="175.45,-117.03 182.04,-108.74 171.72,-111.11 175.45,-117.03"/>
</g>
<!-- psi_x -->
<g id="node2" class="node">
<title>psi_x</title>
<ellipse fill="none" stroke="black" cx="158.69" cy="-298.38" rx="49.49" ry="37.45"/>
<text text-anchor="middle" x="158.69" y="-309.68" font-family="Times,serif" font-size="14.00">psi_x</text>
<text text-anchor="middle" x="158.69" y="-294.68" font-family="Times,serif" font-size="14.00">~</text>
<text text-anchor="middle" x="158.69" y="-279.68" font-family="Times,serif" font-size="14.00">Normal</text>
</g>
<!-- y_psi -->
<g id="node5" class="node">
<title>y_psi</title>
<polygon fill="none" stroke="black" points="288.69,-213.93 174.69,-213.93 174.69,-160.93 288.69,-160.93 288.69,-213.93"/>
<text text-anchor="middle" x="231.69" y="-198.73" font-family="Times,serif" font-size="14.00">y_psi</text>
<text text-anchor="middle" x="231.69" y="-183.73" font-family="Times,serif" font-size="14.00">~</text>
<text text-anchor="middle" x="231.69" y="-168.73" font-family="Times,serif" font-size="14.00">Deterministic</text>
</g>
<!-- psi_x&#45;&gt;y_psi -->
<g id="edge1" class="edge">
<title>psi_x&#45;&gt;y_psi</title>
<path fill="none" stroke="black" d="M180.59,-264.69C189.48,-251.43 199.75,-236.1 208.74,-222.68"/>
<polygon fill="black" stroke="black" points="211.78,-224.43 214.44,-214.17 205.97,-220.53 211.78,-224.43"/>
</g>
<!-- x -->
<g id="node3" class="node">
<title>x</title>
<ellipse fill="none" stroke="black" cx="394.69" cy="-187.43" rx="49.49" ry="37.45"/>
<text text-anchor="middle" x="394.69" y="-198.73" font-family="Times,serif" font-size="14.00">x</text>
<text text-anchor="middle" x="394.69" y="-183.73" font-family="Times,serif" font-size="14.00">~</text>
<text text-anchor="middle" x="394.69" y="-168.73" font-family="Times,serif" font-size="14.00">Normal</text>
</g>
<!-- x&#45;&gt;y -->
<g id="edge5" class="edge">
<title>x&#45;&gt;y</title>
<path fill="none" stroke="black" d="M358.55,-161.41C352.92,-157.56 347.16,-153.63 341.69,-149.95 324.65,-138.48 306.02,-126.13 289.02,-114.94"/>
<polygon fill="black" stroke="black" points="290.57,-111.77 280.29,-109.2 286.73,-117.62 290.57,-111.77"/>
</g>
<!-- psi_Intercept -->
<g id="node4" class="node">
<title>psi_Intercept</title>
<ellipse fill="none" stroke="black" cx="303.69" cy="-298.38" rx="77.56" ry="37.45"/>
<text text-anchor="middle" x="303.69" y="-309.68" font-family="Times,serif" font-size="14.00">psi_Intercept</text>
<text text-anchor="middle" x="303.69" y="-294.68" font-family="Times,serif" font-size="14.00">~</text>
<text text-anchor="middle" x="303.69" y="-279.68" font-family="Times,serif" font-size="14.00">Normal</text>
</g>
<!-- psi_Intercept&#45;&gt;y_psi -->
<g id="edge2" class="edge">
<title>psi_Intercept&#45;&gt;y_psi</title>
<path fill="none" stroke="black" d="M280.51,-262.31C272.1,-249.57 262.6,-235.21 254.24,-222.55"/>
<polygon fill="black" stroke="black" points="257.09,-220.52 248.66,-214.11 251.25,-224.38 257.09,-220.52"/>
</g>
<!-- y_psi&#45;&gt;y -->
<g id="edge3" class="edge">
<title>y_psi&#45;&gt;y</title>
<path fill="none" stroke="black" d="M231.69,-160.89C231.69,-149.98 231.69,-136.89 231.69,-124.35"/>
<polygon fill="black" stroke="black" points="235.19,-124 231.69,-114 228.19,-124 235.19,-124"/>
</g>
</g>
</svg>
