<?xml version="1.0" encoding="UTF-8" standalone="no"?>
<!DOCTYPE svg PUBLIC "-//W3C//DTD SVG 1.1//EN"
 "http://www.w3.org/Graphics/SVG/1.1/DTD/svg11.dtd">
<!-- Generated by graphviz version 3.0.0 (20220315.2325)
 -->
<!-- Pages: 1 -->
<svg width="577pt" height="555pt"
 viewBox="0.00 0.00 576.61 554.81" xmlns="http://www.w3.org/2000/svg" xmlns:xlink="http://www.w3.org/1999/xlink">
<g id="graph0" class="graph" transform="scale(1 1) rotate(0) translate(4 550.81)">
<polygon fill="white" stroke="transparent" points="-4,4 -4,-550.81 572.61,-550.81 572.61,4 -4,4"/>
<g id="clust1" class="cluster">
<title>clustersubject (18)</title>
<path fill="none" stroke="black" d="M314.9,-329.91C314.9,-329.91 521.9,-329.91 521.9,-329.91 527.9,-329.91 533.9,-335.91 533.9,-341.91 533.9,-341.91 533.9,-431.86 533.9,-431.86 533.9,-437.86 527.9,-443.86 521.9,-443.86 521.9,-443.86 314.9,-443.86 314.9,-443.86 308.9,-443.86 302.9,-437.86 302.9,-431.86 302.9,-431.86 302.9,-341.91 302.9,-341.91 302.9,-335.91 308.9,-329.91 314.9,-329.91"/>
<text text-anchor="middle" x="483.4" y="-337.71" font-family="Times,serif" font-size="14.00">subject (18)</text>
</g>
<g id="clust2" class="cluster">
<title>cluster180</title>
<path fill="none" stroke="black" d="M180.9,-8C180.9,-8 418.9,-8 418.9,-8 424.9,-8 430.9,-14 430.9,-20 430.9,-20 430.9,-309.91 430.9,-309.91 430.9,-315.91 424.9,-321.91 418.9,-321.91 418.9,-321.91 180.9,-321.91 180.9,-321.91 174.9,-321.91 168.9,-315.91 168.9,-309.91 168.9,-309.91 168.9,-20 168.9,-20 168.9,-14 174.9,-8 180.9,-8"/>
<text text-anchor="middle" x="408.9" y="-15.8" font-family="Times,serif" font-size="14.00">180</text>
</g>
<!-- σ -->
<g id="node1" class="node">
<title>σ</title>
<ellipse fill="none" stroke="black" cx="79.9" cy="-187.43" rx="79.81" ry="37.45"/>
<text text-anchor="middle" x="79.9" y="-198.73" font-family="Times,serif" font-size="14.00">σ</text>
<text text-anchor="middle" x="79.9" y="-183.73" font-family="Times,serif" font-size="14.00">~</text>
<text text-anchor="middle" x="79.9" y="-168.73" font-family="Times,serif" font-size="14.00">HalfStudentT</text>
</g>
<!-- y -->
<g id="node10" class="node">
<title>y</title>
<ellipse fill="lightgrey" stroke="black" cx="229.9" cy="-76.48" rx="49.49" ry="37.45"/>
<text text-anchor="middle" x="229.9" y="-87.78" font-family="Times,serif" font-size="14.00">y</text>
<text text-anchor="middle" x="229.9" y="-72.78" font-family="Times,serif" font-size="14.00">~</text>
<text text-anchor="middle" x="229.9" y="-57.78" font-family="Times,serif" font-size="14.00">Normal</text>
</g>
<!-- σ&#45;&gt;y -->
<g id="edge9" class="edge">
<title>σ&#45;&gt;y</title>
<path fill="none" stroke="black" d="M122.49,-155.5C142.58,-140.9 166.53,-123.51 186.7,-108.86"/>
<polygon fill="black" stroke="black" points="188.77,-111.68 194.81,-102.97 184.66,-106.01 188.77,-111.68"/>
</g>
<!-- σ_u0 -->
<g id="node2" class="node">
<title>σ_u0</title>
<ellipse fill="none" stroke="black" cx="338.9" cy="-509.34" rx="70.92" ry="37.45"/>
<text text-anchor="middle" x="338.9" y="-520.64" font-family="Times,serif" font-size="14.00">σ_u0</text>
<text text-anchor="middle" x="338.9" y="-505.64" font-family="Times,serif" font-size="14.00">~</text>
<text text-anchor="middle" x="338.9" y="-490.64" font-family="Times,serif" font-size="14.00">HalfNormal</text>
</g>
<!-- u0 -->
<g id="node6" class="node">
<title>u0</title>
<ellipse fill="none" stroke="black" cx="359.9" cy="-398.38" rx="49.49" ry="37.45"/>
<text text-anchor="middle" x="359.9" y="-409.68" font-family="Times,serif" font-size="14.00">u0</text>
<text text-anchor="middle" x="359.9" y="-394.68" font-family="Times,serif" font-size="14.00">~</text>
<text text-anchor="middle" x="359.9" y="-379.68" font-family="Times,serif" font-size="14.00">Normal</text>
</g>
<!-- σ_u0&#45;&gt;u0 -->
<g id="edge1" class="edge">
<title>σ_u0&#45;&gt;u0</title>
<path fill="none" stroke="black" d="M345.95,-471.75C347.56,-463.4 349.3,-454.42 350.97,-445.71"/>
<polygon fill="black" stroke="black" points="354.45,-446.17 352.91,-435.68 347.58,-444.84 354.45,-446.17"/>
</g>
<!-- β0 -->
<g id="node3" class="node">
<title>β0</title>
<ellipse fill="none" stroke="black" cx="125.9" cy="-398.38" rx="49.49" ry="37.45"/>
<text text-anchor="middle" x="125.9" y="-409.68" font-family="Times,serif" font-size="14.00">β0</text>
<text text-anchor="middle" x="125.9" y="-394.68" font-family="Times,serif" font-size="14.00">~</text>
<text text-anchor="middle" x="125.9" y="-379.68" font-family="Times,serif" font-size="14.00">Normal</text>
</g>
<!-- intercept -->
<g id="node8" class="node">
<title>intercept</title>
<polygon fill="none" stroke="black" points="290.9,-313.91 176.9,-313.91 176.9,-260.91 290.9,-260.91 290.9,-313.91"/>
<text text-anchor="middle" x="233.9" y="-298.71" font-family="Times,serif" font-size="14.00">intercept</text>
<text text-anchor="middle" x="233.9" y="-283.71" font-family="Times,serif" font-size="14.00">~</text>
<text text-anchor="middle" x="233.9" y="-268.71" font-family="Times,serif" font-size="14.00">Deterministic</text>
</g>
<!-- β0&#45;&gt;intercept -->
<g id="edge4" class="edge">
<title>β0&#45;&gt;intercept</title>
<path fill="none" stroke="black" d="M151.7,-365.94C161.7,-354.27 173.48,-341.15 184.9,-329.91 187.94,-326.92 191.17,-323.89 194.45,-320.91"/>
<polygon fill="black" stroke="black" points="197.01,-323.32 202.18,-314.07 192.37,-318.08 197.01,-323.32"/>
</g>
<!-- β1 -->
<g id="node4" class="node">
<title>β1</title>
<ellipse fill="none" stroke="black" cx="242.9" cy="-398.38" rx="49.49" ry="37.45"/>
<text text-anchor="middle" x="242.9" y="-409.68" font-family="Times,serif" font-size="14.00">β1</text>
<text text-anchor="middle" x="242.9" y="-394.68" font-family="Times,serif" font-size="14.00">~</text>
<text text-anchor="middle" x="242.9" y="-379.68" font-family="Times,serif" font-size="14.00">Normal</text>
</g>
<!-- slope -->
<g id="node9" class="node">
<title>slope</title>
<polygon fill="none" stroke="black" points="422.9,-313.91 308.9,-313.91 308.9,-260.91 422.9,-260.91 422.9,-313.91"/>
<text text-anchor="middle" x="365.9" y="-298.71" font-family="Times,serif" font-size="14.00">slope</text>
<text text-anchor="middle" x="365.9" y="-283.71" font-family="Times,serif" font-size="14.00">~</text>
<text text-anchor="middle" x="365.9" y="-268.71" font-family="Times,serif" font-size="14.00">Deterministic</text>
</g>
<!-- β1&#45;&gt;slope -->
<g id="edge6" class="edge">
<title>β1&#45;&gt;slope</title>
<path fill="none" stroke="black" d="M266.33,-364.92C275.7,-353.14 287.08,-340.2 298.9,-329.91 302.97,-326.37 307.36,-322.94 311.9,-319.66"/>
<polygon fill="black" stroke="black" points="313.93,-322.52 320.16,-313.95 309.95,-316.76 313.93,-322.52"/>
</g>
<!-- σ_u1 -->
<g id="node5" class="node">
<title>σ_u1</title>
<ellipse fill="none" stroke="black" cx="497.9" cy="-509.34" rx="70.92" ry="37.45"/>
<text text-anchor="middle" x="497.9" y="-520.64" font-family="Times,serif" font-size="14.00">σ_u1</text>
<text text-anchor="middle" x="497.9" y="-505.64" font-family="Times,serif" font-size="14.00">~</text>
<text text-anchor="middle" x="497.9" y="-490.64" font-family="Times,serif" font-size="14.00">HalfNormal</text>
</g>
<!-- u1 -->
<g id="node7" class="node">
<title>u1</title>
<ellipse fill="none" stroke="black" cx="476.9" cy="-398.38" rx="49.49" ry="37.45"/>
<text text-anchor="middle" x="476.9" y="-409.68" font-family="Times,serif" font-size="14.00">u1</text>
<text text-anchor="middle" x="476.9" y="-394.68" font-family="Times,serif" font-size="14.00">~</text>
<text text-anchor="middle" x="476.9" y="-379.68" font-family="Times,serif" font-size="14.00">Normal</text>
</g>
<!-- σ_u1&#45;&gt;u1 -->
<g id="edge2" class="edge">
<title>σ_u1&#45;&gt;u1</title>
<path fill="none" stroke="black" d="M490.85,-471.75C489.24,-463.4 487.51,-454.42 485.83,-445.71"/>
<polygon fill="black" stroke="black" points="489.23,-444.84 483.9,-435.68 482.36,-446.17 489.23,-444.84"/>
</g>
<!-- u0&#45;&gt;intercept -->
<g id="edge3" class="edge">
<title>u0&#45;&gt;intercept</title>
<path fill="none" stroke="black" d="M335.54,-365.68C325.53,-353.73 313.36,-340.48 300.9,-329.91 296.79,-326.42 292.36,-323.03 287.81,-319.78"/>
<polygon fill="black" stroke="black" points="289.75,-316.86 279.52,-314.1 285.79,-322.64 289.75,-316.86"/>
</g>
<!-- u1&#45;&gt;slope -->
<g id="edge5" class="edge">
<title>u1&#45;&gt;slope</title>
<path fill="none" stroke="black" d="M451.58,-366.1C441.53,-354.32 429.6,-341.09 417.9,-329.91 414.67,-326.81 411.22,-323.71 407.7,-320.66"/>
<polygon fill="black" stroke="black" points="409.84,-317.89 399.94,-314.12 405.33,-323.24 409.84,-317.89"/>
</g>
<!-- μ -->
<g id="node11" class="node">
<title>μ</title>
<polygon fill="none" stroke="black" points="291.9,-213.93 177.9,-213.93 177.9,-160.93 291.9,-160.93 291.9,-213.93"/>
<text text-anchor="middle" x="234.9" y="-198.73" font-family="Times,serif" font-size="14.00">μ</text>
<text text-anchor="middle" x="234.9" y="-183.73" font-family="Times,serif" font-size="14.00">~</text>
<text text-anchor="middle" x="234.9" y="-168.73" font-family="Times,serif" font-size="14.00">Deterministic</text>
</g>
<!-- intercept&#45;&gt;μ -->
<g id="edge7" class="edge">
<title>intercept&#45;&gt;μ</title>
<path fill="none" stroke="black" d="M234.17,-260.66C234.28,-249.53 234.41,-236.3 234.54,-224.23"/>
<polygon fill="black" stroke="black" points="238.04,-224.04 234.64,-214 231.04,-223.96 238.04,-224.04"/>
</g>
<!-- slope&#45;&gt;μ -->
<g id="edge8" class="edge">
<title>slope&#45;&gt;μ</title>
<path fill="none" stroke="black" d="M331.48,-260.66C314.94,-248.29 294.94,-233.34 277.45,-220.25"/>
<polygon fill="black" stroke="black" points="279.2,-217.19 269.09,-214 275,-222.79 279.2,-217.19"/>
</g>
<!-- y&#45;&gt;y -->
<g id="edge11" class="edge">
<title>y&#45;&gt;y</title>
<path fill="none" stroke="black" d="M271.43,-97.1C285.8,-97.31 297.4,-90.44 297.4,-76.48 297.4,-66 290.87,-59.52 281.55,-57.02"/>
<polygon fill="black" stroke="black" points="281.76,-53.52 271.43,-55.86 280.96,-60.48 281.76,-53.52"/>
</g>
<!-- μ&#45;&gt;y -->
<g id="edge10" class="edge">
<title>μ&#45;&gt;y</title>
<path fill="none" stroke="black" d="M233.73,-160.89C233.23,-149.98 232.63,-136.89 232.05,-124.35"/>
<polygon fill="black" stroke="black" points="235.53,-123.83 231.58,-114 228.54,-124.15 235.53,-123.83"/>
</g>
</g>
</svg>
