<?xml version="1.0" encoding="UTF-8" standalone="no"?>
<!DOCTYPE svg PUBLIC "-//W3C//DTD SVG 1.1//EN"
 "http://www.w3.org/Graphics/SVG/1.1/DTD/svg11.dtd">
<!-- Generated by graphviz version 12.2.1 (20250203.1708)
 -->
<!-- Pages: 1 -->
<svg width="564pt" height="495pt"
 viewBox="0.00 0.00 564.16 495.25" xmlns="http://www.w3.org/2000/svg" xmlns:xlink="http://www.w3.org/1999/xlink">
<g id="graph0" class="graph" transform="scale(1 1) rotate(0) translate(4 491.25)">
<polygon fill="white" stroke="none" points="-4,4 -4,-491.25 560.16,-491.25 560.16,4 -4,4"/>
<g id="clust1" class="cluster">
<title>clusterplayer (92)</title>
<path fill="none" stroke="black" d="M115.54,-8C115.54,-8 351.54,-8 351.54,-8 357.54,-8 363.54,-14 363.54,-20 363.54,-20 363.54,-362.75 363.54,-362.75 363.54,-368.75 357.54,-374.75 351.54,-374.75 351.54,-374.75 115.54,-374.75 115.54,-374.75 109.54,-374.75 103.54,-368.75 103.54,-362.75 103.54,-362.75 103.54,-20 103.54,-20 103.54,-14 109.54,-8 115.54,-8"/>
<text text-anchor="middle" x="316.54" y="-15.95" font-family="Times,serif" font-size="14.00">player (92)</text>
</g>
<!-- delta_mu -->
<g id="node1" class="node">
<title>delta_mu</title>
<ellipse fill="none" stroke="black" cx="307.54" cy="-445" rx="57.45" ry="42.25"/>
<text text-anchor="middle" x="307.54" y="-457.57" font-family="Times,serif" font-size="14.00">delta_mu</text>
<text text-anchor="middle" x="307.54" y="-440.32" font-family="Times,serif" font-size="14.00">~</text>
<text text-anchor="middle" x="307.54" y="-423.07" font-family="Times,serif" font-size="14.00">Normal</text>
</g>
<!-- delta -->
<g id="node8" class="node">
<title>delta</title>
<ellipse fill="none" stroke="black" cx="306.54" cy="-324.5" rx="48.97" ry="42.25"/>
<text text-anchor="middle" x="306.54" y="-337.07" font-family="Times,serif" font-size="14.00">delta</text>
<text text-anchor="middle" x="306.54" y="-319.82" font-family="Times,serif" font-size="14.00">~</text>
<text text-anchor="middle" x="306.54" y="-302.57" font-family="Times,serif" font-size="14.00">Normal</text>
</g>
<!-- delta_mu&#45;&gt;delta -->
<g id="edge3" class="edge">
<title>delta_mu&#45;&gt;delta</title>
<path fill="none" stroke="black" d="M307.19,-402.55C307.13,-394.75 307.06,-386.49 306.99,-378.4"/>
<polygon fill="black" stroke="black" points="310.49,-378.6 306.91,-368.63 303.49,-378.66 310.49,-378.6"/>
</g>
<!-- pi_mu -->
<g id="node2" class="node">
<title>pi_mu</title>
<ellipse fill="none" stroke="black" cx="41.54" cy="-445" rx="41.54" ry="42.25"/>
<text text-anchor="middle" x="41.54" y="-457.57" font-family="Times,serif" font-size="14.00">pi_mu</text>
<text text-anchor="middle" x="41.54" y="-440.32" font-family="Times,serif" font-size="14.00">~</text>
<text text-anchor="middle" x="41.54" y="-423.07" font-family="Times,serif" font-size="14.00">Beta</text>
</g>
<!-- pi -->
<g id="node6" class="node">
<title>pi</title>
<ellipse fill="none" stroke="black" cx="166.54" cy="-324.5" rx="34.65" ry="42.25"/>
<text text-anchor="middle" x="166.54" y="-337.07" font-family="Times,serif" font-size="14.00">pi</text>
<text text-anchor="middle" x="166.54" y="-319.82" font-family="Times,serif" font-size="14.00">~</text>
<text text-anchor="middle" x="166.54" y="-302.57" font-family="Times,serif" font-size="14.00">Beta</text>
</g>
<!-- pi_mu&#45;&gt;pi -->
<g id="edge1" class="edge">
<title>pi_mu&#45;&gt;pi</title>
<path fill="none" stroke="black" d="M71.48,-415.61C89.4,-398.63 112.26,-376.96 131.08,-359.12"/>
<polygon fill="black" stroke="black" points="133.46,-361.69 138.31,-352.27 128.64,-356.61 133.46,-361.69"/>
</g>
<!-- pi_kappa -->
<g id="node3" class="node">
<title>pi_kappa</title>
<ellipse fill="none" stroke="black" cx="166.54" cy="-445" rx="65.94" ry="42.25"/>
<text text-anchor="middle" x="166.54" y="-457.57" font-family="Times,serif" font-size="14.00">pi_kappa</text>
<text text-anchor="middle" x="166.54" y="-440.32" font-family="Times,serif" font-size="14.00">~</text>
<text text-anchor="middle" x="166.54" y="-423.07" font-family="Times,serif" font-size="14.00">InvGamma</text>
</g>
<!-- pi_kappa&#45;&gt;pi -->
<g id="edge2" class="edge">
<title>pi_kappa&#45;&gt;pi</title>
<path fill="none" stroke="black" d="M166.54,-402.55C166.54,-394.75 166.54,-386.49 166.54,-378.4"/>
<polygon fill="black" stroke="black" points="170.04,-378.63 166.54,-368.63 163.04,-378.63 170.04,-378.63"/>
</g>
<!-- delta_sigma^2 -->
<g id="node4" class="node">
<title>delta_sigma^2</title>
<ellipse fill="none" stroke="black" cx="469.54" cy="-445" rx="86.62" ry="42.25"/>
<text text-anchor="middle" x="469.54" y="-457.57" font-family="Times,serif" font-size="14.00">delta_sigma^2</text>
<text text-anchor="middle" x="469.54" y="-440.32" font-family="Times,serif" font-size="14.00">~</text>
<text text-anchor="middle" x="469.54" y="-423.07" font-family="Times,serif" font-size="14.00">InvGamma</text>
</g>
<!-- delta_sigma^2&#45;&gt;delta -->
<g id="edge4" class="edge">
<title>delta_sigma^2&#45;&gt;delta</title>
<path fill="none" stroke="black" d="M421.96,-409.4C400.18,-393.57 374.48,-374.89 352.86,-359.17"/>
<polygon fill="black" stroke="black" points="354.93,-356.35 344.78,-353.3 350.81,-362.01 354.93,-356.35"/>
</g>
<!-- y_1 -->
<g id="node5" class="node">
<title>y_1</title>
<ellipse fill="lightgrey" stroke="black" cx="167.54" cy="-204" rx="55.86" ry="42.25"/>
<text text-anchor="middle" x="167.54" y="-216.57" font-family="Times,serif" font-size="14.00">y_1</text>
<text text-anchor="middle" x="167.54" y="-199.32" font-family="Times,serif" font-size="14.00">~</text>
<text text-anchor="middle" x="167.54" y="-182.07" font-family="Times,serif" font-size="14.00">Binomial</text>
</g>
<!-- pi&#45;&gt;y_1 -->
<g id="edge7" class="edge">
<title>pi&#45;&gt;y_1</title>
<path fill="none" stroke="black" d="M166.89,-282.05C166.96,-274.25 167.03,-265.99 167.1,-257.9"/>
<polygon fill="black" stroke="black" points="170.59,-258.16 167.18,-248.13 163.59,-258.1 170.59,-258.16"/>
</g>
<!-- theta -->
<g id="node7" class="node">
<title>theta</title>
<polygon fill="none" stroke="black" points="355.29,-233.87 241.79,-233.87 241.79,-174.12 355.29,-174.12 355.29,-233.87"/>
<text text-anchor="middle" x="298.54" y="-216.57" font-family="Times,serif" font-size="14.00">theta</text>
<text text-anchor="middle" x="298.54" y="-199.32" font-family="Times,serif" font-size="14.00">~</text>
<text text-anchor="middle" x="298.54" y="-182.07" font-family="Times,serif" font-size="14.00">Deterministic</text>
</g>
<!-- pi&#45;&gt;theta -->
<g id="edge6" class="edge">
<title>pi&#45;&gt;theta</title>
<path fill="none" stroke="black" d="M194.21,-298.66C212.69,-282.07 237.29,-259.99 257.96,-241.43"/>
<polygon fill="black" stroke="black" points="260.03,-244.28 265.13,-234.99 255.35,-239.07 260.03,-244.28"/>
</g>
<!-- y_2 -->
<g id="node9" class="node">
<title>y_2</title>
<ellipse fill="lightgrey" stroke="black" cx="298.54" cy="-83.5" rx="55.86" ry="42.25"/>
<text text-anchor="middle" x="298.54" y="-96.07" font-family="Times,serif" font-size="14.00">y_2</text>
<text text-anchor="middle" x="298.54" y="-78.82" font-family="Times,serif" font-size="14.00">~</text>
<text text-anchor="middle" x="298.54" y="-61.57" font-family="Times,serif" font-size="14.00">Binomial</text>
</g>
<!-- theta&#45;&gt;y_2 -->
<g id="edge8" class="edge">
<title>theta&#45;&gt;y_2</title>
<path fill="none" stroke="black" d="M298.54,-173.71C298.54,-162.69 298.54,-149.79 298.54,-137.29"/>
<polygon fill="black" stroke="black" points="302.04,-137.49 298.54,-127.49 295.04,-137.49 302.04,-137.49"/>
</g>
<!-- delta&#45;&gt;theta -->
<g id="edge5" class="edge">
<title>delta&#45;&gt;theta</title>
<path fill="none" stroke="black" d="M303.74,-282.05C302.95,-270.24 302.08,-257.39 301.29,-245.62"/>
<polygon fill="black" stroke="black" points="304.79,-245.55 300.62,-235.81 297.8,-246.02 304.79,-245.55"/>
</g>
</g>
</svg>
