<?xml version="1.0" encoding="UTF-8" standalone="no"?>
<!DOCTYPE svg PUBLIC "-//W3C//DTD SVG 1.1//EN"
 "http://www.w3.org/Graphics/SVG/1.1/DTD/svg11.dtd">
<!-- Generated by graphviz version 3.0.0 (20220315.2325)
 -->
<!-- Pages: 1 -->
<svg width="144pt" height="138pt"
 viewBox="0.00 0.00 144.00 137.95" xmlns="http://www.w3.org/2000/svg" xmlns:xlink="http://www.w3.org/1999/xlink">
<g id="graph0" class="graph" transform="scale(1 1) rotate(0) translate(4 133.95)">
<polygon fill="white" stroke="transparent" points="-4,4 -4,-133.95 140,-133.95 140,4 -4,4"/>
<g id="clust1" class="cluster">
<title>clustersubject (3)</title>
<path fill="none" stroke="black" d="M20,-8C20,-8 116,-8 116,-8 122,-8 128,-14 128,-20 128,-20 128,-109.95 128,-109.95 128,-115.95 122,-121.95 116,-121.95 116,-121.95 20,-121.95 20,-121.95 14,-121.95 8,-115.95 8,-109.95 8,-109.95 8,-20 8,-20 8,-14 14,-8 20,-8"/>
<text text-anchor="middle" x="82" y="-15.8" font-family="Times,serif" font-size="14.00">subject (3)</text>
</g>
<!-- lkj -->
<g id="node1" class="node">
<title>lkj</title>
<ellipse fill="none" stroke="black" cx="68" cy="-76.48" rx="52.15" ry="37.45"/>
<text text-anchor="middle" x="68" y="-87.78" font-family="Times,serif" font-size="14.00">lkj</text>
<text text-anchor="middle" x="68" y="-72.78" font-family="Times,serif" font-size="14.00">~</text>
<text text-anchor="middle" x="68" y="-57.78" font-family="Times,serif" font-size="14.00">LKJCorr</text>
</g>
</g>
</svg>
