<?xml version="1.0" encoding="UTF-8" standalone="no"?>
<!DOCTYPE svg PUBLIC "-//W3C//DTD SVG 1.1//EN"
 "http://www.w3.org/Graphics/SVG/1.1/DTD/svg11.dtd">
<!-- Generated by graphviz version 3.0.0 (20220315.2325)
 -->
<!-- Pages: 1 -->
<svg width="895pt" height="874pt"
 viewBox="0.00 0.00 894.90 873.79" xmlns="http://www.w3.org/2000/svg" xmlns:xlink="http://www.w3.org/1999/xlink">
<g id="graph0" class="graph" transform="scale(1 1) rotate(0) translate(4 869.79)">
<polygon fill="white" stroke="transparent" points="-4,4 -4,-869.79 890.9,-869.79 890.9,4 -4,4"/>
<g id="clust1" class="cluster">
<title>clustereffect (2)</title>
<path fill="none" stroke="black" d="M169.9,-743.84C169.9,-743.84 303.9,-743.84 303.9,-743.84 309.9,-743.84 315.9,-749.84 315.9,-755.84 315.9,-755.84 315.9,-845.79 315.9,-845.79 315.9,-851.79 309.9,-857.79 303.9,-857.79 303.9,-857.79 169.9,-857.79 169.9,-857.79 163.9,-857.79 157.9,-851.79 157.9,-845.79 157.9,-845.79 157.9,-755.84 157.9,-755.84 157.9,-749.84 163.9,-743.84 169.9,-743.84"/>
<text text-anchor="middle" x="275.9" y="-751.64" font-family="Times,serif" font-size="14.00">effect (2)</text>
</g>
<g id="clust2" class="cluster">
<title>cluster1</title>
<path fill="none" stroke="black" d="M452.9,-743.84C452.9,-743.84 548.9,-743.84 548.9,-743.84 554.9,-743.84 560.9,-749.84 560.9,-755.84 560.9,-755.84 560.9,-845.79 560.9,-845.79 560.9,-851.79 554.9,-857.79 548.9,-857.79 548.9,-857.79 452.9,-857.79 452.9,-857.79 446.9,-857.79 440.9,-851.79 440.9,-845.79 440.9,-845.79 440.9,-755.84 440.9,-755.84 440.9,-749.84 446.9,-743.84 452.9,-743.84"/>
<text text-anchor="middle" x="547.9" y="-751.64" font-family="Times,serif" font-size="14.00">1</text>
</g>
<g id="clust3" class="cluster">
<title>cluster2 x 2</title>
<path fill="none" stroke="black" d="M315.9,-543.86C315.9,-543.86 553.9,-543.86 553.9,-543.86 559.9,-543.86 565.9,-549.86 565.9,-555.86 565.9,-555.86 565.9,-723.84 565.9,-723.84 565.9,-729.84 559.9,-735.84 553.9,-735.84 553.9,-735.84 315.9,-735.84 315.9,-735.84 309.9,-735.84 303.9,-729.84 303.9,-723.84 303.9,-723.84 303.9,-555.86 303.9,-555.86 303.9,-549.86 309.9,-543.86 315.9,-543.86"/>
<text text-anchor="middle" x="539.9" y="-551.66" font-family="Times,serif" font-size="14.00">2 x 2</text>
</g>
<g id="clust4" class="cluster">
<title>clustereffect (2) x subject (18)</title>
<path fill="none" stroke="black" d="M708.9,-532.88C708.9,-532.88 866.9,-532.88 866.9,-532.88 872.9,-532.88 878.9,-538.88 878.9,-544.88 878.9,-544.88 878.9,-634.84 878.9,-634.84 878.9,-640.84 872.9,-646.84 866.9,-646.84 866.9,-646.84 708.9,-646.84 708.9,-646.84 702.9,-646.84 696.9,-640.84 696.9,-634.84 696.9,-634.84 696.9,-544.88 696.9,-544.88 696.9,-538.88 702.9,-532.88 708.9,-532.88"/>
<text text-anchor="middle" x="787.9" y="-540.68" font-family="Times,serif" font-size="14.00">effect (2) x subject (18)</text>
</g>
<g id="clust5" class="cluster">
<title>clustersubject (18) x effect (2)</title>
<path fill="none" stroke="black" d="M443.9,-432.88C443.9,-432.88 601.9,-432.88 601.9,-432.88 607.9,-432.88 613.9,-438.88 613.9,-444.88 613.9,-444.88 613.9,-512.88 613.9,-512.88 613.9,-518.88 607.9,-524.88 601.9,-524.88 601.9,-524.88 443.9,-524.88 443.9,-524.88 437.9,-524.88 431.9,-518.88 431.9,-512.88 431.9,-512.88 431.9,-444.88 431.9,-444.88 431.9,-438.88 437.9,-432.88 443.9,-432.88"/>
<text text-anchor="middle" x="522.9" y="-440.68" font-family="Times,serif" font-size="14.00">subject (18) x effect (2)</text>
</g>
<g id="clust6" class="cluster">
<title>clustersubject (18)</title>
<path fill="none" stroke="black" d="M409.9,-329.91C409.9,-329.91 647.9,-329.91 647.9,-329.91 653.9,-329.91 659.9,-335.91 659.9,-341.91 659.9,-341.91 659.9,-409.91 659.9,-409.91 659.9,-415.91 653.9,-421.91 647.9,-421.91 647.9,-421.91 409.9,-421.91 409.9,-421.91 403.9,-421.91 397.9,-415.91 397.9,-409.91 397.9,-409.91 397.9,-341.91 397.9,-341.91 397.9,-335.91 403.9,-329.91 409.9,-329.91"/>
<text text-anchor="middle" x="609.4" y="-337.71" font-family="Times,serif" font-size="14.00">subject (18)</text>
</g>
<g id="clust7" class="cluster">
<title>cluster180</title>
<path fill="none" stroke="black" d="M180.9,-8C180.9,-8 418.9,-8 418.9,-8 424.9,-8 430.9,-14 430.9,-20 430.9,-20 430.9,-309.91 430.9,-309.91 430.9,-315.91 424.9,-321.91 418.9,-321.91 418.9,-321.91 180.9,-321.91 180.9,-321.91 174.9,-321.91 168.9,-315.91 168.9,-309.91 168.9,-309.91 168.9,-20 168.9,-20 168.9,-14 174.9,-8 180.9,-8"/>
<text text-anchor="middle" x="408.9" y="-15.8" font-family="Times,serif" font-size="14.00">180</text>
</g>
<!-- σ -->
<g id="node1" class="node">
<title>σ</title>
<ellipse fill="none" stroke="black" cx="79.9" cy="-187.43" rx="79.81" ry="37.45"/>
<text text-anchor="middle" x="79.9" y="-198.73" font-family="Times,serif" font-size="14.00">σ</text>
<text text-anchor="middle" x="79.9" y="-183.73" font-family="Times,serif" font-size="14.00">~</text>
<text text-anchor="middle" x="79.9" y="-168.73" font-family="Times,serif" font-size="14.00">HalfStudentT</text>
</g>
<!-- y -->
<g id="node18" class="node">
<title>y</title>
<ellipse fill="lightgrey" stroke="black" cx="229.9" cy="-76.48" rx="49.49" ry="37.45"/>
<text text-anchor="middle" x="229.9" y="-87.78" font-family="Times,serif" font-size="14.00">y</text>
<text text-anchor="middle" x="229.9" y="-72.78" font-family="Times,serif" font-size="14.00">~</text>
<text text-anchor="middle" x="229.9" y="-57.78" font-family="Times,serif" font-size="14.00">Normal</text>
</g>
<!-- σ&#45;&gt;y -->
<g id="edge18" class="edge">
<title>σ&#45;&gt;y</title>
<path fill="none" stroke="black" d="M122.49,-155.5C142.58,-140.9 166.53,-123.51 186.7,-108.86"/>
<polygon fill="black" stroke="black" points="188.77,-111.68 194.81,-102.97 184.66,-106.01 188.77,-111.68"/>
</g>
<!-- ρ_u -->
<g id="node2" class="node">
<title>ρ_u</title>
<polygon fill="none" stroke="black" points="687.9,-627.86 573.9,-627.86 573.9,-574.86 687.9,-574.86 687.9,-627.86"/>
<text text-anchor="middle" x="630.9" y="-612.66" font-family="Times,serif" font-size="14.00">ρ_u</text>
<text text-anchor="middle" x="630.9" y="-597.66" font-family="Times,serif" font-size="14.00">~</text>
<text text-anchor="middle" x="630.9" y="-582.66" font-family="Times,serif" font-size="14.00">Deterministic</text>
</g>
<!-- σ_u0 -->
<g id="node3" class="node">
<title>σ_u0</title>
<polygon fill="none" stroke="black" points="161.9,-727.84 47.9,-727.84 47.9,-674.84 161.9,-674.84 161.9,-727.84"/>
<text text-anchor="middle" x="104.9" y="-712.64" font-family="Times,serif" font-size="14.00">σ_u0</text>
<text text-anchor="middle" x="104.9" y="-697.64" font-family="Times,serif" font-size="14.00">~</text>
<text text-anchor="middle" x="104.9" y="-682.64" font-family="Times,serif" font-size="14.00">Deterministic</text>
</g>
<!-- β0 -->
<g id="node4" class="node">
<title>β0</title>
<ellipse fill="none" stroke="black" cx="338.9" cy="-387.41" rx="49.49" ry="37.45"/>
<text text-anchor="middle" x="338.9" y="-398.71" font-family="Times,serif" font-size="14.00">β0</text>
<text text-anchor="middle" x="338.9" y="-383.71" font-family="Times,serif" font-size="14.00">~</text>
<text text-anchor="middle" x="338.9" y="-368.71" font-family="Times,serif" font-size="14.00">Normal</text>
</g>
<!-- intercept -->
<g id="node16" class="node">
<title>intercept</title>
<polygon fill="none" stroke="black" points="422.9,-313.91 308.9,-313.91 308.9,-260.91 422.9,-260.91 422.9,-313.91"/>
<text text-anchor="middle" x="365.9" y="-298.71" font-family="Times,serif" font-size="14.00">intercept</text>
<text text-anchor="middle" x="365.9" y="-283.71" font-family="Times,serif" font-size="14.00">~</text>
<text text-anchor="middle" x="365.9" y="-268.71" font-family="Times,serif" font-size="14.00">Deterministic</text>
</g>
<!-- β0&#45;&gt;intercept -->
<g id="edge13" class="edge">
<title>β0&#45;&gt;intercept</title>
<path fill="none" stroke="black" d="M348.8,-350.47C351.21,-341.76 353.77,-332.44 356.16,-323.75"/>
<polygon fill="black" stroke="black" points="359.59,-324.48 358.88,-313.91 352.85,-322.62 359.59,-324.48"/>
</g>
<!-- β1 -->
<g id="node5" class="node">
<title>β1</title>
<ellipse fill="none" stroke="black" cx="221.9" cy="-387.41" rx="49.49" ry="37.45"/>
<text text-anchor="middle" x="221.9" y="-398.71" font-family="Times,serif" font-size="14.00">β1</text>
<text text-anchor="middle" x="221.9" y="-383.71" font-family="Times,serif" font-size="14.00">~</text>
<text text-anchor="middle" x="221.9" y="-368.71" font-family="Times,serif" font-size="14.00">Normal</text>
</g>
<!-- slope -->
<g id="node17" class="node">
<title>slope</title>
<polygon fill="none" stroke="black" points="290.9,-313.91 176.9,-313.91 176.9,-260.91 290.9,-260.91 290.9,-313.91"/>
<text text-anchor="middle" x="233.9" y="-298.71" font-family="Times,serif" font-size="14.00">slope</text>
<text text-anchor="middle" x="233.9" y="-283.71" font-family="Times,serif" font-size="14.00">~</text>
<text text-anchor="middle" x="233.9" y="-268.71" font-family="Times,serif" font-size="14.00">Deterministic</text>
</g>
<!-- β1&#45;&gt;slope -->
<g id="edge15" class="edge">
<title>β1&#45;&gt;slope</title>
<path fill="none" stroke="black" d="M226.37,-349.92C227.41,-341.4 228.52,-332.35 229.56,-323.89"/>
<polygon fill="black" stroke="black" points="233.04,-324.27 230.78,-313.92 226.09,-323.42 233.04,-324.27"/>
</g>
<!-- σ_u1 -->
<g id="node6" class="node">
<title>σ_u1</title>
<polygon fill="none" stroke="black" points="293.9,-727.84 179.9,-727.84 179.9,-674.84 293.9,-674.84 293.9,-727.84"/>
<text text-anchor="middle" x="236.9" y="-712.64" font-family="Times,serif" font-size="14.00">σ_u1</text>
<text text-anchor="middle" x="236.9" y="-697.64" font-family="Times,serif" font-size="14.00">~</text>
<text text-anchor="middle" x="236.9" y="-682.64" font-family="Times,serif" font-size="14.00">Deterministic</text>
</g>
<!-- u_σ -->
<g id="node7" class="node">
<title>u_σ</title>
<ellipse fill="none" stroke="black" cx="236.9" cy="-812.31" rx="70.92" ry="37.45"/>
<text text-anchor="middle" x="236.9" y="-823.61" font-family="Times,serif" font-size="14.00">u_σ</text>
<text text-anchor="middle" x="236.9" y="-808.61" font-family="Times,serif" font-size="14.00">~</text>
<text text-anchor="middle" x="236.9" y="-793.61" font-family="Times,serif" font-size="14.00">HalfNormal</text>
</g>
<!-- u_σ&#45;&gt;σ_u0 -->
<g id="edge8" class="edge">
<title>u_σ&#45;&gt;σ_u0</title>
<path fill="none" stroke="black" d="M199.43,-780.38C182.11,-766.08 161.55,-749.1 144.03,-734.64"/>
<polygon fill="black" stroke="black" points="146.16,-731.86 136.22,-728.19 141.71,-737.26 146.16,-731.86"/>
</g>
<!-- u_σ&#45;&gt;σ_u1 -->
<g id="edge10" class="edge">
<title>u_σ&#45;&gt;σ_u1</title>
<path fill="none" stroke="black" d="M236.9,-774.72C236.9,-762.98 236.9,-749.99 236.9,-738.3"/>
<polygon fill="black" stroke="black" points="240.4,-737.99 236.9,-727.99 233.4,-737.99 240.4,-737.99"/>
</g>
<!-- σ_diagonal -->
<g id="node9" class="node">
<title>σ_diagonal</title>
<polygon fill="none" stroke="black" points="425.9,-727.84 311.9,-727.84 311.9,-674.84 425.9,-674.84 425.9,-727.84"/>
<text text-anchor="middle" x="368.9" y="-712.64" font-family="Times,serif" font-size="14.00">σ_diagonal</text>
<text text-anchor="middle" x="368.9" y="-697.64" font-family="Times,serif" font-size="14.00">~</text>
<text text-anchor="middle" x="368.9" y="-682.64" font-family="Times,serif" font-size="14.00">Deterministic</text>
</g>
<!-- u_σ&#45;&gt;σ_diagonal -->
<g id="edge2" class="edge">
<title>u_σ&#45;&gt;σ_diagonal</title>
<path fill="none" stroke="black" d="M274.38,-780.38C291.69,-766.08 312.26,-749.1 329.77,-734.64"/>
<polygon fill="black" stroke="black" points="332.1,-737.26 337.58,-728.19 327.64,-731.86 332.1,-737.26"/>
</g>
<!-- Ω_triu -->
<g id="node8" class="node">
<title>Ω_triu</title>
<ellipse fill="none" stroke="black" cx="500.9" cy="-812.31" rx="52.15" ry="37.45"/>
<text text-anchor="middle" x="500.9" y="-823.61" font-family="Times,serif" font-size="14.00">Ω_triu</text>
<text text-anchor="middle" x="500.9" y="-808.61" font-family="Times,serif" font-size="14.00">~</text>
<text text-anchor="middle" x="500.9" y="-793.61" font-family="Times,serif" font-size="14.00">LKJCorr</text>
</g>
<!-- Ω -->
<g id="node11" class="node">
<title>Ω</title>
<polygon fill="none" stroke="black" points="557.9,-727.84 443.9,-727.84 443.9,-674.84 557.9,-674.84 557.9,-727.84"/>
<text text-anchor="middle" x="500.9" y="-712.64" font-family="Times,serif" font-size="14.00">Ω</text>
<text text-anchor="middle" x="500.9" y="-697.64" font-family="Times,serif" font-size="14.00">~</text>
<text text-anchor="middle" x="500.9" y="-682.64" font-family="Times,serif" font-size="14.00">Deterministic</text>
</g>
<!-- Ω_triu&#45;&gt;Ω -->
<g id="edge1" class="edge">
<title>Ω_triu&#45;&gt;Ω</title>
<path fill="none" stroke="black" d="M500.9,-774.72C500.9,-762.98 500.9,-749.99 500.9,-738.3"/>
<polygon fill="black" stroke="black" points="504.4,-737.99 500.9,-727.99 497.4,-737.99 504.4,-737.99"/>
</g>
<!-- L -->
<g id="node10" class="node">
<title>L</title>
<polygon fill="none" stroke="black" points="555.9,-627.86 441.9,-627.86 441.9,-574.86 555.9,-574.86 555.9,-627.86"/>
<text text-anchor="middle" x="498.9" y="-612.66" font-family="Times,serif" font-size="14.00">L</text>
<text text-anchor="middle" x="498.9" y="-597.66" font-family="Times,serif" font-size="14.00">~</text>
<text text-anchor="middle" x="498.9" y="-582.66" font-family="Times,serif" font-size="14.00">Deterministic</text>
</g>
<!-- σ_diagonal&#45;&gt;L -->
<g id="edge3" class="edge">
<title>σ_diagonal&#45;&gt;L</title>
<path fill="none" stroke="black" d="M403.06,-674.59C419.48,-662.22 439.32,-647.27 456.68,-634.18"/>
<polygon fill="black" stroke="black" points="459.1,-636.74 464.98,-627.93 454.88,-631.15 459.1,-636.74"/>
</g>
<!-- u -->
<g id="node13" class="node">
<title>u</title>
<polygon fill="none" stroke="black" points="579.9,-516.88 465.9,-516.88 465.9,-463.88 579.9,-463.88 579.9,-516.88"/>
<text text-anchor="middle" x="522.9" y="-501.68" font-family="Times,serif" font-size="14.00">u</text>
<text text-anchor="middle" x="522.9" y="-486.68" font-family="Times,serif" font-size="14.00">~</text>
<text text-anchor="middle" x="522.9" y="-471.68" font-family="Times,serif" font-size="14.00">Deterministic</text>
</g>
<!-- L&#45;&gt;u -->
<g id="edge6" class="edge">
<title>L&#45;&gt;u</title>
<path fill="none" stroke="black" d="M504.53,-574.81C507.67,-560.57 511.62,-542.61 515.06,-527"/>
<polygon fill="black" stroke="black" points="518.5,-527.67 517.23,-517.15 511.66,-526.16 518.5,-527.67"/>
</g>
<!-- Ω&#45;&gt;ρ_u -->
<g id="edge11" class="edge">
<title>Ω&#45;&gt;ρ_u</title>
<path fill="none" stroke="black" d="M535.06,-674.59C551.48,-662.22 571.32,-647.27 588.68,-634.18"/>
<polygon fill="black" stroke="black" points="591.1,-636.74 596.98,-627.93 586.88,-631.15 591.1,-636.74"/>
</g>
<!-- Ω&#45;&gt;L -->
<g id="edge4" class="edge">
<title>Ω&#45;&gt;L</title>
<path fill="none" stroke="black" d="M500.38,-674.59C500.15,-663.46 499.88,-650.23 499.63,-638.16"/>
<polygon fill="black" stroke="black" points="503.13,-637.86 499.43,-627.93 496.13,-638 503.13,-637.86"/>
</g>
<!-- u_raw -->
<g id="node12" class="node">
<title>u_raw</title>
<ellipse fill="none" stroke="black" cx="754.9" cy="-601.36" rx="49.49" ry="37.45"/>
<text text-anchor="middle" x="754.9" y="-612.66" font-family="Times,serif" font-size="14.00">u_raw</text>
<text text-anchor="middle" x="754.9" y="-597.66" font-family="Times,serif" font-size="14.00">~</text>
<text text-anchor="middle" x="754.9" y="-582.66" font-family="Times,serif" font-size="14.00">Normal</text>
</g>
<!-- u_raw&#45;&gt;u -->
<g id="edge5" class="edge">
<title>u_raw&#45;&gt;u</title>
<path fill="none" stroke="black" d="M733.44,-567.49C723.7,-554.93 711.15,-541.57 696.9,-532.88 664.82,-513.33 624.2,-502.99 590.28,-497.52"/>
<polygon fill="black" stroke="black" points="590.39,-494 579.98,-495.97 589.35,-500.92 590.39,-494"/>
</g>
<!-- u0 -->
<g id="node14" class="node">
<title>u0</title>
<polygon fill="none" stroke="black" points="651.9,-413.91 537.9,-413.91 537.9,-360.91 651.9,-360.91 651.9,-413.91"/>
<text text-anchor="middle" x="594.9" y="-398.71" font-family="Times,serif" font-size="14.00">u0</text>
<text text-anchor="middle" x="594.9" y="-383.71" font-family="Times,serif" font-size="14.00">~</text>
<text text-anchor="middle" x="594.9" y="-368.71" font-family="Times,serif" font-size="14.00">Deterministic</text>
</g>
<!-- u&#45;&gt;u0 -->
<g id="edge7" class="edge">
<title>u&#45;&gt;u0</title>
<path fill="none" stroke="black" d="M541.26,-463.64C550.14,-451.18 560.94,-436.04 570.5,-422.63"/>
<polygon fill="black" stroke="black" points="573.63,-424.28 576.58,-414.1 567.93,-420.21 573.63,-424.28"/>
</g>
<!-- u1 -->
<g id="node15" class="node">
<title>u1</title>
<polygon fill="none" stroke="black" points="519.9,-413.91 405.9,-413.91 405.9,-360.91 519.9,-360.91 519.9,-413.91"/>
<text text-anchor="middle" x="462.9" y="-398.71" font-family="Times,serif" font-size="14.00">u1</text>
<text text-anchor="middle" x="462.9" y="-383.71" font-family="Times,serif" font-size="14.00">~</text>
<text text-anchor="middle" x="462.9" y="-368.71" font-family="Times,serif" font-size="14.00">Deterministic</text>
</g>
<!-- u&#45;&gt;u1 -->
<g id="edge9" class="edge">
<title>u&#45;&gt;u1</title>
<path fill="none" stroke="black" d="M507.61,-463.64C500.27,-451.3 491.38,-436.33 483.46,-423.01"/>
<polygon fill="black" stroke="black" points="486.29,-420.91 478.17,-414.1 480.27,-424.49 486.29,-420.91"/>
</g>
<!-- u0&#45;&gt;intercept -->
<g id="edge12" class="edge">
<title>u0&#45;&gt;intercept</title>
<path fill="none" stroke="black" d="M570.6,-360.85C558.92,-349.9 544.17,-337.83 528.9,-329.91 499.33,-314.56 463.74,-304.65 433.37,-298.38"/>
<polygon fill="black" stroke="black" points="433.77,-294.89 423.28,-296.39 432.42,-301.76 433.77,-294.89"/>
</g>
<!-- u1&#45;&gt;slope -->
<g id="edge14" class="edge">
<title>u1&#45;&gt;slope</title>
<path fill="none" stroke="black" d="M440.36,-360.83C428.64,-349.3 413.33,-336.76 396.9,-329.91 356.98,-313.26 341.52,-333.69 299.9,-321.91 296.05,-320.82 292.16,-319.49 288.29,-318.01"/>
<polygon fill="black" stroke="black" points="289.35,-314.66 278.77,-314.05 286.65,-321.12 289.35,-314.66"/>
</g>
<!-- μ -->
<g id="node19" class="node">
<title>μ</title>
<polygon fill="none" stroke="black" points="291.9,-213.93 177.9,-213.93 177.9,-160.93 291.9,-160.93 291.9,-213.93"/>
<text text-anchor="middle" x="234.9" y="-198.73" font-family="Times,serif" font-size="14.00">μ</text>
<text text-anchor="middle" x="234.9" y="-183.73" font-family="Times,serif" font-size="14.00">~</text>
<text text-anchor="middle" x="234.9" y="-168.73" font-family="Times,serif" font-size="14.00">Deterministic</text>
</g>
<!-- intercept&#45;&gt;μ -->
<g id="edge16" class="edge">
<title>intercept&#45;&gt;μ</title>
<path fill="none" stroke="black" d="M331.48,-260.66C314.94,-248.29 294.94,-233.34 277.45,-220.25"/>
<polygon fill="black" stroke="black" points="279.2,-217.19 269.09,-214 275,-222.79 279.2,-217.19"/>
</g>
<!-- slope&#45;&gt;μ -->
<g id="edge17" class="edge">
<title>slope&#45;&gt;μ</title>
<path fill="none" stroke="black" d="M234.17,-260.66C234.28,-249.53 234.41,-236.3 234.54,-224.23"/>
<polygon fill="black" stroke="black" points="238.04,-224.04 234.64,-214 231.04,-223.96 238.04,-224.04"/>
</g>
<!-- y&#45;&gt;y -->
<g id="edge20" class="edge">
<title>y&#45;&gt;y</title>
<path fill="none" stroke="black" d="M271.43,-97.1C285.8,-97.31 297.4,-90.44 297.4,-76.48 297.4,-66 290.87,-59.52 281.55,-57.02"/>
<polygon fill="black" stroke="black" points="281.76,-53.52 271.43,-55.86 280.96,-60.48 281.76,-53.52"/>
</g>
<!-- μ&#45;&gt;y -->
<g id="edge19" class="edge">
<title>μ&#45;&gt;y</title>
<path fill="none" stroke="black" d="M233.73,-160.89C233.23,-149.98 232.63,-136.89 232.05,-124.35"/>
<polygon fill="black" stroke="black" points="235.53,-123.83 231.58,-114 228.54,-124.15 235.53,-123.83"/>
</g>
</g>
</svg>
