<?xml version="1.0" encoding="UTF-8" standalone="no"?>
<!DOCTYPE svg PUBLIC "-//W3C//DTD SVG 1.1//EN"
 "http://www.w3.org/Graphics/SVG/1.1/DTD/svg11.dtd">
<!-- Generated by graphviz version 3.0.0 (20220315.2325)
 -->
<!-- Pages: 1 -->
<svg width="590pt" height="663pt"
 viewBox="0.00 0.00 590.00 662.84" xmlns="http://www.w3.org/2000/svg" xmlns:xlink="http://www.w3.org/1999/xlink">
<g id="graph0" class="graph" transform="scale(1 1) rotate(0) translate(4 658.84)">
<polygon fill="white" stroke="transparent" points="-4,4 -4,-658.84 586,-658.84 586,4 -4,4"/>
<g id="clust1" class="cluster">
<title>cluster3</title>
<path fill="none" stroke="black" d="M157,-532.88C157,-532.88 347,-532.88 347,-532.88 353,-532.88 359,-538.88 359,-544.88 359,-544.88 359,-634.84 359,-634.84 359,-640.84 353,-646.84 347,-646.84 347,-646.84 157,-646.84 157,-646.84 151,-646.84 145,-640.84 145,-634.84 145,-634.84 145,-544.88 145,-544.88 145,-538.88 151,-532.88 157,-532.88"/>
<text text-anchor="middle" x="346" y="-540.68" font-family="Times,serif" font-size="14.00">3</text>
</g>
<g id="clust2" class="cluster">
<title>clustereffect (2) x subject (18)</title>
<path fill="none" stroke="black" d="M404,-532.88C404,-532.88 562,-532.88 562,-532.88 568,-532.88 574,-538.88 574,-544.88 574,-544.88 574,-634.84 574,-634.84 574,-640.84 568,-646.84 562,-646.84 562,-646.84 404,-646.84 404,-646.84 398,-646.84 392,-640.84 392,-634.84 392,-634.84 392,-544.88 392,-544.88 392,-538.88 398,-532.88 404,-532.88"/>
<text text-anchor="middle" x="483" y="-540.68" font-family="Times,serif" font-size="14.00">effect (2) x subject (18)</text>
</g>
<g id="clust3" class="cluster">
<title>clustersubject (18) x effect (2)</title>
<path fill="none" stroke="black" d="M399,-432.88C399,-432.88 557,-432.88 557,-432.88 563,-432.88 569,-438.88 569,-444.88 569,-444.88 569,-512.88 569,-512.88 569,-518.88 563,-524.88 557,-524.88 557,-524.88 399,-524.88 399,-524.88 393,-524.88 387,-518.88 387,-512.88 387,-512.88 387,-444.88 387,-444.88 387,-438.88 393,-432.88 399,-432.88"/>
<text text-anchor="middle" x="478" y="-440.68" font-family="Times,serif" font-size="14.00">subject (18) x effect (2)</text>
</g>
<g id="clust4" class="cluster">
<title>clustersubject (18)</title>
<path fill="none" stroke="black" d="M322,-329.91C322,-329.91 560,-329.91 560,-329.91 566,-329.91 572,-335.91 572,-341.91 572,-341.91 572,-409.91 572,-409.91 572,-415.91 566,-421.91 560,-421.91 560,-421.91 322,-421.91 322,-421.91 316,-421.91 310,-415.91 310,-409.91 310,-409.91 310,-341.91 310,-341.91 310,-335.91 316,-329.91 322,-329.91"/>
<text text-anchor="middle" x="521.5" y="-337.71" font-family="Times,serif" font-size="14.00">subject (18)</text>
</g>
<g id="clust5" class="cluster">
<title>cluster180</title>
<path fill="none" stroke="black" d="M215,-8C215,-8 453,-8 453,-8 459,-8 465,-14 465,-20 465,-20 465,-309.91 465,-309.91 465,-315.91 459,-321.91 453,-321.91 453,-321.91 215,-321.91 215,-321.91 209,-321.91 203,-315.91 203,-309.91 203,-309.91 203,-20 203,-20 203,-14 209,-8 215,-8"/>
<text text-anchor="middle" x="443" y="-15.8" font-family="Times,serif" font-size="14.00">180</text>
</g>
<!-- σ -->
<g id="node1" class="node">
<title>σ</title>
<ellipse fill="none" stroke="black" cx="114" cy="-187.43" rx="79.81" ry="37.45"/>
<text text-anchor="middle" x="114" y="-198.73" font-family="Times,serif" font-size="14.00">σ</text>
<text text-anchor="middle" x="114" y="-183.73" font-family="Times,serif" font-size="14.00">~</text>
<text text-anchor="middle" x="114" y="-168.73" font-family="Times,serif" font-size="14.00">HalfStudentT</text>
</g>
<!-- y -->
<g id="node14" class="node">
<title>y</title>
<ellipse fill="lightgrey" stroke="black" cx="264" cy="-76.48" rx="49.49" ry="37.45"/>
<text text-anchor="middle" x="264" y="-87.78" font-family="Times,serif" font-size="14.00">y</text>
<text text-anchor="middle" x="264" y="-72.78" font-family="Times,serif" font-size="14.00">~</text>
<text text-anchor="middle" x="264" y="-57.78" font-family="Times,serif" font-size="14.00">Normal</text>
</g>
<!-- σ&#45;&gt;y -->
<g id="edge14" class="edge">
<title>σ&#45;&gt;y</title>
<path fill="none" stroke="black" d="M156.58,-155.5C176.68,-140.9 200.62,-123.51 220.8,-108.86"/>
<polygon fill="black" stroke="black" points="222.87,-111.68 228.9,-102.97 218.75,-106.01 222.87,-111.68"/>
</g>
<!-- ρ_u -->
<g id="node2" class="node">
<title>ρ_u</title>
<polygon fill="none" stroke="black" points="114,-516.88 0,-516.88 0,-463.88 114,-463.88 114,-516.88"/>
<text text-anchor="middle" x="57" y="-501.68" font-family="Times,serif" font-size="14.00">ρ_u</text>
<text text-anchor="middle" x="57" y="-486.68" font-family="Times,serif" font-size="14.00">~</text>
<text text-anchor="middle" x="57" y="-471.68" font-family="Times,serif" font-size="14.00">Deterministic</text>
</g>
<!-- σ_u0 -->
<g id="node3" class="node">
<title>σ_u0</title>
<polygon fill="none" stroke="black" points="246,-516.88 132,-516.88 132,-463.88 246,-463.88 246,-516.88"/>
<text text-anchor="middle" x="189" y="-501.68" font-family="Times,serif" font-size="14.00">σ_u0</text>
<text text-anchor="middle" x="189" y="-486.68" font-family="Times,serif" font-size="14.00">~</text>
<text text-anchor="middle" x="189" y="-471.68" font-family="Times,serif" font-size="14.00">Deterministic</text>
</g>
<!-- β0 -->
<g id="node4" class="node">
<title>β0</title>
<ellipse fill="none" stroke="black" cx="251" cy="-387.41" rx="49.49" ry="37.45"/>
<text text-anchor="middle" x="251" y="-398.71" font-family="Times,serif" font-size="14.00">β0</text>
<text text-anchor="middle" x="251" y="-383.71" font-family="Times,serif" font-size="14.00">~</text>
<text text-anchor="middle" x="251" y="-368.71" font-family="Times,serif" font-size="14.00">Normal</text>
</g>
<!-- intercept -->
<g id="node12" class="node">
<title>intercept</title>
<polygon fill="none" stroke="black" points="457,-313.91 343,-313.91 343,-260.91 457,-260.91 457,-313.91"/>
<text text-anchor="middle" x="400" y="-298.71" font-family="Times,serif" font-size="14.00">intercept</text>
<text text-anchor="middle" x="400" y="-283.71" font-family="Times,serif" font-size="14.00">~</text>
<text text-anchor="middle" x="400" y="-268.71" font-family="Times,serif" font-size="14.00">Deterministic</text>
</g>
<!-- β0&#45;&gt;intercept -->
<g id="edge9" class="edge">
<title>β0&#45;&gt;intercept</title>
<path fill="none" stroke="black" d="M276.21,-354.8C284.82,-345.68 295.07,-336.44 306,-329.91 317.11,-323.27 321.95,-326.63 334,-321.91 336.99,-320.73 340.03,-319.47 343.07,-318.14"/>
<polygon fill="black" stroke="black" points="344.52,-321.33 352.19,-314.01 341.63,-314.95 344.52,-321.33"/>
</g>
<!-- β1 -->
<g id="node5" class="node">
<title>β1</title>
<ellipse fill="none" stroke="black" cx="134" cy="-387.41" rx="49.49" ry="37.45"/>
<text text-anchor="middle" x="134" y="-398.71" font-family="Times,serif" font-size="14.00">β1</text>
<text text-anchor="middle" x="134" y="-383.71" font-family="Times,serif" font-size="14.00">~</text>
<text text-anchor="middle" x="134" y="-368.71" font-family="Times,serif" font-size="14.00">Normal</text>
</g>
<!-- slope -->
<g id="node13" class="node">
<title>slope</title>
<polygon fill="none" stroke="black" points="325,-313.91 211,-313.91 211,-260.91 325,-260.91 325,-313.91"/>
<text text-anchor="middle" x="268" y="-298.71" font-family="Times,serif" font-size="14.00">slope</text>
<text text-anchor="middle" x="268" y="-283.71" font-family="Times,serif" font-size="14.00">~</text>
<text text-anchor="middle" x="268" y="-268.71" font-family="Times,serif" font-size="14.00">Deterministic</text>
</g>
<!-- β1&#45;&gt;slope -->
<g id="edge11" class="edge">
<title>β1&#45;&gt;slope</title>
<path fill="none" stroke="black" d="M162.38,-356.37C171.69,-347.32 182.38,-337.73 193,-329.91 197.95,-326.26 203.27,-322.71 208.69,-319.32"/>
<polygon fill="black" stroke="black" points="210.52,-322.3 217.26,-314.13 206.9,-316.31 210.52,-322.3"/>
</g>
<!-- σ_u1 -->
<g id="node6" class="node">
<title>σ_u1</title>
<polygon fill="none" stroke="black" points="378,-516.88 264,-516.88 264,-463.88 378,-463.88 378,-516.88"/>
<text text-anchor="middle" x="321" y="-501.68" font-family="Times,serif" font-size="14.00">σ_u1</text>
<text text-anchor="middle" x="321" y="-486.68" font-family="Times,serif" font-size="14.00">~</text>
<text text-anchor="middle" x="321" y="-471.68" font-family="Times,serif" font-size="14.00">Deterministic</text>
</g>
<!-- L -->
<g id="node7" class="node">
<title>L</title>
<ellipse fill="none" stroke="black" cx="252" cy="-601.36" rx="98.99" ry="37.45"/>
<text text-anchor="middle" x="252" y="-612.66" font-family="Times,serif" font-size="14.00">L</text>
<text text-anchor="middle" x="252" y="-597.66" font-family="Times,serif" font-size="14.00">~</text>
<text text-anchor="middle" x="252" y="-582.66" font-family="Times,serif" font-size="14.00">_LKJCholeskyCov</text>
</g>
<!-- L&#45;&gt;ρ_u -->
<g id="edge7" class="edge">
<title>L&#45;&gt;ρ_u</title>
<path fill="none" stroke="black" d="M197.68,-570C170.85,-555.01 138.55,-536.96 111.67,-521.94"/>
<polygon fill="black" stroke="black" points="113.22,-518.79 102.78,-516.97 109.8,-524.9 113.22,-518.79"/>
</g>
<!-- L&#45;&gt;σ_u0 -->
<g id="edge4" class="edge">
<title>L&#45;&gt;σ_u0</title>
<path fill="none" stroke="black" d="M231.37,-564.68C224.15,-552.19 216.06,-538.2 208.91,-525.82"/>
<polygon fill="black" stroke="black" points="211.92,-524.03 203.88,-517.13 205.86,-527.54 211.92,-524.03"/>
</g>
<!-- L&#45;&gt;σ_u1 -->
<g id="edge6" class="edge">
<title>L&#45;&gt;σ_u1</title>
<path fill="none" stroke="black" d="M274.59,-564.68C282.5,-552.19 291.36,-538.2 299.2,-525.82"/>
<polygon fill="black" stroke="black" points="302.31,-527.45 304.7,-517.13 296.39,-523.7 302.31,-527.45"/>
</g>
<!-- u -->
<g id="node9" class="node">
<title>u</title>
<polygon fill="none" stroke="black" points="510,-516.88 396,-516.88 396,-463.88 510,-463.88 510,-516.88"/>
<text text-anchor="middle" x="453" y="-501.68" font-family="Times,serif" font-size="14.00">u</text>
<text text-anchor="middle" x="453" y="-486.68" font-family="Times,serif" font-size="14.00">~</text>
<text text-anchor="middle" x="453" y="-471.68" font-family="Times,serif" font-size="14.00">Deterministic</text>
</g>
<!-- L&#45;&gt;u -->
<g id="edge2" class="edge">
<title>L&#45;&gt;u</title>
<path fill="none" stroke="black" d="M307.46,-570.29C335.35,-555.17 369.07,-536.89 397.04,-521.73"/>
<polygon fill="black" stroke="black" points="398.77,-524.76 405.9,-516.92 395.44,-518.61 398.77,-524.76"/>
</g>
<!-- u_raw -->
<g id="node8" class="node">
<title>u_raw</title>
<ellipse fill="none" stroke="black" cx="453" cy="-601.36" rx="49.49" ry="37.45"/>
<text text-anchor="middle" x="453" y="-612.66" font-family="Times,serif" font-size="14.00">u_raw</text>
<text text-anchor="middle" x="453" y="-597.66" font-family="Times,serif" font-size="14.00">~</text>
<text text-anchor="middle" x="453" y="-582.66" font-family="Times,serif" font-size="14.00">Normal</text>
</g>
<!-- u_raw&#45;&gt;u -->
<g id="edge1" class="edge">
<title>u_raw&#45;&gt;u</title>
<path fill="none" stroke="black" d="M453,-563.77C453,-552.03 453,-539.04 453,-527.35"/>
<polygon fill="black" stroke="black" points="456.5,-527.04 453,-517.04 449.5,-527.04 456.5,-527.04"/>
</g>
<!-- u0 -->
<g id="node10" class="node">
<title>u0</title>
<polygon fill="none" stroke="black" points="564,-413.91 450,-413.91 450,-360.91 564,-360.91 564,-413.91"/>
<text text-anchor="middle" x="507" y="-398.71" font-family="Times,serif" font-size="14.00">u0</text>
<text text-anchor="middle" x="507" y="-383.71" font-family="Times,serif" font-size="14.00">~</text>
<text text-anchor="middle" x="507" y="-368.71" font-family="Times,serif" font-size="14.00">Deterministic</text>
</g>
<!-- u&#45;&gt;u0 -->
<g id="edge3" class="edge">
<title>u&#45;&gt;u0</title>
<path fill="none" stroke="black" d="M466.77,-463.64C473.37,-451.3 481.37,-436.33 488.49,-423.01"/>
<polygon fill="black" stroke="black" points="491.63,-424.57 493.26,-414.1 485.46,-421.27 491.63,-424.57"/>
</g>
<!-- u1 -->
<g id="node11" class="node">
<title>u1</title>
<polygon fill="none" stroke="black" points="432,-413.91 318,-413.91 318,-360.91 432,-360.91 432,-413.91"/>
<text text-anchor="middle" x="375" y="-398.71" font-family="Times,serif" font-size="14.00">u1</text>
<text text-anchor="middle" x="375" y="-383.71" font-family="Times,serif" font-size="14.00">~</text>
<text text-anchor="middle" x="375" y="-368.71" font-family="Times,serif" font-size="14.00">Deterministic</text>
</g>
<!-- u&#45;&gt;u1 -->
<g id="edge5" class="edge">
<title>u&#45;&gt;u1</title>
<path fill="none" stroke="black" d="M433.12,-463.64C423.4,-451.06 411.58,-435.76 401.14,-422.24"/>
<polygon fill="black" stroke="black" points="403.73,-419.88 394.85,-414.1 398.19,-424.16 403.73,-419.88"/>
</g>
<!-- u0&#45;&gt;intercept -->
<g id="edge8" class="edge">
<title>u0&#45;&gt;intercept</title>
<path fill="none" stroke="black" d="M478.89,-360.66C465.62,-348.5 449.63,-333.87 435.54,-320.95"/>
<polygon fill="black" stroke="black" points="437.66,-318.16 427.93,-313.98 432.94,-323.32 437.66,-318.16"/>
</g>
<!-- u1&#45;&gt;slope -->
<g id="edge10" class="edge">
<title>u1&#45;&gt;slope</title>
<path fill="none" stroke="black" d="M346.89,-360.66C333.62,-348.5 317.63,-333.87 303.54,-320.95"/>
<polygon fill="black" stroke="black" points="305.66,-318.16 295.93,-313.98 300.94,-323.32 305.66,-318.16"/>
</g>
<!-- μ -->
<g id="node15" class="node">
<title>μ</title>
<polygon fill="none" stroke="black" points="326,-213.93 212,-213.93 212,-160.93 326,-160.93 326,-213.93"/>
<text text-anchor="middle" x="269" y="-198.73" font-family="Times,serif" font-size="14.00">μ</text>
<text text-anchor="middle" x="269" y="-183.73" font-family="Times,serif" font-size="14.00">~</text>
<text text-anchor="middle" x="269" y="-168.73" font-family="Times,serif" font-size="14.00">Deterministic</text>
</g>
<!-- intercept&#45;&gt;μ -->
<g id="edge12" class="edge">
<title>intercept&#45;&gt;μ</title>
<path fill="none" stroke="black" d="M365.58,-260.66C349.03,-248.29 329.04,-233.34 311.55,-220.25"/>
<polygon fill="black" stroke="black" points="313.29,-217.19 303.19,-214 309.1,-222.79 313.29,-217.19"/>
</g>
<!-- slope&#45;&gt;μ -->
<g id="edge13" class="edge">
<title>slope&#45;&gt;μ</title>
<path fill="none" stroke="black" d="M268.26,-260.66C268.38,-249.53 268.51,-236.3 268.63,-224.23"/>
<polygon fill="black" stroke="black" points="272.14,-224.04 268.74,-214 265.14,-223.96 272.14,-224.04"/>
</g>
<!-- y&#45;&gt;y -->
<g id="edge16" class="edge">
<title>y&#45;&gt;y</title>
<path fill="none" stroke="black" d="M305.52,-97.1C319.89,-97.31 331.5,-90.44 331.5,-76.48 331.5,-66 324.97,-59.52 315.64,-57.02"/>
<polygon fill="black" stroke="black" points="315.86,-53.52 305.52,-55.86 315.06,-60.48 315.86,-53.52"/>
</g>
<!-- μ&#45;&gt;y -->
<g id="edge15" class="edge">
<title>μ&#45;&gt;y</title>
<path fill="none" stroke="black" d="M267.83,-160.89C267.33,-149.98 266.73,-136.89 266.15,-124.35"/>
<polygon fill="black" stroke="black" points="269.63,-123.83 265.68,-114 262.64,-124.15 269.63,-123.83"/>
</g>
</g>
</svg>
