<?xml version="1.0" encoding="UTF-8" standalone="no"?>
<!DOCTYPE svg PUBLIC "-//W3C//DTD SVG 1.1//EN"
 "http://www.w3.org/Graphics/SVG/1.1/DTD/svg11.dtd">
<!-- Generated by graphviz version 3.0.0 (20220315.2325)
 -->
<!-- Pages: 1 -->
<svg width="856pt" height="974pt"
 viewBox="0.00 0.00 856.00 973.79" xmlns="http://www.w3.org/2000/svg" xmlns:xlink="http://www.w3.org/1999/xlink">
<g id="graph0" class="graph" transform="scale(1 1) rotate(0) translate(4 969.79)">
<polygon fill="white" stroke="transparent" points="-4,4 -4,-969.79 852,-969.79 852,4 -4,4"/>
<g id="clust1" class="cluster">
<title>clustereffect (2)</title>
<path fill="none" stroke="black" d="M265,-843.84C265,-843.84 369,-843.84 369,-843.84 375,-843.84 381,-849.84 381,-855.84 381,-855.84 381,-945.79 381,-945.79 381,-951.79 375,-957.79 369,-957.79 369,-957.79 265,-957.79 265,-957.79 259,-957.79 253,-951.79 253,-945.79 253,-945.79 253,-855.84 253,-855.84 253,-849.84 259,-843.84 265,-843.84"/>
<text text-anchor="middle" x="341" y="-851.64" font-family="Times,serif" font-size="14.00">effect (2)</text>
</g>
<g id="clust2" class="cluster">
<title>cluster2</title>
<path fill="none" stroke="black" d="M202,-732.86C202,-732.86 308,-732.86 308,-732.86 314,-732.86 320,-738.86 320,-744.86 320,-744.86 320,-812.86 320,-812.86 320,-818.86 314,-824.86 308,-824.86 308,-824.86 202,-824.86 202,-824.86 196,-824.86 190,-818.86 190,-812.86 190,-812.86 190,-744.86 190,-744.86 190,-738.86 196,-732.86 202,-732.86"/>
<text text-anchor="middle" x="307" y="-740.66" font-family="Times,serif" font-size="14.00">2</text>
</g>
<g id="clust3" class="cluster">
<title>cluster1</title>
<path fill="none" stroke="black" d="M405,-721.88C405,-721.88 501,-721.88 501,-721.88 507,-721.88 513,-727.88 513,-733.88 513,-733.88 513,-823.84 513,-823.84 513,-829.84 507,-835.84 501,-835.84 501,-835.84 405,-835.84 405,-835.84 399,-835.84 393,-829.84 393,-823.84 393,-823.84 393,-733.88 393,-733.88 393,-727.88 399,-721.88 405,-721.88"/>
<text text-anchor="middle" x="500" y="-729.68" font-family="Times,serif" font-size="14.00">1</text>
</g>
<g id="clust4" class="cluster">
<title>cluster2 x 2</title>
<path fill="none" stroke="black" d="M268,-521.91C268,-521.91 506,-521.91 506,-521.91 512,-521.91 518,-527.91 518,-533.91 518,-533.91 518,-701.88 518,-701.88 518,-707.88 512,-713.88 506,-713.88 506,-713.88 268,-713.88 268,-713.88 262,-713.88 256,-707.88 256,-701.88 256,-701.88 256,-533.91 256,-533.91 256,-527.91 262,-521.91 268,-521.91"/>
<text text-anchor="middle" x="492" y="-529.71" font-family="Times,serif" font-size="14.00">2 x 2</text>
</g>
<g id="clust5" class="cluster">
<title>clustereffect (2) x subject (18)</title>
<path fill="none" stroke="black" d="M660,-510.93C660,-510.93 818,-510.93 818,-510.93 824,-510.93 830,-516.93 830,-522.93 830,-522.93 830,-612.88 830,-612.88 830,-618.88 824,-624.88 818,-624.88 818,-624.88 660,-624.88 660,-624.88 654,-624.88 648,-618.88 648,-612.88 648,-612.88 648,-522.93 648,-522.93 648,-516.93 654,-510.93 660,-510.93"/>
<text text-anchor="middle" x="739" y="-518.73" font-family="Times,serif" font-size="14.00">effect (2) x subject (18)</text>
</g>
<g id="clust6" class="cluster">
<title>clustersubject (18) x effect (2)</title>
<path fill="none" stroke="black" d="M409,-410.93C409,-410.93 567,-410.93 567,-410.93 573,-410.93 579,-416.93 579,-422.93 579,-422.93 579,-490.93 579,-490.93 579,-496.93 573,-502.93 567,-502.93 567,-502.93 409,-502.93 409,-502.93 403,-502.93 397,-496.93 397,-490.93 397,-490.93 397,-422.93 397,-422.93 397,-416.93 403,-410.93 409,-410.93"/>
<text text-anchor="middle" x="488" y="-418.73" font-family="Times,serif" font-size="14.00">subject (18) x effect (2)</text>
</g>
<g id="clust7" class="cluster">
<title>clustersubject (18)</title>
<path fill="none" stroke="black" d="M341,-307.95C341,-307.95 579,-307.95 579,-307.95 585,-307.95 591,-313.95 591,-319.95 591,-319.95 591,-387.95 591,-387.95 591,-393.95 585,-399.95 579,-399.95 579,-399.95 341,-399.95 341,-399.95 335,-399.95 329,-393.95 329,-387.95 329,-387.95 329,-319.95 329,-319.95 329,-313.95 335,-307.95 341,-307.95"/>
<text text-anchor="middle" x="540.5" y="-315.75" font-family="Times,serif" font-size="14.00">subject (18)</text>
</g>
<g id="clust8" class="cluster">
<title>cluster180</title>
<path fill="none" stroke="black" d="M578,-8C578,-8 816,-8 816,-8 822,-8 828,-14 828,-20 828,-20 828,-287.95 828,-287.95 828,-293.95 822,-299.95 816,-299.95 816,-299.95 578,-299.95 578,-299.95 572,-299.95 566,-293.95 566,-287.95 566,-287.95 566,-20 566,-20 566,-14 572,-8 578,-8"/>
<text text-anchor="middle" x="806" y="-15.8" font-family="Times,serif" font-size="14.00">180</text>
</g>
<!-- σ -->
<g id="node1" class="node">
<title>σ</title>
<ellipse fill="none" stroke="black" cx="659" cy="-912.31" rx="79.81" ry="37.45"/>
<text text-anchor="middle" x="659" y="-923.61" font-family="Times,serif" font-size="14.00">σ</text>
<text text-anchor="middle" x="659" y="-908.61" font-family="Times,serif" font-size="14.00">~</text>
<text text-anchor="middle" x="659" y="-893.61" font-family="Times,serif" font-size="14.00">HalfStudentT</text>
</g>
<!-- b_σ -->
<g id="node9" class="node">
<title>b_σ</title>
<polygon fill="none" stroke="black" points="312,-816.86 198,-816.86 198,-763.86 312,-763.86 312,-816.86"/>
<text text-anchor="middle" x="255" y="-801.66" font-family="Times,serif" font-size="14.00">b_σ</text>
<text text-anchor="middle" x="255" y="-786.66" font-family="Times,serif" font-size="14.00">~</text>
<text text-anchor="middle" x="255" y="-771.66" font-family="Times,serif" font-size="14.00">Deterministic</text>
</g>
<!-- σ&#45;&gt;b_σ -->
<g id="edge2" class="edge">
<title>σ&#45;&gt;b_σ</title>
<path fill="none" stroke="black" d="M590.21,-893.06C535.49,-878.3 457.08,-856.64 389,-835.84 367.05,-829.13 343.22,-821.38 321.83,-814.24"/>
<polygon fill="black" stroke="black" points="322.78,-810.87 312.19,-811.01 320.56,-817.51 322.78,-810.87"/>
</g>
<!-- y -->
<g id="node20" class="node">
<title>y</title>
<ellipse fill="lightgrey" stroke="black" cx="753" cy="-76.48" rx="49.49" ry="37.45"/>
<text text-anchor="middle" x="753" y="-87.78" font-family="Times,serif" font-size="14.00">y</text>
<text text-anchor="middle" x="753" y="-72.78" font-family="Times,serif" font-size="14.00">~</text>
<text text-anchor="middle" x="753" y="-57.78" font-family="Times,serif" font-size="14.00">Normal</text>
</g>
<!-- σ&#45;&gt;y -->
<g id="edge21" class="edge">
<title>σ&#45;&gt;y</title>
<path fill="none" stroke="black" d="M706.69,-881.82C762.68,-843.11 848,-769.49 848,-680.38 848,-680.38 848,-680.38 848,-264.45 848,-211.96 843.86,-196.19 819,-149.95 811.86,-136.68 801.76,-123.92 791.61,-112.9"/>
<polygon fill="black" stroke="black" points="794.04,-110.38 784.6,-105.56 788.98,-115.21 794.04,-110.38"/>
</g>
<!-- ρ_u -->
<g id="node2" class="node">
<title>ρ_u</title>
<polygon fill="none" stroke="black" points="640,-605.91 526,-605.91 526,-552.91 640,-552.91 640,-605.91"/>
<text text-anchor="middle" x="583" y="-590.71" font-family="Times,serif" font-size="14.00">ρ_u</text>
<text text-anchor="middle" x="583" y="-575.71" font-family="Times,serif" font-size="14.00">~</text>
<text text-anchor="middle" x="583" y="-560.71" font-family="Times,serif" font-size="14.00">Deterministic</text>
</g>
<!-- τ -->
<g id="node3" class="node">
<title>τ</title>
<ellipse fill="none" stroke="black" cx="193" cy="-912.31" rx="50.41" ry="37.45"/>
<text text-anchor="middle" x="193" y="-923.61" font-family="Times,serif" font-size="14.00">τ</text>
<text text-anchor="middle" x="193" y="-908.61" font-family="Times,serif" font-size="14.00">~</text>
<text text-anchor="middle" x="193" y="-893.61" font-family="Times,serif" font-size="14.00">Gamma</text>
</g>
<!-- τ&#45;&gt;b_σ -->
<g id="edge1" class="edge">
<title>τ&#45;&gt;b_σ</title>
<path fill="none" stroke="black" d="M210.77,-876.94C219.02,-860.97 228.82,-842.01 237.09,-826.01"/>
<polygon fill="black" stroke="black" points="240.28,-827.46 241.76,-816.97 234.06,-824.24 240.28,-827.46"/>
</g>
<!-- σ_u0 -->
<g id="node4" class="node">
<title>σ_u0</title>
<polygon fill="none" stroke="black" points="246,-705.88 132,-705.88 132,-652.88 246,-652.88 246,-705.88"/>
<text text-anchor="middle" x="189" y="-690.68" font-family="Times,serif" font-size="14.00">σ_u0</text>
<text text-anchor="middle" x="189" y="-675.68" font-family="Times,serif" font-size="14.00">~</text>
<text text-anchor="middle" x="189" y="-660.68" font-family="Times,serif" font-size="14.00">Deterministic</text>
</g>
<!-- β0 -->
<g id="node5" class="node">
<title>β0</title>
<ellipse fill="none" stroke="black" cx="650" cy="-365.45" rx="49.49" ry="37.45"/>
<text text-anchor="middle" x="650" y="-376.75" font-family="Times,serif" font-size="14.00">β0</text>
<text text-anchor="middle" x="650" y="-361.75" font-family="Times,serif" font-size="14.00">~</text>
<text text-anchor="middle" x="650" y="-346.75" font-family="Times,serif" font-size="14.00">Normal</text>
</g>
<!-- intercept -->
<g id="node18" class="node">
<title>intercept</title>
<polygon fill="none" stroke="black" points="688,-291.95 574,-291.95 574,-238.95 688,-238.95 688,-291.95"/>
<text text-anchor="middle" x="631" y="-276.75" font-family="Times,serif" font-size="14.00">intercept</text>
<text text-anchor="middle" x="631" y="-261.75" font-family="Times,serif" font-size="14.00">~</text>
<text text-anchor="middle" x="631" y="-246.75" font-family="Times,serif" font-size="14.00">Deterministic</text>
</g>
<!-- β0&#45;&gt;intercept -->
<g id="edge16" class="edge">
<title>β0&#45;&gt;intercept</title>
<path fill="none" stroke="black" d="M642.98,-328.24C641.33,-319.71 639.56,-310.63 637.92,-302.12"/>
<polygon fill="black" stroke="black" points="641.31,-301.27 635.98,-292.12 634.44,-302.6 641.31,-301.27"/>
</g>
<!-- β1 -->
<g id="node6" class="node">
<title>β1</title>
<ellipse fill="none" stroke="black" cx="767" cy="-365.45" rx="49.49" ry="37.45"/>
<text text-anchor="middle" x="767" y="-376.75" font-family="Times,serif" font-size="14.00">β1</text>
<text text-anchor="middle" x="767" y="-361.75" font-family="Times,serif" font-size="14.00">~</text>
<text text-anchor="middle" x="767" y="-346.75" font-family="Times,serif" font-size="14.00">Normal</text>
</g>
<!-- slope -->
<g id="node19" class="node">
<title>slope</title>
<polygon fill="none" stroke="black" points="820,-291.95 706,-291.95 706,-238.95 820,-238.95 820,-291.95"/>
<text text-anchor="middle" x="763" y="-276.75" font-family="Times,serif" font-size="14.00">slope</text>
<text text-anchor="middle" x="763" y="-261.75" font-family="Times,serif" font-size="14.00">~</text>
<text text-anchor="middle" x="763" y="-246.75" font-family="Times,serif" font-size="14.00">Deterministic</text>
</g>
<!-- β1&#45;&gt;slope -->
<g id="edge18" class="edge">
<title>β1&#45;&gt;slope</title>
<path fill="none" stroke="black" d="M765.51,-327.96C765.17,-319.54 764.8,-310.6 764.46,-302.21"/>
<polygon fill="black" stroke="black" points="767.95,-301.82 764.04,-291.97 760.95,-302.1 767.95,-301.82"/>
</g>
<!-- σ_u1 -->
<g id="node7" class="node">
<title>σ_u1</title>
<polygon fill="none" stroke="black" points="114,-705.88 0,-705.88 0,-652.88 114,-652.88 114,-705.88"/>
<text text-anchor="middle" x="57" y="-690.68" font-family="Times,serif" font-size="14.00">σ_u1</text>
<text text-anchor="middle" x="57" y="-675.68" font-family="Times,serif" font-size="14.00">~</text>
<text text-anchor="middle" x="57" y="-660.68" font-family="Times,serif" font-size="14.00">Deterministic</text>
</g>
<!-- π -->
<g id="node8" class="node">
<title>π</title>
<ellipse fill="none" stroke="black" cx="317" cy="-912.31" rx="55.72" ry="37.45"/>
<text text-anchor="middle" x="317" y="-923.61" font-family="Times,serif" font-size="14.00">π</text>
<text text-anchor="middle" x="317" y="-908.61" font-family="Times,serif" font-size="14.00">~</text>
<text text-anchor="middle" x="317" y="-893.61" font-family="Times,serif" font-size="14.00">Dirichlet</text>
</g>
<!-- π&#45;&gt;b_σ -->
<g id="edge3" class="edge">
<title>π&#45;&gt;b_σ</title>
<path fill="none" stroke="black" d="M299.07,-876.62C290.88,-860.77 281.19,-842.04 272.99,-826.18"/>
<polygon fill="black" stroke="black" points="276.06,-824.49 268.36,-817.21 269.84,-827.7 276.06,-824.49"/>
</g>
<!-- b_σ&#45;&gt;σ_u0 -->
<g id="edge11" class="edge">
<title>b_σ&#45;&gt;σ_u0</title>
<path fill="none" stroke="black" d="M239.53,-763.81C230.74,-749.3 219.61,-730.92 210.03,-715.11"/>
<polygon fill="black" stroke="black" points="212.78,-712.89 204.61,-706.15 206.79,-716.52 212.78,-712.89"/>
</g>
<!-- b_σ&#45;&gt;σ_u1 -->
<g id="edge13" class="edge">
<title>b_σ&#45;&gt;σ_u1</title>
<path fill="none" stroke="black" d="M208.58,-763.81C179.76,-747.95 142.57,-727.48 112.24,-710.79"/>
<polygon fill="black" stroke="black" points="113.92,-707.72 103.47,-705.96 110.55,-713.85 113.92,-707.72"/>
</g>
<!-- σ_u_diagonal -->
<g id="node11" class="node">
<title>σ_u_diagonal</title>
<polygon fill="none" stroke="black" points="378,-705.88 264,-705.88 264,-652.88 378,-652.88 378,-705.88"/>
<text text-anchor="middle" x="321" y="-690.68" font-family="Times,serif" font-size="14.00">σ_u_diagonal</text>
<text text-anchor="middle" x="321" y="-675.68" font-family="Times,serif" font-size="14.00">~</text>
<text text-anchor="middle" x="321" y="-660.68" font-family="Times,serif" font-size="14.00">Deterministic</text>
</g>
<!-- b_σ&#45;&gt;σ_u_diagonal -->
<g id="edge5" class="edge">
<title>b_σ&#45;&gt;σ_u_diagonal</title>
<path fill="none" stroke="black" d="M270.47,-763.81C279.26,-749.3 290.39,-730.92 299.97,-715.11"/>
<polygon fill="black" stroke="black" points="303.21,-716.52 305.39,-706.15 297.22,-712.89 303.21,-716.52"/>
</g>
<!-- Ω_triu -->
<g id="node10" class="node">
<title>Ω_triu</title>
<ellipse fill="none" stroke="black" cx="453" cy="-790.36" rx="52.15" ry="37.45"/>
<text text-anchor="middle" x="453" y="-801.66" font-family="Times,serif" font-size="14.00">Ω_triu</text>
<text text-anchor="middle" x="453" y="-786.66" font-family="Times,serif" font-size="14.00">~</text>
<text text-anchor="middle" x="453" y="-771.66" font-family="Times,serif" font-size="14.00">LKJCorr</text>
</g>
<!-- Ω -->
<g id="node13" class="node">
<title>Ω</title>
<polygon fill="none" stroke="black" points="510,-705.88 396,-705.88 396,-652.88 510,-652.88 510,-705.88"/>
<text text-anchor="middle" x="453" y="-690.68" font-family="Times,serif" font-size="14.00">Ω</text>
<text text-anchor="middle" x="453" y="-675.68" font-family="Times,serif" font-size="14.00">~</text>
<text text-anchor="middle" x="453" y="-660.68" font-family="Times,serif" font-size="14.00">Deterministic</text>
</g>
<!-- Ω_triu&#45;&gt;Ω -->
<g id="edge4" class="edge">
<title>Ω_triu&#45;&gt;Ω</title>
<path fill="none" stroke="black" d="M453,-752.77C453,-741.03 453,-728.04 453,-716.35"/>
<polygon fill="black" stroke="black" points="456.5,-716.04 453,-706.04 449.5,-716.04 456.5,-716.04"/>
</g>
<!-- L -->
<g id="node12" class="node">
<title>L</title>
<polygon fill="none" stroke="black" points="508,-605.91 394,-605.91 394,-552.91 508,-552.91 508,-605.91"/>
<text text-anchor="middle" x="451" y="-590.71" font-family="Times,serif" font-size="14.00">L</text>
<text text-anchor="middle" x="451" y="-575.71" font-family="Times,serif" font-size="14.00">~</text>
<text text-anchor="middle" x="451" y="-560.71" font-family="Times,serif" font-size="14.00">Deterministic</text>
</g>
<!-- σ_u_diagonal&#45;&gt;L -->
<g id="edge6" class="edge">
<title>σ_u_diagonal&#45;&gt;L</title>
<path fill="none" stroke="black" d="M355.16,-652.64C371.58,-640.27 391.42,-625.31 408.78,-612.23"/>
<polygon fill="black" stroke="black" points="411.19,-614.79 417.07,-605.98 406.98,-609.2 411.19,-614.79"/>
</g>
<!-- u -->
<g id="node15" class="node">
<title>u</title>
<polygon fill="none" stroke="black" points="545,-494.93 431,-494.93 431,-441.93 545,-441.93 545,-494.93"/>
<text text-anchor="middle" x="488" y="-479.73" font-family="Times,serif" font-size="14.00">u</text>
<text text-anchor="middle" x="488" y="-464.73" font-family="Times,serif" font-size="14.00">~</text>
<text text-anchor="middle" x="488" y="-449.73" font-family="Times,serif" font-size="14.00">Deterministic</text>
</g>
<!-- L&#45;&gt;u -->
<g id="edge9" class="edge">
<title>L&#45;&gt;u</title>
<path fill="none" stroke="black" d="M459.67,-552.86C464.51,-538.61 470.61,-520.65 475.91,-505.05"/>
<polygon fill="black" stroke="black" points="479.35,-505.79 479.25,-495.2 472.72,-503.54 479.35,-505.79"/>
</g>
<!-- Ω&#45;&gt;ρ_u -->
<g id="edge14" class="edge">
<title>Ω&#45;&gt;ρ_u</title>
<path fill="none" stroke="black" d="M487.16,-652.64C503.58,-640.27 523.42,-625.31 540.78,-612.23"/>
<polygon fill="black" stroke="black" points="543.19,-614.79 549.07,-605.98 538.98,-609.2 543.19,-614.79"/>
</g>
<!-- Ω&#45;&gt;L -->
<g id="edge7" class="edge">
<title>Ω&#45;&gt;L</title>
<path fill="none" stroke="black" d="M452.47,-652.64C452.25,-641.5 451.98,-628.28 451.73,-616.21"/>
<polygon fill="black" stroke="black" points="455.23,-615.9 451.52,-605.98 448.23,-616.05 455.23,-615.9"/>
</g>
<!-- u_raw -->
<g id="node14" class="node">
<title>u_raw</title>
<ellipse fill="none" stroke="black" cx="707" cy="-579.41" rx="49.49" ry="37.45"/>
<text text-anchor="middle" x="707" y="-590.71" font-family="Times,serif" font-size="14.00">u_raw</text>
<text text-anchor="middle" x="707" y="-575.71" font-family="Times,serif" font-size="14.00">~</text>
<text text-anchor="middle" x="707" y="-560.71" font-family="Times,serif" font-size="14.00">Normal</text>
</g>
<!-- u_raw&#45;&gt;u -->
<g id="edge8" class="edge">
<title>u_raw&#45;&gt;u</title>
<path fill="none" stroke="black" d="M685.46,-545.66C675.7,-533.13 663.17,-519.74 649,-510.93 620.92,-493.46 585.74,-483.32 555.43,-477.44"/>
<polygon fill="black" stroke="black" points="555.82,-473.95 545.35,-475.61 554.56,-480.84 555.82,-473.95"/>
</g>
<!-- u0 -->
<g id="node16" class="node">
<title>u0</title>
<polygon fill="none" stroke="black" points="451,-391.95 337,-391.95 337,-338.95 451,-338.95 451,-391.95"/>
<text text-anchor="middle" x="394" y="-376.75" font-family="Times,serif" font-size="14.00">u0</text>
<text text-anchor="middle" x="394" y="-361.75" font-family="Times,serif" font-size="14.00">~</text>
<text text-anchor="middle" x="394" y="-346.75" font-family="Times,serif" font-size="14.00">Deterministic</text>
</g>
<!-- u&#45;&gt;u0 -->
<g id="edge10" class="edge">
<title>u&#45;&gt;u0</title>
<path fill="none" stroke="black" d="M464.04,-441.69C452.1,-428.87 437.54,-413.22 424.79,-399.53"/>
<polygon fill="black" stroke="black" points="427.3,-397.08 417.92,-392.15 422.17,-401.85 427.3,-397.08"/>
</g>
<!-- u1 -->
<g id="node17" class="node">
<title>u1</title>
<polygon fill="none" stroke="black" points="583,-391.95 469,-391.95 469,-338.95 583,-338.95 583,-391.95"/>
<text text-anchor="middle" x="526" y="-376.75" font-family="Times,serif" font-size="14.00">u1</text>
<text text-anchor="middle" x="526" y="-361.75" font-family="Times,serif" font-size="14.00">~</text>
<text text-anchor="middle" x="526" y="-346.75" font-family="Times,serif" font-size="14.00">Deterministic</text>
</g>
<!-- u&#45;&gt;u1 -->
<g id="edge12" class="edge">
<title>u&#45;&gt;u1</title>
<path fill="none" stroke="black" d="M497.69,-441.69C502.24,-429.58 507.75,-414.95 512.69,-401.83"/>
<polygon fill="black" stroke="black" points="516.08,-402.74 516.33,-392.15 509.53,-400.27 516.08,-402.74"/>
</g>
<!-- u0&#45;&gt;intercept -->
<g id="edge15" class="edge">
<title>u0&#45;&gt;intercept</title>
<path fill="none" stroke="black" d="M418.26,-338.82C429.93,-327.85 444.69,-315.79 460,-307.95 492.28,-291.43 531.4,-281.31 564.07,-275.2"/>
<polygon fill="black" stroke="black" points="564.76,-278.63 573.99,-273.43 563.53,-271.74 564.76,-278.63"/>
</g>
<!-- u1&#45;&gt;slope -->
<g id="edge17" class="edge">
<title>u1&#45;&gt;slope</title>
<path fill="none" stroke="black" d="M548.52,-338.83C560.24,-327.29 575.55,-314.75 592,-307.95 635.25,-290.07 651.93,-312.57 697,-299.95 701.04,-298.82 705.12,-297.44 709.16,-295.88"/>
<polygon fill="black" stroke="black" points="710.63,-299.06 718.51,-291.97 707.93,-292.6 710.63,-299.06"/>
</g>
<!-- μ -->
<g id="node21" class="node">
<title>μ</title>
<polygon fill="none" stroke="black" points="810,-202.95 696,-202.95 696,-149.95 810,-149.95 810,-202.95"/>
<text text-anchor="middle" x="753" y="-187.75" font-family="Times,serif" font-size="14.00">μ</text>
<text text-anchor="middle" x="753" y="-172.75" font-family="Times,serif" font-size="14.00">~</text>
<text text-anchor="middle" x="753" y="-157.75" font-family="Times,serif" font-size="14.00">Deterministic</text>
</g>
<!-- intercept&#45;&gt;μ -->
<g id="edge19" class="edge">
<title>intercept&#45;&gt;μ</title>
<path fill="none" stroke="black" d="M666.94,-238.82C679.98,-229.52 694.87,-218.91 708.55,-209.15"/>
<polygon fill="black" stroke="black" points="710.78,-211.86 716.89,-203.2 706.72,-206.16 710.78,-211.86"/>
</g>
<!-- slope&#45;&gt;μ -->
<g id="edge20" class="edge">
<title>slope&#45;&gt;μ</title>
<path fill="none" stroke="black" d="M760.05,-238.82C759.14,-230.84 758.11,-221.89 757.12,-213.34"/>
<polygon fill="black" stroke="black" points="760.58,-212.74 755.96,-203.2 753.62,-213.54 760.58,-212.74"/>
</g>
<!-- y&#45;&gt;y -->
<g id="edge23" class="edge">
<title>y&#45;&gt;y</title>
<path fill="none" stroke="black" d="M796.17,-94.84C809.77,-94.56 820.5,-88.44 820.5,-76.48 820.5,-67.69 814.71,-62.06 806.25,-59.57"/>
<polygon fill="black" stroke="black" points="806.57,-56.08 796.17,-58.11 805.57,-63.01 806.57,-56.08"/>
</g>
<!-- μ&#45;&gt;y -->
<g id="edge22" class="edge">
<title>μ&#45;&gt;y</title>
<path fill="none" stroke="black" d="M753,-149.71C753,-141.89 753,-133.03 753,-124.27"/>
<polygon fill="black" stroke="black" points="756.5,-124.1 753,-114.1 749.5,-124.1 756.5,-124.1"/>
</g>
</g>
</svg>
