<?xml version="1.0" encoding="UTF-8" standalone="no"?>
<!DOCTYPE svg PUBLIC "-//W3C//DTD SVG 1.1//EN"
 "http://www.w3.org/Graphics/SVG/1.1/DTD/svg11.dtd">
<!-- Generated by graphviz version 2.50.0 (0)
 -->
<!-- Pages: 1 -->
<svg width="298pt" height="233pt"
 viewBox="0.00 0.00 297.76 232.91" xmlns="http://www.w3.org/2000/svg" xmlns:xlink="http://www.w3.org/1999/xlink">
<g id="graph0" class="graph" transform="scale(1 1) rotate(0) translate(4 228.91)">
<polygon fill="white" stroke="transparent" points="-4,4 -4,-228.91 293.76,-228.91 293.76,4 -4,4"/>
<g id="clust1" class="cluster">
<title>clusterresponse_obs (1000)</title>
<path fill="none" stroke="black" d="M41.69,-8C41.69,-8 229.69,-8 229.69,-8 235.69,-8 241.69,-14 241.69,-20 241.69,-20 241.69,-109.95 241.69,-109.95 241.69,-115.95 235.69,-121.95 229.69,-121.95 229.69,-121.95 41.69,-121.95 41.69,-121.95 35.69,-121.95 29.69,-115.95 29.69,-109.95 29.69,-109.95 29.69,-20 29.69,-20 29.69,-14 35.69,-8 41.69,-8"/>
<text text-anchor="middle" x="159.69" y="-15.8" font-family="Times,serif" font-size="14.00">response_obs (1000)</text>
</g>
<!-- Intercept -->
<g id="node1" class="node">
<title>Intercept</title>
<ellipse fill="none" stroke="black" cx="58.69" cy="-187.43" rx="58.88" ry="37.45"/>
<text text-anchor="middle" x="58.69" y="-198.73" font-family="Times,serif" font-size="14.00">Intercept</text>
<text text-anchor="middle" x="58.69" y="-183.73" font-family="Times,serif" font-size="14.00">~</text>
<text text-anchor="middle" x="58.69" y="-168.73" font-family="Times,serif" font-size="14.00">Normal</text>
</g>
<!-- response -->
<g id="node3" class="node">
<title>response</title>
<ellipse fill="lightgrey" stroke="black" cx="135.69" cy="-76.48" rx="97.66" ry="37.45"/>
<text text-anchor="middle" x="135.69" y="-87.78" font-family="Times,serif" font-size="14.00">response</text>
<text text-anchor="middle" x="135.69" y="-72.78" font-family="Times,serif" font-size="14.00">~</text>
<text text-anchor="middle" x="135.69" y="-57.78" font-family="Times,serif" font-size="14.00">MarginalMixture</text>
</g>
<!-- Intercept&#45;&gt;response -->
<g id="edge1" class="edge">
<title>Intercept&#45;&gt;response</title>
<path fill="none" stroke="black" d="M82.42,-152.85C89.46,-142.89 97.28,-131.82 104.72,-121.3"/>
<polygon fill="black" stroke="black" points="107.66,-123.21 110.57,-113.02 101.94,-119.17 107.66,-123.21"/>
</g>
<!-- response_psi -->
<g id="node2" class="node">
<title>response_psi</title>
<ellipse fill="none" stroke="black" cx="212.69" cy="-187.43" rx="77.15" ry="37.45"/>
<text text-anchor="middle" x="212.69" y="-198.73" font-family="Times,serif" font-size="14.00">response_psi</text>
<text text-anchor="middle" x="212.69" y="-183.73" font-family="Times,serif" font-size="14.00">~</text>
<text text-anchor="middle" x="212.69" y="-168.73" font-family="Times,serif" font-size="14.00">Beta</text>
</g>
<!-- response_psi&#45;&gt;response -->
<g id="edge2" class="edge">
<title>response_psi&#45;&gt;response</title>
<path fill="none" stroke="black" d="M188.11,-151.66C181.31,-142.02 173.83,-131.44 166.7,-121.36"/>
<polygon fill="black" stroke="black" points="169.45,-119.19 160.83,-113.04 163.74,-123.23 169.45,-119.19"/>
</g>
</g>
</svg>
