<?xml version="1.0" encoding="UTF-8" standalone="no"?>
<!DOCTYPE svg PUBLIC "-//W3C//DTD SVG 1.1//EN"
 "http://www.w3.org/Graphics/SVG/1.1/DTD/svg11.dtd">
<!-- Generated by graphviz version 12.2.1 (20250203.1708)
 -->
<!-- Pages: 1 -->
<svg width="412pt" height="600pt"
 viewBox="0.00 0.00 412.01 600.27" xmlns="http://www.w3.org/2000/svg" xmlns:xlink="http://www.w3.org/1999/xlink">
<g id="graph0" class="graph" transform="scale(1 1) rotate(0) translate(4 596.27)">
<polygon fill="white" stroke="none" points="-4,4 -4,-596.27 408.01,-596.27 408.01,4 -4,4"/>
<g id="clust1" class="cluster">
<title>cluster2</title>
<path fill="none" stroke="black" d="M100.01,-361.13C100.01,-361.13 182.01,-361.13 182.01,-361.13 188.01,-361.13 194.01,-367.13 194.01,-373.13 194.01,-373.13 194.01,-470.95 194.01,-470.95 194.01,-476.95 188.01,-482.95 182.01,-482.95 182.01,-482.95 100.01,-482.95 100.01,-482.95 94.01,-482.95 88.01,-476.95 88.01,-470.95 88.01,-470.95 88.01,-373.13 88.01,-373.13 88.01,-367.13 94.01,-361.13 100.01,-361.13"/>
<text text-anchor="middle" x="182.64" y="-368.33" font-family="Times,serif" font-size="14.00">2</text>
</g>
<g id="clust2" class="cluster">
<title>clusterpredictors (5)</title>
<path fill="none" stroke="black" d="M104.01,-231.32C104.01,-231.32 178.01,-231.32 178.01,-231.32 184.01,-231.32 190.01,-237.32 190.01,-243.32 190.01,-243.32 190.01,-341.13 190.01,-341.13 190.01,-347.13 184.01,-353.13 178.01,-353.13 178.01,-353.13 104.01,-353.13 104.01,-353.13 98.01,-353.13 92.01,-347.13 92.01,-341.13 92.01,-341.13 92.01,-243.32 92.01,-243.32 92.01,-237.32 98.01,-231.32 104.01,-231.32"/>
<text text-anchor="middle" x="145.26" y="-238.52" font-family="Times,serif" font-size="14.00">predictors (5)</text>
</g>
<g id="clust3" class="cluster">
<title>clustervillage (65)</title>
<path fill="none" stroke="black" d="M210.01,-231.32C210.01,-231.32 384.01,-231.32 384.01,-231.32 390.01,-231.32 396.01,-237.32 396.01,-243.32 396.01,-243.32 396.01,-341.13 396.01,-341.13 396.01,-347.13 390.01,-353.13 384.01,-353.13 384.01,-353.13 210.01,-353.13 210.01,-353.13 204.01,-353.13 198.01,-347.13 198.01,-341.13 198.01,-341.13 198.01,-243.32 198.01,-243.32 198.01,-237.32 204.01,-231.32 210.01,-231.32"/>
<text text-anchor="middle" x="356.51" y="-238.52" font-family="Times,serif" font-size="14.00">village (65)</text>
</g>
<g id="clust4" class="cluster">
<title>cluster__obs__ (2035)</title>
<path fill="none" stroke="black" d="M98.01,-8C98.01,-8 184.01,-8 184.01,-8 190.01,-8 196.01,-14 196.01,-20 196.01,-20 196.01,-211.32 196.01,-211.32 196.01,-217.32 190.01,-223.32 184.01,-223.32 184.01,-223.32 98.01,-223.32 98.01,-223.32 92.01,-223.32 86.01,-217.32 86.01,-211.32 86.01,-211.32 86.01,-20 86.01,-20 86.01,-14 92.01,-8 98.01,-8"/>
<text text-anchor="middle" x="145.26" y="-15.2" font-family="Times,serif" font-size="14.00">__obs__ (2035)</text>
</g>
<!-- V -->
<g id="node1" class="node">
<title>V</title>
<ellipse fill="none" stroke="black" cx="249.01" cy="-551.61" rx="28.81" ry="40.66"/>
<text text-anchor="middle" x="249.01" y="-563.06" font-family="Times,serif" font-size="14.00">V</text>
<text text-anchor="middle" x="249.01" y="-546.56" font-family="Times,serif" font-size="14.00">~</text>
<text text-anchor="middle" x="249.01" y="-530.06" font-family="Times,serif" font-size="14.00">Beta</text>
</g>
<!-- W -->
<g id="node4" class="node">
<title>W</title>
<polygon fill="none" stroke="black" points="294.14,-463.04 203.89,-463.04 203.89,-405.54 294.14,-405.54 294.14,-463.04"/>
<text text-anchor="middle" x="249.01" y="-445.74" font-family="Times,serif" font-size="14.00">W</text>
<text text-anchor="middle" x="249.01" y="-429.24" font-family="Times,serif" font-size="14.00">~</text>
<text text-anchor="middle" x="249.01" y="-412.74" font-family="Times,serif" font-size="14.00">Deterministic</text>
</g>
<!-- V&#45;&gt;W -->
<g id="edge1" class="edge">
<title>V&#45;&gt;W</title>
<path fill="none" stroke="black" d="M249.01,-510.6C249.01,-498.89 249.01,-486.11 249.01,-474.45"/>
<polygon fill="black" stroke="black" points="252.51,-474.77 249.01,-464.77 245.51,-474.77 252.51,-474.77"/>
</g>
<!-- alpha -->
<g id="node2" class="node">
<title>alpha</title>
<ellipse fill="none" stroke="black" cx="41.01" cy="-304.48" rx="41.01" ry="40.66"/>
<text text-anchor="middle" x="41.01" y="-315.93" font-family="Times,serif" font-size="14.00">alpha</text>
<text text-anchor="middle" x="41.01" y="-299.43" font-family="Times,serif" font-size="14.00">~</text>
<text text-anchor="middle" x="41.01" y="-282.93" font-family="Times,serif" font-size="14.00">Normal</text>
</g>
<!-- pi -->
<g id="node9" class="node">
<title>pi</title>
<polygon fill="none" stroke="black" points="186.14,-215.32 95.89,-215.32 95.89,-157.82 186.14,-157.82 186.14,-215.32"/>
<text text-anchor="middle" x="141.01" y="-198.02" font-family="Times,serif" font-size="14.00">pi</text>
<text text-anchor="middle" x="141.01" y="-181.52" font-family="Times,serif" font-size="14.00">~</text>
<text text-anchor="middle" x="141.01" y="-165.02" font-family="Times,serif" font-size="14.00">Deterministic</text>
</g>
<!-- alpha&#45;&gt;pi -->
<g id="edge8" class="edge">
<title>alpha&#45;&gt;pi</title>
<path fill="none" stroke="black" d="M60.78,-268.54C68.52,-256.19 77.95,-242.58 88.01,-231.32 90.44,-228.6 93.04,-225.91 95.73,-223.28"/>
<polygon fill="black" stroke="black" points="97.97,-225.99 102.93,-216.63 93.21,-220.85 97.97,-225.99"/>
</g>
<!-- rho -->
<g id="node3" class="node">
<title>rho</title>
<ellipse fill="none" stroke="black" cx="357.01" cy="-434.29" rx="44.72" ry="40.66"/>
<text text-anchor="middle" x="357.01" y="-445.74" font-family="Times,serif" font-size="14.00">rho</text>
<text text-anchor="middle" x="357.01" y="-429.24" font-family="Times,serif" font-size="14.00">~</text>
<text text-anchor="middle" x="357.01" y="-412.74" font-family="Times,serif" font-size="14.00">Uniform</text>
</g>
<!-- gamma -->
<g id="node7" class="node">
<title>gamma</title>
<ellipse fill="none" stroke="black" cx="297.01" cy="-304.48" rx="91.39" ry="40.66"/>
<text text-anchor="middle" x="297.01" y="-315.93" font-family="Times,serif" font-size="14.00">gamma</text>
<text text-anchor="middle" x="297.01" y="-299.43" font-family="Times,serif" font-size="14.00">~</text>
<text text-anchor="middle" x="297.01" y="-282.93" font-family="Times,serif" font-size="14.00">Multivariate_normal</text>
</g>
<!-- rho&#45;&gt;gamma -->
<g id="edge5" class="edge">
<title>rho&#45;&gt;gamma</title>
<path fill="none" stroke="black" d="M339.66,-396.32C333.59,-383.4 326.68,-368.67 320.21,-354.9"/>
<polygon fill="black" stroke="black" points="323.43,-353.53 316.02,-345.96 317.1,-356.5 323.43,-353.53"/>
</g>
<!-- beta -->
<g id="node6" class="node">
<title>beta</title>
<ellipse fill="none" stroke="black" cx="141.01" cy="-304.48" rx="41.01" ry="40.66"/>
<text text-anchor="middle" x="141.01" y="-315.93" font-family="Times,serif" font-size="14.00">beta</text>
<text text-anchor="middle" x="141.01" y="-299.43" font-family="Times,serif" font-size="14.00">~</text>
<text text-anchor="middle" x="141.01" y="-282.93" font-family="Times,serif" font-size="14.00">Normal</text>
</g>
<!-- W&#45;&gt;beta -->
<g id="edge3" class="edge">
<title>W&#45;&gt;beta</title>
<path fill="none" stroke="black" d="M231.01,-405.35C221.71,-391.59 209.86,-375.02 198.01,-361.13 192.21,-354.33 185.69,-347.41 179.2,-340.86"/>
<polygon fill="black" stroke="black" points="181.7,-338.41 172.13,-333.88 176.79,-343.4 181.7,-338.41"/>
</g>
<!-- W&#45;&gt;gamma -->
<g id="edge6" class="edge">
<title>W&#45;&gt;gamma</title>
<path fill="none" stroke="black" d="M259.55,-405.24C265.08,-390.52 272.02,-372.03 278.42,-354.99"/>
<polygon fill="black" stroke="black" points="281.54,-356.62 281.78,-346.03 274.99,-354.16 281.54,-356.62"/>
</g>
<!-- phi -->
<g id="node5" class="node">
<title>phi</title>
<ellipse fill="none" stroke="black" cx="141.01" cy="-434.29" rx="45.25" ry="40.66"/>
<text text-anchor="middle" x="141.01" y="-445.74" font-family="Times,serif" font-size="14.00">phi</text>
<text text-anchor="middle" x="141.01" y="-429.24" font-family="Times,serif" font-size="14.00">~</text>
<text text-anchor="middle" x="141.01" y="-412.74" font-family="Times,serif" font-size="14.00">Dirichlet</text>
</g>
<!-- phi&#45;&gt;beta -->
<g id="edge2" class="edge">
<title>phi&#45;&gt;beta</title>
<path fill="none" stroke="black" d="M141.01,-393.2C141.01,-381.66 141.01,-368.91 141.01,-356.79"/>
<polygon fill="black" stroke="black" points="144.51,-356.94 141.01,-346.94 137.51,-356.94 144.51,-356.94"/>
</g>
<!-- phi&#45;&gt;gamma -->
<g id="edge4" class="edge">
<title>phi&#45;&gt;gamma</title>
<path fill="none" stroke="black" d="M162.77,-398.09C171.71,-385.43 182.83,-371.69 195.01,-361.13 203.85,-353.48 213.92,-346.43 224.2,-340.12"/>
<polygon fill="black" stroke="black" points="225.95,-343.15 232.79,-335.06 222.4,-337.12 225.95,-343.15"/>
</g>
<!-- beta&#45;&gt;pi -->
<g id="edge9" class="edge">
<title>beta&#45;&gt;pi</title>
<path fill="none" stroke="black" d="M141.01,-263.59C141.01,-251.7 141.01,-238.69 141.01,-226.84"/>
<polygon fill="black" stroke="black" points="144.51,-226.98 141.01,-216.98 137.51,-226.98 144.51,-226.98"/>
</g>
<!-- gamma&#45;&gt;pi -->
<g id="edge7" class="edge">
<title>gamma&#45;&gt;pi</title>
<path fill="none" stroke="black" d="M250.63,-269.01C230.86,-254.32 207.82,-237.21 187.99,-222.47"/>
<polygon fill="black" stroke="black" points="190.16,-219.72 180.05,-216.57 185.99,-225.34 190.16,-219.72"/>
</g>
<!-- y -->
<g id="node8" class="node">
<title>y</title>
<ellipse fill="lightgrey" stroke="black" cx="141.01" cy="-81.16" rx="47.38" ry="40.66"/>
<text text-anchor="middle" x="141.01" y="-92.61" font-family="Times,serif" font-size="14.00">y</text>
<text text-anchor="middle" x="141.01" y="-76.11" font-family="Times,serif" font-size="14.00">~</text>
<text text-anchor="middle" x="141.01" y="-59.61" font-family="Times,serif" font-size="14.00">Bernoulli</text>
</g>
<!-- pi&#45;&gt;y -->
<g id="edge10" class="edge">
<title>pi&#45;&gt;y</title>
<path fill="none" stroke="black" d="M141.01,-157.58C141.01,-150.1 141.01,-141.77 141.01,-133.45"/>
<polygon fill="black" stroke="black" points="144.51,-133.71 141.01,-123.71 137.51,-133.71 144.51,-133.71"/>
</g>
</g>
</svg>
