<?xml version="1.0" encoding="UTF-8" standalone="no"?>
<!DOCTYPE svg PUBLIC "-//W3C//DTD SVG 1.1//EN"
 "http://www.w3.org/Graphics/SVG/1.1/DTD/svg11.dtd">
<!-- Generated by graphviz version 12.2.1 (20250203.1708)
 -->
<!-- Pages: 1 -->
<svg width="322pt" height="495pt"
 viewBox="0.00 0.00 321.78 495.25" xmlns="http://www.w3.org/2000/svg" xmlns:xlink="http://www.w3.org/1999/xlink">
<g id="graph0" class="graph" transform="scale(1 1) rotate(0) translate(4 491.25)">
<polygon fill="white" stroke="none" points="-4,4 -4,-491.25 317.78,-491.25 317.78,4 -4,4"/>
<g id="clust1" class="cluster">
<title>cluster4</title>
<path fill="none" stroke="black" d="M120.03,-8C120.03,-8 270.03,-8 270.03,-8 276.03,-8 282.03,-14 282.03,-20 282.03,-20 282.03,-229.87 282.03,-229.87 282.03,-235.87 276.03,-241.87 270.03,-241.87 270.03,-241.87 120.03,-241.87 120.03,-241.87 114.03,-241.87 108.03,-235.87 108.03,-229.87 108.03,-229.87 108.03,-20 108.03,-20 108.03,-14 114.03,-8 120.03,-8"/>
<text text-anchor="middle" x="269.53" y="-15.95" font-family="Times,serif" font-size="14.00">4</text>
</g>
<!-- alpha -->
<g id="node1" class="node">
<title>alpha</title>
<polygon fill="none" stroke="black" points="313.78,-354.37 200.28,-354.37 200.28,-294.62 313.78,-294.62 313.78,-354.37"/>
<text text-anchor="middle" x="257.03" y="-337.07" font-family="Times,serif" font-size="14.00">alpha</text>
<text text-anchor="middle" x="257.03" y="-319.82" font-family="Times,serif" font-size="14.00">~</text>
<text text-anchor="middle" x="257.03" y="-302.57" font-family="Times,serif" font-size="14.00">Deterministic</text>
</g>
<!-- mu -->
<g id="node6" class="node">
<title>mu</title>
<polygon fill="none" stroke="black" points="251.78,-233.87 138.28,-233.87 138.28,-174.12 251.78,-174.12 251.78,-233.87"/>
<text text-anchor="middle" x="195.03" y="-216.57" font-family="Times,serif" font-size="14.00">mu</text>
<text text-anchor="middle" x="195.03" y="-199.32" font-family="Times,serif" font-size="14.00">~</text>
<text text-anchor="middle" x="195.03" y="-182.07" font-family="Times,serif" font-size="14.00">Deterministic</text>
</g>
<!-- alpha&#45;&gt;mu -->
<g id="edge2" class="edge">
<title>alpha&#45;&gt;mu</title>
<path fill="none" stroke="black" d="M241.7,-294.21C233.8,-279.11 224.06,-260.49 215.52,-244.17"/>
<polygon fill="black" stroke="black" points="218.83,-242.94 211.09,-235.71 212.63,-246.19 218.83,-242.94"/>
</g>
<!-- T_0 -->
<g id="node2" class="node">
<title>T_0</title>
<ellipse fill="none" stroke="black" cx="257.03" cy="-445" rx="48.97" ry="42.25"/>
<text text-anchor="middle" x="257.03" y="-457.57" font-family="Times,serif" font-size="14.00">T_0</text>
<text text-anchor="middle" x="257.03" y="-440.32" font-family="Times,serif" font-size="14.00">~</text>
<text text-anchor="middle" x="257.03" y="-423.07" font-family="Times,serif" font-size="14.00">Normal</text>
</g>
<!-- T_0&#45;&gt;alpha -->
<g id="edge1" class="edge">
<title>T_0&#45;&gt;alpha</title>
<path fill="none" stroke="black" d="M257.03,-402.55C257.03,-390.74 257.03,-377.88 257.03,-366.12"/>
<polygon fill="black" stroke="black" points="260.53,-366.31 257.03,-356.31 253.53,-366.31 260.53,-366.31"/>
</g>
<!-- beta -->
<g id="node3" class="node">
<title>beta</title>
<ellipse fill="none" stroke="black" cx="132.03" cy="-324.5" rx="50.03" ry="42.25"/>
<text text-anchor="middle" x="132.03" y="-337.07" font-family="Times,serif" font-size="14.00">beta</text>
<text text-anchor="middle" x="132.03" y="-319.82" font-family="Times,serif" font-size="14.00">~</text>
<text text-anchor="middle" x="132.03" y="-302.57" font-family="Times,serif" font-size="14.00">Gamma</text>
</g>
<!-- beta&#45;&gt;mu -->
<g id="edge3" class="edge">
<title>beta&#45;&gt;mu</title>
<path fill="none" stroke="black" d="M152.31,-285.35C159.36,-272.09 167.27,-257.2 174.36,-243.88"/>
<polygon fill="black" stroke="black" points="177.27,-245.86 178.87,-235.39 171.09,-242.57 177.27,-245.86"/>
</g>
<!-- sigma -->
<g id="node4" class="node">
<title>sigma</title>
<ellipse fill="none" stroke="black" cx="50.03" cy="-204" rx="50.03" ry="42.25"/>
<text text-anchor="middle" x="50.03" y="-216.57" font-family="Times,serif" font-size="14.00">sigma</text>
<text text-anchor="middle" x="50.03" y="-199.32" font-family="Times,serif" font-size="14.00">~</text>
<text text-anchor="middle" x="50.03" y="-182.07" font-family="Times,serif" font-size="14.00">Gamma</text>
</g>
<!-- log(T &#45; T_env) -->
<g id="node5" class="node">
<title>log(T &#45; T_env)</title>
<ellipse fill="lightgrey" stroke="black" cx="195.03" cy="-83.5" rx="79.2" ry="42.25"/>
<text text-anchor="middle" x="195.03" y="-96.07" font-family="Times,serif" font-size="14.00">log(T &#45; T_env)</text>
<text text-anchor="middle" x="195.03" y="-78.82" font-family="Times,serif" font-size="14.00">~</text>
<text text-anchor="middle" x="195.03" y="-61.57" font-family="Times,serif" font-size="14.00">Normal</text>
</g>
<!-- sigma&#45;&gt;log(T &#45; T_env) -->
<g id="edge4" class="edge">
<title>sigma&#45;&gt;log(T &#45; T_env)</title>
<path fill="none" stroke="black" d="M85.5,-174.01C102.87,-159.81 124.12,-142.45 143.26,-126.81"/>
<polygon fill="black" stroke="black" points="145.47,-129.52 151,-120.48 141.04,-124.1 145.47,-129.52"/>
</g>
<!-- mu&#45;&gt;log(T &#45; T_env) -->
<g id="edge5" class="edge">
<title>mu&#45;&gt;log(T &#45; T_env)</title>
<path fill="none" stroke="black" d="M195.03,-173.71C195.03,-162.69 195.03,-149.79 195.03,-137.29"/>
<polygon fill="black" stroke="black" points="198.53,-137.49 195.03,-127.49 191.53,-137.49 198.53,-137.49"/>
</g>
</g>
</svg>
