<?xml version="1.0" encoding="UTF-8" standalone="no"?>
<!DOCTYPE svg PUBLIC "-//W3C//DTD SVG 1.1//EN"
 "http://www.w3.org/Graphics/SVG/1.1/DTD/svg11.dtd">
<!-- Generated by graphviz version 12.2.1 (20250203.1708)
 -->
<!-- Pages: 1 -->
<svg width="358pt" height="350pt"
 viewBox="0.00 0.00 357.78 350.00" xmlns="http://www.w3.org/2000/svg" xmlns:xlink="http://www.w3.org/1999/xlink">
<g id="graph0" class="graph" transform="scale(1 1) rotate(0) translate(4 346)">
<polygon fill="white" stroke="none" points="-4,4 -4,-346 353.78,-346 353.78,4 -4,4"/>
<g id="clust1" class="cluster">
<title>cluster4</title>
<path fill="none" stroke="black" d="M93.03,-8C93.03,-8 243.03,-8 243.03,-8 249.03,-8 255.03,-14 255.03,-20 255.03,-20 255.03,-121.75 255.03,-121.75 255.03,-127.75 249.03,-133.75 243.03,-133.75 243.03,-133.75 93.03,-133.75 93.03,-133.75 87.03,-133.75 81.03,-127.75 81.03,-121.75 81.03,-121.75 81.03,-20 81.03,-20 81.03,-14 87.03,-8 93.03,-8"/>
<text text-anchor="middle" x="242.53" y="-15.95" font-family="Times,serif" font-size="14.00">4</text>
</g>
<!-- alpha -->
<g id="node1" class="node">
<title>alpha</title>
<polygon fill="none" stroke="black" points="349.78,-233.87 236.28,-233.87 236.28,-174.12 349.78,-174.12 349.78,-233.87"/>
<text text-anchor="middle" x="293.03" y="-216.57" font-family="Times,serif" font-size="14.00">alpha</text>
<text text-anchor="middle" x="293.03" y="-199.32" font-family="Times,serif" font-size="14.00">~</text>
<text text-anchor="middle" x="293.03" y="-182.07" font-family="Times,serif" font-size="14.00">Deterministic</text>
</g>
<!-- log(T &#45; T_env) -->
<g id="node5" class="node">
<title>log(T &#45; T_env)</title>
<ellipse fill="lightgrey" stroke="black" cx="168.03" cy="-83.5" rx="79.2" ry="42.25"/>
<text text-anchor="middle" x="168.03" y="-96.07" font-family="Times,serif" font-size="14.00">log(T &#45; T_env)</text>
<text text-anchor="middle" x="168.03" y="-78.82" font-family="Times,serif" font-size="14.00">~</text>
<text text-anchor="middle" x="168.03" y="-61.57" font-family="Times,serif" font-size="14.00">Normal</text>
</g>
<!-- alpha&#45;&gt;log(T &#45; T_env) -->
<g id="edge2" class="edge">
<title>alpha&#45;&gt;log(T &#45; T_env)</title>
<path fill="none" stroke="black" d="M262.13,-173.71C247.72,-160.05 230.28,-143.51 214.34,-128.4"/>
<polygon fill="black" stroke="black" points="216.93,-126.04 207.26,-121.7 212.11,-131.12 216.93,-126.04"/>
</g>
<!-- T_0 -->
<g id="node2" class="node">
<title>T_0</title>
<path fill="lightgrey" stroke="black" d="M308.03,-342C308.03,-342 278.03,-342 278.03,-342 272.03,-342 266.03,-336 266.03,-330 266.03,-330 266.03,-294.25 266.03,-294.25 266.03,-288.25 272.03,-282.25 278.03,-282.25 278.03,-282.25 308.03,-282.25 308.03,-282.25 314.03,-282.25 320.03,-288.25 320.03,-294.25 320.03,-294.25 320.03,-330 320.03,-330 320.03,-336 314.03,-342 308.03,-342"/>
<text text-anchor="middle" x="293.03" y="-324.7" font-family="Times,serif" font-size="14.00">T_0</text>
<text text-anchor="middle" x="293.03" y="-307.45" font-family="Times,serif" font-size="14.00">~</text>
<text text-anchor="middle" x="293.03" y="-290.2" font-family="Times,serif" font-size="14.00">Data</text>
</g>
<!-- T_0&#45;&gt;alpha -->
<g id="edge1" class="edge">
<title>T_0&#45;&gt;alpha</title>
<path fill="none" stroke="black" d="M293.03,-281.84C293.03,-270.59 293.03,-257.54 293.03,-245.43"/>
<polygon fill="black" stroke="black" points="296.53,-245.7 293.03,-235.7 289.53,-245.7 296.53,-245.7"/>
</g>
<!-- beta -->
<g id="node3" class="node">
<title>beta</title>
<ellipse fill="none" stroke="black" cx="50.03" cy="-204" rx="50.03" ry="42.25"/>
<text text-anchor="middle" x="50.03" y="-216.57" font-family="Times,serif" font-size="14.00">beta</text>
<text text-anchor="middle" x="50.03" y="-199.32" font-family="Times,serif" font-size="14.00">~</text>
<text text-anchor="middle" x="50.03" y="-182.07" font-family="Times,serif" font-size="14.00">Gamma</text>
</g>
<!-- beta&#45;&gt;log(T &#45; T_env) -->
<g id="edge3" class="edge">
<title>beta&#45;&gt;log(T &#45; T_env)</title>
<path fill="none" stroke="black" d="M81.96,-170.93C94.74,-158.1 109.69,-143.09 123.5,-129.22"/>
<polygon fill="black" stroke="black" points="125.84,-131.83 130.41,-122.27 120.88,-126.89 125.84,-131.83"/>
</g>
<!-- sigma -->
<g id="node4" class="node">
<title>sigma</title>
<ellipse fill="none" stroke="black" cx="168.03" cy="-204" rx="50.03" ry="42.25"/>
<text text-anchor="middle" x="168.03" y="-216.57" font-family="Times,serif" font-size="14.00">sigma</text>
<text text-anchor="middle" x="168.03" y="-199.32" font-family="Times,serif" font-size="14.00">~</text>
<text text-anchor="middle" x="168.03" y="-182.07" font-family="Times,serif" font-size="14.00">Gamma</text>
</g>
<!-- sigma&#45;&gt;log(T &#45; T_env) -->
<g id="edge4" class="edge">
<title>sigma&#45;&gt;log(T &#45; T_env)</title>
<path fill="none" stroke="black" d="M168.03,-161.55C168.03,-153.75 168.03,-145.49 168.03,-137.4"/>
<polygon fill="black" stroke="black" points="171.53,-137.64 168.03,-127.64 164.53,-137.64 171.53,-137.64"/>
</g>
</g>
</svg>
