<?xml version="1.0" encoding="UTF-8" standalone="no"?>
<!DOCTYPE svg PUBLIC "-//W3C//DTD SVG 1.1//EN"
 "http://www.w3.org/Graphics/SVG/1.1/DTD/svg11.dtd">
<!-- Generated by graphviz version 12.2.1 (20250203.1708)
 -->
<!-- Pages: 1 -->
<svg width="326pt" height="492pt"
 viewBox="0.00 0.00 326.03 491.75" xmlns="http://www.w3.org/2000/svg" xmlns:xlink="http://www.w3.org/1999/xlink">
<g id="graph0" class="graph" transform="scale(1 1) rotate(0) translate(4 487.75)">
<polygon fill="white" stroke="none" points="-4,4 -4,-487.75 322.03,-487.75 322.03,4 -4,4"/>
<g id="clust1" class="cluster">
<title>clusterbrand (4)</title>
<path fill="none" stroke="black" d="M90.03,-254.25C90.03,-254.25 298.03,-254.25 298.03,-254.25 304.03,-254.25 310.03,-260.25 310.03,-266.25 310.03,-266.25 310.03,-463.75 310.03,-463.75 310.03,-469.75 304.03,-475.75 298.03,-475.75 298.03,-475.75 90.03,-475.75 90.03,-475.75 84.03,-475.75 78.03,-469.75 78.03,-463.75 78.03,-463.75 78.03,-266.25 78.03,-266.25 78.03,-260.25 84.03,-254.25 90.03,-254.25"/>
<text text-anchor="middle" x="269.03" y="-262.2" font-family="Times,serif" font-size="14.00">brand (4)</text>
</g>
<g id="clust2" class="cluster">
<title>cluster16</title>
<path fill="none" stroke="black" d="M120.03,-8C120.03,-8 270.03,-8 270.03,-8 276.03,-8 282.03,-14 282.03,-20 282.03,-20 282.03,-229.87 282.03,-229.87 282.03,-235.87 276.03,-241.87 270.03,-241.87 270.03,-241.87 120.03,-241.87 120.03,-241.87 114.03,-241.87 108.03,-235.87 108.03,-229.87 108.03,-229.87 108.03,-20 108.03,-20 108.03,-14 114.03,-8 120.03,-8"/>
<text text-anchor="middle" x="265.03" y="-15.95" font-family="Times,serif" font-size="14.00">16</text>
</g>
<!-- alpha -->
<g id="node1" class="node">
<title>alpha</title>
<polygon fill="none" stroke="black" points="211.78,-347.25 98.28,-347.25 98.28,-287.5 211.78,-287.5 211.78,-347.25"/>
<text text-anchor="middle" x="155.03" y="-329.95" font-family="Times,serif" font-size="14.00">alpha</text>
<text text-anchor="middle" x="155.03" y="-312.7" font-family="Times,serif" font-size="14.00">~</text>
<text text-anchor="middle" x="155.03" y="-295.45" font-family="Times,serif" font-size="14.00">Deterministic</text>
</g>
<!-- mu -->
<g id="node6" class="node">
<title>mu</title>
<polygon fill="none" stroke="black" points="251.78,-233.87 138.28,-233.87 138.28,-174.12 251.78,-174.12 251.78,-233.87"/>
<text text-anchor="middle" x="195.03" y="-216.57" font-family="Times,serif" font-size="14.00">mu</text>
<text text-anchor="middle" x="195.03" y="-199.32" font-family="Times,serif" font-size="14.00">~</text>
<text text-anchor="middle" x="195.03" y="-182.07" font-family="Times,serif" font-size="14.00">Deterministic</text>
</g>
<!-- alpha&#45;&gt;mu -->
<g id="edge2" class="edge">
<title>alpha&#45;&gt;mu</title>
<path fill="none" stroke="black" d="M165.54,-287.11C170.18,-274.19 175.7,-258.81 180.71,-244.86"/>
<polygon fill="black" stroke="black" points="183.99,-246.08 184.08,-235.49 177.4,-243.72 183.99,-246.08"/>
</g>
<!-- T_0 -->
<g id="node2" class="node">
<title>T_0</title>
<ellipse fill="none" stroke="black" cx="135.03" cy="-425.5" rx="48.97" ry="42.25"/>
<text text-anchor="middle" x="135.03" y="-438.07" font-family="Times,serif" font-size="14.00">T_0</text>
<text text-anchor="middle" x="135.03" y="-420.82" font-family="Times,serif" font-size="14.00">~</text>
<text text-anchor="middle" x="135.03" y="-403.57" font-family="Times,serif" font-size="14.00">Normal</text>
</g>
<!-- T_0&#45;&gt;alpha -->
<g id="edge1" class="edge">
<title>T_0&#45;&gt;alpha</title>
<path fill="none" stroke="black" d="M142.76,-383.47C144.3,-375.3 145.91,-366.73 147.45,-358.59"/>
<polygon fill="black" stroke="black" points="150.85,-359.42 149.27,-348.95 143.97,-358.13 150.85,-359.42"/>
</g>
<!-- beta -->
<g id="node3" class="node">
<title>beta</title>
<ellipse fill="none" stroke="black" cx="252.03" cy="-425.5" rx="50.03" ry="42.25"/>
<text text-anchor="middle" x="252.03" y="-438.07" font-family="Times,serif" font-size="14.00">beta</text>
<text text-anchor="middle" x="252.03" y="-420.82" font-family="Times,serif" font-size="14.00">~</text>
<text text-anchor="middle" x="252.03" y="-403.57" font-family="Times,serif" font-size="14.00">Gamma</text>
</g>
<!-- beta&#45;&gt;mu -->
<g id="edge3" class="edge">
<title>beta&#45;&gt;mu</title>
<path fill="none" stroke="black" d="M248.06,-383.01C243.87,-347.97 235.76,-296.84 221.03,-254.25 219.91,-251.02 218.61,-247.74 217.19,-244.49"/>
<polygon fill="black" stroke="black" points="220.45,-243.2 213,-235.66 214.12,-246.2 220.45,-243.2"/>
</g>
<!-- sigma -->
<g id="node4" class="node">
<title>sigma</title>
<ellipse fill="none" stroke="black" cx="50.03" cy="-204" rx="50.03" ry="42.25"/>
<text text-anchor="middle" x="50.03" y="-216.57" font-family="Times,serif" font-size="14.00">sigma</text>
<text text-anchor="middle" x="50.03" y="-199.32" font-family="Times,serif" font-size="14.00">~</text>
<text text-anchor="middle" x="50.03" y="-182.07" font-family="Times,serif" font-size="14.00">Gamma</text>
</g>
<!-- log(T &#45; T_env) -->
<g id="node5" class="node">
<title>log(T &#45; T_env)</title>
<ellipse fill="lightgrey" stroke="black" cx="195.03" cy="-83.5" rx="79.2" ry="42.25"/>
<text text-anchor="middle" x="195.03" y="-96.07" font-family="Times,serif" font-size="14.00">log(T &#45; T_env)</text>
<text text-anchor="middle" x="195.03" y="-78.82" font-family="Times,serif" font-size="14.00">~</text>
<text text-anchor="middle" x="195.03" y="-61.57" font-family="Times,serif" font-size="14.00">Normal</text>
</g>
<!-- sigma&#45;&gt;log(T &#45; T_env) -->
<g id="edge4" class="edge">
<title>sigma&#45;&gt;log(T &#45; T_env)</title>
<path fill="none" stroke="black" d="M85.5,-174.01C102.87,-159.81 124.12,-142.45 143.26,-126.81"/>
<polygon fill="black" stroke="black" points="145.47,-129.52 151,-120.48 141.04,-124.1 145.47,-129.52"/>
</g>
<!-- mu&#45;&gt;log(T &#45; T_env) -->
<g id="edge5" class="edge">
<title>mu&#45;&gt;log(T &#45; T_env)</title>
<path fill="none" stroke="black" d="M195.03,-173.71C195.03,-162.69 195.03,-149.79 195.03,-137.29"/>
<polygon fill="black" stroke="black" points="198.53,-137.49 195.03,-127.49 191.53,-137.49 198.53,-137.49"/>
</g>
</g>
</svg>
