<?xml version="1.0" encoding="UTF-8" standalone="no"?>
<!DOCTYPE svg PUBLIC "-//W3C//DTD SVG 1.1//EN"
 "http://www.w3.org/Graphics/SVG/1.1/DTD/svg11.dtd">
<!-- Generated by graphviz version 2.50.0 (0)
 -->
<!-- Pages: 1 -->
<svg width="505pt" height="344pt"
 viewBox="0.00 0.00 505.47 343.86" xmlns="http://www.w3.org/2000/svg" xmlns:xlink="http://www.w3.org/1999/xlink">
<g id="graph0" class="graph" transform="scale(1 1) rotate(0) translate(4 339.86)">
<polygon fill="white" stroke="transparent" points="-4,4 -4,-339.86 501.47,-339.86 501.47,4 -4,4"/>
<g id="clust1" class="cluster">
<title>clustery_obs (1000)</title>
<path fill="none" stroke="black" d="M55.78,-8C55.78,-8 243.78,-8 243.78,-8 249.78,-8 255.78,-14 255.78,-20 255.78,-20 255.78,-209.93 255.78,-209.93 255.78,-215.93 249.78,-221.93 243.78,-221.93 243.78,-221.93 55.78,-221.93 55.78,-221.93 49.78,-221.93 43.78,-215.93 43.78,-209.93 43.78,-209.93 43.78,-20 43.78,-20 43.78,-14 49.78,-8 55.78,-8"/>
<text text-anchor="middle" x="202.28" y="-15.8" font-family="Times,serif" font-size="14.00">y_obs (1000)</text>
</g>
<!-- psi_Intercept -->
<g id="node1" class="node">
<title>psi_Intercept</title>
<ellipse fill="none" stroke="black" cx="77.78" cy="-298.38" rx="77.56" ry="37.45"/>
<text text-anchor="middle" x="77.78" y="-309.68" font-family="Times,serif" font-size="14.00">psi_Intercept</text>
<text text-anchor="middle" x="77.78" y="-294.68" font-family="Times,serif" font-size="14.00">~</text>
<text text-anchor="middle" x="77.78" y="-279.68" font-family="Times,serif" font-size="14.00">Normal</text>
</g>
<!-- y_psi -->
<g id="node5" class="node">
<title>y_psi</title>
<polygon fill="none" stroke="black" points="206.78,-213.93 92.78,-213.93 92.78,-160.93 206.78,-160.93 206.78,-213.93"/>
<text text-anchor="middle" x="149.78" y="-198.73" font-family="Times,serif" font-size="14.00">y_psi</text>
<text text-anchor="middle" x="149.78" y="-183.73" font-family="Times,serif" font-size="14.00">~</text>
<text text-anchor="middle" x="149.78" y="-168.73" font-family="Times,serif" font-size="14.00">Deterministic</text>
</g>
<!-- psi_Intercept&#45;&gt;y_psi -->
<g id="edge1" class="edge">
<title>psi_Intercept&#45;&gt;y_psi</title>
<path fill="none" stroke="black" d="M100.96,-262.31C109.38,-249.57 118.87,-235.21 127.23,-222.55"/>
<polygon fill="black" stroke="black" points="130.22,-224.38 132.81,-214.11 124.38,-220.52 130.22,-224.38"/>
</g>
<!-- x -->
<g id="node2" class="node">
<title>x</title>
<ellipse fill="none" stroke="black" cx="312.78" cy="-187.43" rx="49.49" ry="37.45"/>
<text text-anchor="middle" x="312.78" y="-198.73" font-family="Times,serif" font-size="14.00">x</text>
<text text-anchor="middle" x="312.78" y="-183.73" font-family="Times,serif" font-size="14.00">~</text>
<text text-anchor="middle" x="312.78" y="-168.73" font-family="Times,serif" font-size="14.00">Normal</text>
</g>
<!-- y -->
<g id="node6" class="node">
<title>y</title>
<ellipse fill="lightgrey" stroke="black" cx="149.78" cy="-76.48" rx="97.66" ry="37.45"/>
<text text-anchor="middle" x="149.78" y="-87.78" font-family="Times,serif" font-size="14.00">y</text>
<text text-anchor="middle" x="149.78" y="-72.78" font-family="Times,serif" font-size="14.00">~</text>
<text text-anchor="middle" x="149.78" y="-57.78" font-family="Times,serif" font-size="14.00">MarginalMixture</text>
</g>
<!-- x&#45;&gt;y -->
<g id="edge4" class="edge">
<title>x&#45;&gt;y</title>
<path fill="none" stroke="black" d="M276.64,-161.41C271.01,-157.56 265.25,-153.63 259.78,-149.95 242.74,-138.48 224.11,-126.13 207.11,-114.94"/>
<polygon fill="black" stroke="black" points="208.66,-111.77 198.38,-109.2 204.82,-117.62 208.66,-111.77"/>
</g>
<!-- psi_x -->
<g id="node3" class="node">
<title>psi_x</title>
<ellipse fill="none" stroke="black" cx="222.78" cy="-298.38" rx="49.49" ry="37.45"/>
<text text-anchor="middle" x="222.78" y="-309.68" font-family="Times,serif" font-size="14.00">psi_x</text>
<text text-anchor="middle" x="222.78" y="-294.68" font-family="Times,serif" font-size="14.00">~</text>
<text text-anchor="middle" x="222.78" y="-279.68" font-family="Times,serif" font-size="14.00">Normal</text>
</g>
<!-- psi_x&#45;&gt;y_psi -->
<g id="edge2" class="edge">
<title>psi_x&#45;&gt;y_psi</title>
<path fill="none" stroke="black" d="M200.88,-264.69C191.99,-251.43 181.72,-236.1 172.73,-222.68"/>
<polygon fill="black" stroke="black" points="175.51,-220.53 167.03,-214.17 169.69,-224.43 175.51,-220.53"/>
</g>
<!-- Intercept -->
<g id="node4" class="node">
<title>Intercept</title>
<ellipse fill="none" stroke="black" cx="438.78" cy="-187.43" rx="58.88" ry="37.45"/>
<text text-anchor="middle" x="438.78" y="-198.73" font-family="Times,serif" font-size="14.00">Intercept</text>
<text text-anchor="middle" x="438.78" y="-183.73" font-family="Times,serif" font-size="14.00">~</text>
<text text-anchor="middle" x="438.78" y="-168.73" font-family="Times,serif" font-size="14.00">Normal</text>
</g>
<!-- Intercept&#45;&gt;y -->
<g id="edge5" class="edge">
<title>Intercept&#45;&gt;y</title>
<path fill="none" stroke="black" d="M395.44,-161.73C387.37,-157.54 378.91,-153.43 370.78,-149.95 327.74,-131.52 278.35,-114.92 237.19,-102.27"/>
<polygon fill="black" stroke="black" points="238.05,-98.87 227.46,-99.3 236.01,-105.56 238.05,-98.87"/>
</g>
<!-- y_psi&#45;&gt;y -->
<g id="edge3" class="edge">
<title>y_psi&#45;&gt;y</title>
<path fill="none" stroke="black" d="M149.78,-160.89C149.78,-149.98 149.78,-136.89 149.78,-124.35"/>
<polygon fill="black" stroke="black" points="153.28,-124 149.78,-114 146.28,-124 153.28,-124"/>
</g>
</g>
</svg>
