<?xml version="1.0" encoding="UTF-8" standalone="no"?>
<!DOCTYPE svg PUBLIC "-//W3C//DTD SVG 1.1//EN"
 "http://www.w3.org/Graphics/SVG/1.1/DTD/svg11.dtd">
<!-- Generated by graphviz version 2.50.0 (0)
 -->
<!-- Pages: 1 -->
<svg width="478pt" height="344pt"
 viewBox="0.00 0.00 477.99 343.86" xmlns="http://www.w3.org/2000/svg" xmlns:xlink="http://www.w3.org/1999/xlink">
<g id="graph0" class="graph" transform="scale(1 1) rotate(0) translate(4 339.86)">
<polygon fill="white" stroke="transparent" points="-4,4 -4,-339.86 473.99,-339.86 473.99,4 -4,4"/>
<g id="clust1" class="cluster">
<title>clustery_obs (500)</title>
<path fill="none" stroke="black" d="M27.5,-8C27.5,-8 215.5,-8 215.5,-8 221.5,-8 227.5,-14 227.5,-20 227.5,-20 227.5,-209.93 227.5,-209.93 227.5,-215.93 221.5,-221.93 215.5,-221.93 215.5,-221.93 27.5,-221.93 27.5,-221.93 21.5,-221.93 15.5,-215.93 15.5,-209.93 15.5,-209.93 15.5,-20 15.5,-20 15.5,-14 21.5,-8 27.5,-8"/>
<text text-anchor="middle" x="178.5" y="-15.8" font-family="Times,serif" font-size="14.00">y_obs (500)</text>
</g>
<!-- psi_x -->
<g id="node1" class="node">
<title>psi_x</title>
<ellipse fill="none" stroke="black" cx="49.5" cy="-298.38" rx="49.49" ry="37.45"/>
<text text-anchor="middle" x="49.5" y="-309.68" font-family="Times,serif" font-size="14.00">psi_x</text>
<text text-anchor="middle" x="49.5" y="-294.68" font-family="Times,serif" font-size="14.00">~</text>
<text text-anchor="middle" x="49.5" y="-279.68" font-family="Times,serif" font-size="14.00">Normal</text>
</g>
<!-- y_psi -->
<g id="node5" class="node">
<title>y_psi</title>
<polygon fill="none" stroke="black" points="178.5,-213.93 64.5,-213.93 64.5,-160.93 178.5,-160.93 178.5,-213.93"/>
<text text-anchor="middle" x="121.5" y="-198.73" font-family="Times,serif" font-size="14.00">y_psi</text>
<text text-anchor="middle" x="121.5" y="-183.73" font-family="Times,serif" font-size="14.00">~</text>
<text text-anchor="middle" x="121.5" y="-168.73" font-family="Times,serif" font-size="14.00">Deterministic</text>
</g>
<!-- psi_x&#45;&gt;y_psi -->
<g id="edge2" class="edge">
<title>psi_x&#45;&gt;y_psi</title>
<path fill="none" stroke="black" d="M71.3,-264.4C80.05,-251.14 90.15,-235.87 98.98,-222.5"/>
<polygon fill="black" stroke="black" points="101.98,-224.31 104.57,-214.04 96.14,-220.45 101.98,-224.31"/>
</g>
<!-- psi_Intercept -->
<g id="node2" class="node">
<title>psi_Intercept</title>
<ellipse fill="none" stroke="black" cx="194.5" cy="-298.38" rx="77.56" ry="37.45"/>
<text text-anchor="middle" x="194.5" y="-309.68" font-family="Times,serif" font-size="14.00">psi_Intercept</text>
<text text-anchor="middle" x="194.5" y="-294.68" font-family="Times,serif" font-size="14.00">~</text>
<text text-anchor="middle" x="194.5" y="-279.68" font-family="Times,serif" font-size="14.00">Normal</text>
</g>
<!-- psi_Intercept&#45;&gt;y_psi -->
<g id="edge1" class="edge">
<title>psi_Intercept&#45;&gt;y_psi</title>
<path fill="none" stroke="black" d="M171.2,-262.61C162.66,-249.86 153,-235.44 144.48,-222.73"/>
<polygon fill="black" stroke="black" points="147.27,-220.61 138.8,-214.25 141.45,-224.5 147.27,-220.61"/>
</g>
<!-- Intercept -->
<g id="node3" class="node">
<title>Intercept</title>
<ellipse fill="none" stroke="black" cx="294.5" cy="-187.43" rx="58.88" ry="37.45"/>
<text text-anchor="middle" x="294.5" y="-198.73" font-family="Times,serif" font-size="14.00">Intercept</text>
<text text-anchor="middle" x="294.5" y="-183.73" font-family="Times,serif" font-size="14.00">~</text>
<text text-anchor="middle" x="294.5" y="-168.73" font-family="Times,serif" font-size="14.00">Normal</text>
</g>
<!-- y -->
<g id="node6" class="node">
<title>y</title>
<ellipse fill="lightgrey" stroke="black" cx="121.5" cy="-76.48" rx="97.66" ry="37.45"/>
<text text-anchor="middle" x="121.5" y="-87.78" font-family="Times,serif" font-size="14.00">y</text>
<text text-anchor="middle" x="121.5" y="-72.78" font-family="Times,serif" font-size="14.00">~</text>
<text text-anchor="middle" x="121.5" y="-57.78" font-family="Times,serif" font-size="14.00">MarginalMixture</text>
</g>
<!-- Intercept&#45;&gt;y -->
<g id="edge3" class="edge">
<title>Intercept&#45;&gt;y</title>
<path fill="none" stroke="black" d="M253.5,-160.61C231.52,-146.77 204.06,-129.47 179.88,-114.25"/>
<polygon fill="black" stroke="black" points="181.47,-111.11 171.14,-108.74 177.74,-117.03 181.47,-111.11"/>
</g>
<!-- x -->
<g id="node4" class="node">
<title>x</title>
<ellipse fill="none" stroke="black" cx="420.5" cy="-187.43" rx="49.49" ry="37.45"/>
<text text-anchor="middle" x="420.5" y="-198.73" font-family="Times,serif" font-size="14.00">x</text>
<text text-anchor="middle" x="420.5" y="-183.73" font-family="Times,serif" font-size="14.00">~</text>
<text text-anchor="middle" x="420.5" y="-168.73" font-family="Times,serif" font-size="14.00">Normal</text>
</g>
<!-- x&#45;&gt;y -->
<g id="edge5" class="edge">
<title>x&#45;&gt;y</title>
<path fill="none" stroke="black" d="M384.2,-161.54C377.18,-157.32 369.75,-153.25 362.5,-149.95 315.25,-128.47 259.97,-111.32 214.27,-99.11"/>
<polygon fill="black" stroke="black" points="214.94,-95.66 204.37,-96.5 213.15,-102.43 214.94,-95.66"/>
</g>
<!-- y_psi&#45;&gt;y -->
<g id="edge4" class="edge">
<title>y_psi&#45;&gt;y</title>
<path fill="none" stroke="black" d="M121.5,-160.89C121.5,-149.98 121.5,-136.89 121.5,-124.35"/>
<polygon fill="black" stroke="black" points="125,-124 121.5,-114 118,-124 125,-124"/>
</g>
</g>
</svg>
